<svg width="70" height="70" viewBox="0 0 70 70" fill="none" xmlns="http://www.w3.org/2000/svg">
<circle cx="35" cy="35" r="35" fill="white"/>
<path d="M17.5 47.9871C17.5 50.4798 19.5205 52.5 22.0129 52.5H47.9871C50.4798 52.5 52.5 50.4795 52.5 47.9871V22.0129C52.5 19.5202 50.4795 17.5 47.9871 17.5H22.0129C19.5202 17.5 17.5 19.5205 17.5 22.0129L17.5 47.9871Z" fill="url(#paint0_linear_313_75)"/>
<path d="M32.0137 32.9818V28.0252H36.3767C36.7922 28.0252 37.1929 28.0599 37.5787 28.1291C37.9646 28.1984 38.3059 28.322 38.6027 28.5001C38.8995 28.6782 39.1369 28.9255 39.315 29.2421C39.4931 29.5587 39.5821 29.9643 39.5821 30.459C39.5821 31.3494 39.315 31.9924 38.7807 32.3882C38.2465 32.7839 37.5639 32.9818 36.7328 32.9818H32.0137ZM27.354 24.4043V45.5957H37.6232C38.573 45.5957 39.498 45.477 40.3983 45.2395C41.2986 45.0021 42.0999 44.6361 42.8024 44.1414C43.5048 43.6467 44.0638 43.0086 44.4793 42.227C44.8948 41.4455 45.1026 40.5205 45.1026 39.452C45.1026 38.1263 44.781 36.9935 44.138 36.0536C43.4949 35.1138 42.5204 34.4559 41.2145 34.0799C42.1643 33.6248 42.8815 33.0411 43.3663 32.3288C43.8511 31.6165 44.0934 30.7261 44.0934 29.6576C44.0934 28.6683 43.9302 27.8373 43.6037 27.1645C43.2772 26.4918 42.8172 25.9526 42.2236 25.547C41.63 25.1413 40.9177 24.8495 40.0867 24.6714C39.2556 24.4933 38.3356 24.4043 37.3264 24.4043H27.354ZM32.0137 41.9748V36.1575H37.089C38.0981 36.1575 38.9094 36.39 39.5227 36.855C40.1361 37.32 40.4428 38.0966 40.4428 39.1849C40.4428 39.7389 40.3488 40.194 40.1609 40.5501C39.9729 40.9063 39.7206 41.1882 39.404 41.396C39.0874 41.6038 38.7214 41.7522 38.3059 41.8412C37.8903 41.9302 37.455 41.9748 37 41.9748H32.0137Z" fill="white"/>
<defs>
<linearGradient id="paint0_linear_313_75" x1="17.5" y1="17.5" x2="52.5" y2="52.5" gradientUnits="userSpaceOnUse">
<stop stop-color="#8F11FE"/>
<stop offset="1" stop-color="#5600D7"/>
</linearGradient>
</defs>
</svg>
