<svg width="241" height="240" viewBox="0 0 241 240" fill="none" xmlns="http://www.w3.org/2000/svg">
<g filter="url(#filter0_dddd_67_311)">
<circle cx="120.5" cy="87" r="40" fill="white"/>
</g>
<path d="M100.5 101.842C100.5 104.691 102.809 107 105.658 107H135.342C138.191 107 140.5 104.691 140.5 101.842V72.1576C140.5 69.3088 138.191 67 135.342 67H105.658C102.809 67 100.5 69.3091 100.5 72.1576V101.842Z" fill="url(#paint0_linear_67_311)"/>
<path d="M117.087 84.6935V79.0288H122.073C122.548 79.0288 123.006 79.0684 123.447 79.1476C123.888 79.2267 124.278 79.368 124.617 79.5716C124.957 79.7751 125.228 80.0577 125.431 80.4196C125.635 80.7814 125.737 81.2449 125.737 81.8103C125.737 82.8279 125.431 83.5628 124.821 84.0151C124.21 84.4673 123.43 84.6935 122.48 84.6935H117.087ZM111.762 74.8906V99.1094H123.498C124.583 99.1094 125.641 98.9737 126.669 98.7023C127.698 98.431 128.614 98.0126 129.417 97.4473C130.22 96.882 130.859 96.1527 131.333 95.2595C131.808 94.3662 132.046 93.3091 132.046 92.088C132.046 90.5729 131.678 89.2783 130.943 88.2042C130.208 87.13 129.095 86.3781 127.602 85.9485C128.688 85.4284 129.507 84.7613 130.061 83.9472C130.615 83.1331 130.892 82.1156 130.892 80.8944C130.892 79.7638 130.706 78.814 130.333 78.0452C129.96 77.2763 129.434 76.6601 128.756 76.1965C128.077 75.733 127.263 75.3994 126.313 75.1959C125.364 74.9924 124.312 74.8906 123.159 74.8906H111.762ZM117.087 94.9712V88.3229H122.887C124.041 88.3229 124.968 88.5886 125.669 89.12C126.37 89.6514 126.72 90.539 126.72 91.7827C126.72 92.4159 126.613 92.936 126.398 93.343C126.183 93.75 125.895 94.0723 125.533 94.3097C125.171 94.5472 124.753 94.7168 124.278 94.8185C123.803 94.9203 123.306 94.9712 122.786 94.9712H117.087Z" fill="white"/>
<defs>
<filter id="filter0_dddd_67_311" x="0.5" y="0" width="240" height="240" filterUnits="userSpaceOnUse" color-interpolation-filters="sRGB">
<feFlood flood-opacity="0" result="BackgroundImageFix"/>
<feColorMatrix in="SourceAlpha" type="matrix" values="0 0 0 0 0 0 0 0 0 0 0 0 0 0 0 0 0 0 127 0" result="hardAlpha"/>
<feOffset dy="1.4945"/>
<feGaussianBlur stdDeviation="1.81152"/>
<feColorMatrix type="matrix" values="0 0 0 0 0 0 0 0 0 0 0 0 0 0 0 0 0 0 0.0243888 0"/>
<feBlend mode="normal" in2="BackgroundImageFix" result="effect1_dropShadow_67_311"/>
<feColorMatrix in="SourceAlpha" type="matrix" values="0 0 0 0 0 0 0 0 0 0 0 0 0 0 0 0 0 0 127 0" result="hardAlpha"/>
<feOffset dy="4.13211"/>
<feGaussianBlur stdDeviation="5.00862"/>
<feColorMatrix type="matrix" values="0 0 0 0 0 0 0 0 0 0 0 0 0 0 0 0 0 0 0.035 0"/>
<feBlend mode="normal" in2="effect1_dropShadow_67_311" result="effect2_dropShadow_67_311"/>
<feColorMatrix in="SourceAlpha" type="matrix" values="0 0 0 0 0 0 0 0 0 0 0 0 0 0 0 0 0 0 127 0" result="hardAlpha"/>
<feOffset dy="9.94853"/>
<feGaussianBlur stdDeviation="12.0588"/>
<feColorMatrix type="matrix" values="0 0 0 0 0 0 0 0 0 0 0 0 0 0 0 0 0 0 0.0456112 0"/>
<feBlend mode="normal" in2="effect2_dropShadow_67_311" result="effect3_dropShadow_67_311"/>
<feColorMatrix in="SourceAlpha" type="matrix" values="0 0 0 0 0 0 0 0 0 0 0 0 0 0 0 0 0 0 127 0" result="hardAlpha"/>
<feOffset dy="33"/>
<feGaussianBlur stdDeviation="40"/>
<feColorMatrix type="matrix" values="0 0 0 0 0 0 0 0 0 0 0 0 0 0 0 0 0 0 0.07 0"/>
<feBlend mode="normal" in2="effect3_dropShadow_67_311" result="effect4_dropShadow_67_311"/>
<feBlend mode="normal" in="SourceGraphic" in2="effect4_dropShadow_67_311" result="shape"/>
</filter>
<linearGradient id="paint0_linear_67_311" x1="100.5" y1="67" x2="140.5" y2="107" gradientUnits="userSpaceOnUse">
<stop stop-color="#8F11FE"/>
<stop offset="1" stop-color="#5600D7"/>
</linearGradient>
</defs>
</svg>
