<svg width="38" height="37" viewBox="0 0 38 37" fill="none" xmlns="http://www.w3.org/2000/svg">
<path d="M10.6333 3.76917C12.5807 5.18964 14.0536 7.18599 15.3077 9.01727L16.2902 10.4637C16.9158 11.378 16.8125 12.6184 16.0183 13.4127L13.9271 15.5037L14.1485 15.9715C14.6877 17.0646 15.6183 18.64 17.02 20.0417C18.0983 21.12 19.2793 21.9195 20.2645 22.4765L20.8296 22.7819L21.3335 23.0308C21.4116 23.0677 21.4865 23.1023 21.5579 23.1346L23.6481 21.0446C24.443 20.2495 25.6887 20.1447 26.605 20.7797L28.1684 21.8634C29.9438 23.1125 31.7979 24.5361 33.2399 26.3829C33.7666 27.0572 33.8447 27.9392 33.5307 28.6721C32.2406 31.6822 28.976 34.2459 25.58 34.1208L25.1167 34.0951L24.7576 34.0641L24.3601 34.0196L23.926 33.9594L23.4569 33.8813L22.9544 33.7833L22.4202 33.6632L21.8558 33.5188L21.263 33.348L20.6433 33.1487C17.7969 32.1844 14.1851 30.2882 10.4793 26.5824C6.77346 22.8766 4.87734 19.2648 3.91301 16.4184L3.71369 15.7987L3.54291 15.2059L3.39852 14.6415L3.27839 14.1073C3.24215 13.9344 3.2096 13.7668 3.18037 13.6048L3.10232 13.1357L3.0421 12.7016L2.99757 12.3042L2.96659 11.9451L2.94083 11.4818C2.81628 8.09713 5.40906 4.80846 8.40544 3.5243C9.10855 3.22296 9.96013 3.27811 10.6333 3.76917ZM9.20176 6.55699C7.55 7.42107 5.94944 9.39442 6.02209 11.3684L6.05403 11.8747L6.08581 12.1896L6.13123 12.5435L6.19259 12.9346L6.2722 13.3611L6.37238 13.8216L6.49543 14.3141L6.64368 14.8371L6.81944 15.3888C6.88286 15.5773 6.95126 15.7703 7.02501 15.9675L7.26272 16.5715L7.53486 17.1992C8.502 19.329 10.0817 21.8244 12.6595 24.4022C15.2374 26.98 17.7327 28.5597 19.8625 29.5269L20.4902 29.799L21.0943 30.0367C21.2915 30.1105 21.4845 30.1789 21.673 30.2423L22.2247 30.418L22.7477 30.5663L23.2402 30.6894L23.7006 30.7895L24.1272 30.8692L24.5183 30.9305L24.8721 30.9759L25.187 31.0077L25.6933 31.0397C27.6427 31.1114 29.6312 29.5202 30.4907 27.8896C29.3934 26.602 28.0307 25.5455 26.5272 24.4812L25.3751 23.6779L25.081 23.9847L24.4563 24.6678L24.1242 25.0171C23.2205 25.9372 22.1668 26.7193 20.9029 26.2081L20.5539 26.0619L20.1286 25.8712C20.0519 25.8356 19.9724 25.7981 19.8904 25.7586L19.3693 25.4979L18.7969 25.1886C17.6071 24.5204 16.1686 23.5508 14.8398 22.222C13.511 20.8931 12.5414 19.4547 11.8731 18.2649L11.5638 17.6924L11.3031 17.1713L10.9998 16.5079L10.8536 16.1589C10.3739 14.9729 11.0332 13.9714 11.8769 13.1052L12.222 12.7659L13.0818 11.9759L13.3888 11.6816L12.6602 10.6141C11.5769 9.04304 10.516 7.62281 9.20176 6.55699ZM23.1739 9.31099L23.3527 9.332C24.4749 9.52986 25.5057 10.0779 26.2973 10.8976C27.0888 11.7173 27.6005 12.7665 27.7591 13.8949C27.8777 14.7381 27.2902 15.5176 26.447 15.6361C25.6641 15.7462 24.936 15.2475 24.7411 14.5006L24.7059 14.324C24.6379 13.8404 24.4185 13.3907 24.0793 13.0395C23.7966 12.7467 23.4427 12.5348 23.0543 12.4232L22.8173 12.3685C21.979 12.2206 21.419 11.421 21.5669 10.5825C21.7042 9.80392 22.4035 9.26555 23.1739 9.31099ZM23.1867 4.62505C24.4014 4.62505 25.6044 4.8643 26.7265 5.32916C27.8489 5.79402 28.8685 6.47537 29.7275 7.33431C30.5864 8.19325 31.2678 9.21297 31.7326 10.3352C32.1974 11.4575 32.4367 12.6603 32.4367 13.875C32.4367 14.7265 31.7465 15.4167 30.895 15.4167C30.1044 15.4167 29.4528 14.8216 29.3637 14.0548L29.3534 13.875C29.3534 13.0652 29.194 12.2633 28.8839 11.5152C28.5741 10.767 28.1199 10.0872 27.5472 9.51455C26.9746 8.94193 26.2949 8.48769 25.5465 8.17779C24.9231 7.91953 24.2623 7.76573 23.5907 7.72163L23.1867 7.70838C22.3352 7.70838 21.645 7.01814 21.645 6.16671C21.645 5.31528 22.3352 4.62505 23.1867 4.62505Z" fill="#4398EA"/>
</svg>
