<svg width="39" height="39" viewBox="0 0 39 39" fill="none" xmlns="http://www.w3.org/2000/svg">
<path d="M19.7191 28.8906L12.5706 18.7959C11.4005 17.4144 10.647 15.7289 10.3978 13.9357C10.1486 12.1425 10.414 10.3155 11.1631 8.6673C11.9122 7.01912 13.1141 5.61767 14.6288 4.62616C16.1436 3.63466 17.9089 3.09391 19.7191 3.06689C22.2284 3.09169 24.6255 4.10993 26.3856 5.8986C28.1457 7.68726 29.1251 10.1006 29.1095 12.6099C29.1105 14.799 28.3652 16.923 26.9966 18.6315L19.7191 28.8906ZM19.7191 5.4145C17.8314 5.43618 16.0295 6.20609 14.709 7.55518C13.3886 8.90426 12.6575 10.7222 12.6762 12.6099C12.6841 14.3329 13.304 15.9969 14.4252 17.3051L19.7191 24.8057L25.1538 17.1525C26.1868 15.8631 26.7536 14.2622 26.7619 12.6099C26.7807 10.7222 26.0496 8.90426 24.7291 7.55518C23.4086 6.20609 21.6067 5.43618 19.7191 5.4145Z" fill="#4398EA"/>
<path d="M19.7192 13.631C21.0157 13.631 22.0668 12.5799 22.0668 11.2834C22.0668 9.98685 21.0157 8.93579 19.7192 8.93579C18.4226 8.93579 17.3716 9.98685 17.3716 11.2834C17.3716 12.5799 18.4226 13.631 19.7192 13.631Z" fill="#4398EA"/>
<path d="M33.8048 14.8049H31.4572V17.1525H33.8048V33.5858H5.6335V17.1525H7.98111V14.8049H5.6335C5.01087 14.8049 4.41375 15.0523 3.97349 15.4925C3.53323 15.9328 3.28589 16.5299 3.28589 17.1525V33.5858C3.28589 34.2084 3.53323 34.8055 3.97349 35.2458C4.41375 35.6861 5.01087 35.9334 5.6335 35.9334H33.8048C34.4274 35.9334 35.0245 35.6861 35.4648 35.2458C35.9051 34.8055 36.1524 34.2084 36.1524 33.5858V17.1525C36.1524 16.5299 35.9051 15.9328 35.4648 15.4925C35.0245 15.0523 34.4274 14.8049 33.8048 14.8049Z" fill="#4398EA"/>
</svg>
