<svg width="39" height="39" viewBox="0 0 39 39" fill="none" xmlns="http://www.w3.org/2000/svg">
<path d="M33.8881 6.97949H4.67343C4.11999 6.97949 3.58921 7.19935 3.19787 7.59069C2.80652 7.98203 2.58667 8.51281 2.58667 9.06626V29.9339C2.58667 30.4873 2.80652 31.0181 3.19787 31.4094C3.58921 31.8008 4.11999 32.0206 4.67343 32.0206H33.8881C34.4416 32.0206 34.9723 31.8008 35.3637 31.4094C35.755 31.0181 35.9749 30.4873 35.9749 29.9339V9.06626C35.9749 8.51281 35.755 7.98203 35.3637 7.59069C34.9723 7.19935 34.4416 6.97949 33.8881 6.97949ZM32.2813 29.9339H6.40545L13.7091 22.3798L12.2066 20.9295L4.67343 28.7236V10.6522L17.6427 23.5588C18.0336 23.9475 18.5625 24.1656 19.1138 24.1656C19.6651 24.1656 20.194 23.9475 20.585 23.5588L33.8881 10.3287V28.5879L26.2088 20.9086L24.7377 22.3798L32.2813 29.9339ZM6.04026 9.06626H32.1978L19.1138 22.0772L6.04026 9.06626Z" fill="#4398EA"/>
</svg>
