<svg width="70" height="70" viewBox="0 0 70 70" fill="none" xmlns="http://www.w3.org/2000/svg">
<circle cx="35" cy="35" r="35" fill="white"/>
<path d="M19.8091 51.4773L16.625 15.75H51.625L48.4366 51.4716L34.1037 55.4454L19.8091 51.4773Z" fill="#1572B6"/>
<path d="M34.125 52.4088L45.7076 49.1977L48.4324 18.6719H34.125V52.4088Z" fill="#33A9DC"/>
<path d="M34.125 31.6152H39.9234L40.3232 27.1282H34.125V22.7462H34.1406H45.1121L45.0072 23.9214L43.9312 35.9973H34.125V31.6152Z" fill="white"/>
<path d="M34.1518 42.9952L34.132 43.0009L29.2523 41.6824L28.9404 38.1878H26.5686H24.5413L25.1551 45.0679L34.1305 47.5602L34.1518 47.5545V42.9952Z" fill="#EBEBEB"/>
<path d="M39.5506 35.8119L39.0233 41.6797L34.1365 42.9982V47.5575L43.119 45.068L43.1856 44.328L43.9469 35.8119H39.5506Z" fill="white"/>
<path d="M34.1405 22.7462V25.4681V27.1169V27.1282H23.5702H23.556L23.4681 26.1429L23.2682 23.9214L23.1633 22.7462H34.1405Z" fill="#EBEBEB"/>
<path d="M34.1248 31.6158V34.3378V35.9866V35.9979H29.3203H29.3061L29.2182 35.0126L29.0197 32.7911L28.9148 31.6158H34.1248Z" fill="#EBEBEB"/>
</svg>
