<svg width="151" height="151" viewBox="0 0 151 151" fill="none" xmlns="http://www.w3.org/2000/svg">
<path d="M124.249 100.179L136.631 108.295L133.077 113.698C132.185 115.055 131.174 115.891 130.045 116.206C128.909 116.532 127.767 116.32 126.62 115.567C125.858 115.069 125.32 114.473 125.005 113.781C124.681 113.1 124.577 112.354 124.692 111.542C124.819 110.738 125.159 109.915 125.713 109.073L125.885 109.537L125.493 110.134C125.17 110.625 124.753 110.979 124.241 111.197C123.73 111.414 123.13 111.472 122.441 111.373L117.371 110.636L119.01 108.144L124.232 108.956C124.75 109.061 125.184 108.986 125.536 108.731C125.88 108.488 126.206 108.132 126.514 107.665L127.784 105.735L122.76 102.442L124.249 100.179ZM129.452 106.828L127.629 109.6C127.106 110.396 126.873 111.105 126.932 111.73C126.994 112.373 127.348 112.906 127.992 113.328C128.636 113.75 129.26 113.858 129.865 113.652C130.462 113.458 131.022 112.963 131.545 112.167L133.369 109.395L129.452 106.828Z" fill="url(#paint0_linear_96_108)"/>
<path d="M128.92 86.5277L143.093 90.8043L140.203 100.351L138.172 99.7385L140.308 92.6839L136.388 91.501L134.392 98.0934L132.341 97.4746L134.337 90.8822L130.216 89.6387L128.079 96.6933L126.029 96.0746L128.92 86.5277Z" fill="url(#paint1_linear_96_108)"/>
<path d="M129.954 73.0574L144.749 73.5947L144.51 80.1633C144.451 81.7863 144.014 83.0102 143.199 83.8352C142.385 84.6602 141.292 85.0478 139.921 84.998C138.564 84.9487 137.502 84.4828 136.736 83.6004C135.969 82.7181 135.616 81.4654 135.675 79.8425L135.816 75.981L129.856 75.7646L129.954 73.0574ZM137.956 76.0588L137.827 79.6054C137.794 80.5008 137.966 81.1795 138.341 81.6414C138.731 82.1039 139.289 82.3483 140.016 82.3747C140.744 82.4011 141.312 82.1976 141.72 81.7641C142.142 81.3312 142.369 80.667 142.402 79.7716L142.531 76.2249L137.956 76.0588Z" fill="url(#paint2_linear_96_108)"/>
<path d="M133.71 53.9365C135.217 53.5569 136.589 53.5 137.826 53.7658C139.066 54.0453 140.115 54.6255 140.974 55.5065C141.845 56.3842 142.461 57.5356 142.822 58.9607C143.179 60.3723 143.182 61.6708 142.832 62.8563C142.495 64.0383 141.848 65.0461 140.889 65.8796C139.933 66.7267 138.709 67.3384 137.216 67.7146C135.709 68.0943 134.326 68.1393 133.069 67.8497C131.829 67.5703 130.773 66.9917 129.901 66.1141C129.029 65.2365 128.415 64.0919 128.058 62.6803C127.698 61.2552 127.693 59.9499 128.043 58.7644C128.396 57.5925 129.052 56.5898 130.011 55.7563C130.984 54.9193 132.217 54.3127 133.71 53.9365ZM134.405 56.685C132.79 57.092 131.615 57.7562 130.88 58.6776C130.145 59.599 129.951 60.7451 130.298 62.116C130.634 63.4461 131.348 64.3563 132.44 64.8465C133.531 65.3367 134.885 65.3783 136.5 64.9712C138.129 64.5608 139.301 63.883 140.015 62.9379C140.733 62.0064 140.921 60.8688 140.582 59.5251C140.235 58.1542 139.526 57.2355 138.455 56.7691C137.384 56.3026 136.034 56.2746 134.405 56.685Z" fill="url(#paint3_linear_96_108)"/>
<path d="M119.433 43.2913L132.121 35.662L133.521 37.9814L122.795 44.4311L126.397 50.4004L124.435 51.58L119.433 43.2913Z" fill="url(#paint4_linear_96_108)"/>
<path d="M109.411 32.9678L119.622 22.2469L126.857 29.1133L125.394 30.6492L120.048 25.5753L117.224 28.5406L122.22 33.2821L120.743 34.8332L115.746 30.0918L112.777 33.2092L118.124 38.2831L116.647 39.8342L109.411 32.9678Z" fill="url(#paint5_linear_96_108)"/>
<path d="M98.7453 26.6031L99.5538 10.4249L102.159 11.741L101.28 25.2251L100.493 24.8274L110.857 16.1343L113.368 17.4031L100.788 27.6352L98.7453 26.6031Z" fill="url(#paint6_linear_96_108)"/>
<path d="M80.3291 21.4398L82.9377 6.86641L92.7578 8.61792L92.3841 10.7057L85.1276 9.41146L84.406 13.4424L91.187 14.6519L90.8096 16.7603L84.0286 15.5509L83.2701 19.7885L90.5266 21.0828L90.1492 23.1913L80.3291 21.4398Z" fill="url(#paint7_linear_96_108)"/>
<path d="M62.2874 22.6889L60.4658 7.99641L65.8012 7.33727C67.4824 7.12957 68.9358 7.24625 70.1614 7.68731C71.3992 8.11276 72.3848 8.83738 73.1183 9.86116C73.8502 10.8711 74.3125 12.154 74.5055 13.7101C74.6967 15.2523 74.5616 16.6091 74.1002 17.7805C73.6388 18.9519 72.8608 19.9015 71.766 20.6292C70.6851 21.3552 69.304 21.8221 67.6228 22.0298L62.2874 22.6889ZM64.6995 20.1268L67.1796 19.8204C68.9581 19.6007 70.2255 19.0139 70.9819 18.06C71.7383 17.106 72.0097 15.7677 71.7961 14.0449C71.5807 12.3081 70.9907 11.0762 70.0259 10.349C69.0593 9.60792 67.6868 9.34724 65.9084 9.56695L63.4282 9.87335L64.6995 20.1268Z" fill="url(#paint8_linear_96_108)"/>
<path d="M49.8055 27.9164C49.1459 28.0906 48.4664 28.1854 47.7671 28.2007C47.0598 28.2044 46.3873 28.1595 45.7495 28.0658L46.2315 27.7665C46.0659 28.6714 45.7347 29.519 45.2381 30.3092C44.7415 31.0995 44.0926 31.7645 43.2914 32.3041C42.3973 32.9064 41.5311 33.2873 40.6927 33.4469C39.8543 33.6066 39.0962 33.5601 38.4186 33.3076C37.7331 33.0435 37.1669 32.5809 36.72 31.9198C36.1868 31.1311 35.9643 30.302 36.0524 29.4324C36.1405 28.5628 36.4264 27.6107 36.9099 26.5761L37.2786 25.8466L37.2182 26.4697C36.3817 26.3073 35.6848 26.0762 35.1273 25.7765C34.5699 25.4768 34.1225 25.0776 33.7854 24.5788C33.3934 23.9989 33.1917 23.4005 33.1802 22.7837C33.1726 22.1474 33.3419 21.5354 33.6881 20.9477C34.046 20.3522 34.5733 19.8198 35.27 19.3505C36.1757 18.7404 37.0777 18.4873 37.9759 18.5912C38.8663 18.6835 39.5899 19.1414 40.1466 19.9649C40.4445 20.4057 40.6358 20.8761 40.7203 21.3762C40.8049 21.8762 40.7674 22.4332 40.6078 23.0471C40.4598 23.6531 40.19 24.3413 39.7982 25.1116L39.5564 24.6415L44.7331 25.7374L44.2803 26.0424C44.2607 25.3635 44.1166 24.6504 43.8479 23.903C43.5793 23.1555 43.2232 22.4163 42.7798 21.6854L44.6086 20.4535C45.2167 21.4281 45.6734 22.4286 45.9786 23.4552C46.2839 24.4818 46.4297 25.4724 46.4159 26.4269L46.0457 25.9167C46.5787 26.0303 47.1386 26.0836 47.7253 26.0766C48.3121 26.0696 48.9023 25.9928 49.496 25.8461L49.8055 27.9164ZM42.2726 30.5344C42.8531 30.1434 43.2954 29.6851 43.5992 29.1597C43.9147 28.6265 44.1074 28.0241 44.1773 27.3525L44.4778 27.9096L38.3152 26.6676L39.2152 26.0866L38.8983 26.7052C38.6681 27.2147 38.5019 27.6812 38.3994 28.1047C38.3086 28.5203 38.2935 28.9103 38.3539 29.2747C38.4065 29.6275 38.5504 29.9779 38.7856 30.3259C39.1541 30.871 39.6416 31.1672 40.2481 31.2144C40.8546 31.2616 41.5294 31.035 42.2726 30.5344ZM36.2696 20.8293C35.8284 21.1265 35.5605 21.4926 35.4659 21.9277C35.3714 22.3628 35.4652 22.7891 35.7475 23.2066C35.8964 23.427 36.0782 23.6084 36.2928 23.7508C36.5073 23.8932 36.7859 24.0179 37.1285 24.1247C37.4633 24.2199 37.8914 24.3282 38.4128 24.4496L37.9138 24.8364C38.3671 23.9571 38.6466 23.2456 38.7522 22.7019C38.8615 22.1387 38.7712 21.6425 38.4811 21.2134C38.2067 20.8074 37.873 20.5764 37.4802 20.5203C37.0796 20.4525 36.676 20.5556 36.2696 20.8293Z" fill="url(#paint9_linear_96_108)"/>
<path d="M25.5412 53.9404L12.6818 46.6039L15.8956 40.9909C16.7025 39.5815 17.6595 38.6849 18.7666 38.3011C19.8806 37.9051 21.0334 38.047 22.2251 38.7269C23.0156 39.1778 23.5896 39.739 23.9472 40.4105C24.3118 41.0698 24.4618 41.8081 24.3971 42.6255C24.3203 43.4359 24.0314 44.2785 23.5306 45.1533L23.3301 44.7004L23.6849 44.0808C23.977 43.5705 24.3716 43.1912 24.8687 42.9429C25.3658 42.6946 25.961 42.599 26.6543 42.656L31.7601 43.0787L30.2784 45.6666L25.0162 45.1788C24.4932 45.1061 24.064 45.2078 23.7285 45.4838C23.4 45.7477 23.0966 46.1226 22.8183 46.6086L21.6706 48.6132L26.8873 51.5894L25.5412 53.9404ZM19.9377 47.6246L21.5863 44.7452C22.0594 43.919 22.2474 43.1962 22.1504 42.5767C22.0481 41.9382 21.6626 41.4281 20.9938 41.0465C20.325 40.665 19.6951 40.5957 19.1042 40.8389C18.5203 41.0699 17.9918 41.5984 17.5188 42.4246L15.8701 45.304L19.9377 47.6246Z" fill="url(#paint10_linear_96_108)"/>
<path d="M21.7243 67.8541L7.31379 64.4591L9.60893 54.7517L11.6734 55.2381L9.97742 62.4113L13.9633 63.3504L15.5482 56.6472L17.6331 57.1384L16.0482 63.8416L20.2385 64.8288L21.9345 57.6555L24.0194 58.1467L21.7243 67.8541Z" fill="url(#paint11_linear_96_108)"/>
<path d="M21.9583 85.7608L7.18612 86.7461L7.05007 84.7136L17.5608 75.4045L17.5973 75.9493L6.51288 76.6886L6.34457 74.1742L21.1168 73.1889L21.2528 75.2214L10.7407 84.5096L10.7056 83.9857L21.79 83.2464L21.9583 85.7608Z" fill="url(#paint12_linear_96_108)"/>
<path d="M25.5165 95.6777C26.1591 97.2147 26.4148 98.6248 26.2835 99.908C26.1523 101.191 25.674 102.315 24.8486 103.281C24.0232 104.247 22.8933 105.028 21.4587 105.626C20.0113 106.229 18.6454 106.464 17.361 106.332C16.0637 106.205 14.9093 105.731 13.8978 104.908C12.8681 104.079 12.04 102.914 11.4136 101.416C10.9978 100.422 10.769 99.4931 10.7272 98.6309C10.6724 97.7741 10.7783 96.9565 11.0447 96.1782L13.3315 96.2038C13.1812 96.7517 13.0875 97.2534 13.0502 97.7087C13.013 98.164 13.0393 98.6081 13.1291 99.0408C13.2061 99.4789 13.3552 99.9627 13.5766 100.492C14.203 101.991 15.1047 102.95 16.2817 103.369C17.4403 103.781 18.808 103.659 20.3846 103.002C21.9613 102.346 23.012 101.483 23.5367 100.415C24.056 99.3345 23.9889 98.0126 23.3355 96.4497C23.1141 95.9201 22.841 95.4121 22.5162 94.9256C22.186 94.4261 21.816 93.9585 21.4062 93.5226L22.6474 93.5515L18.5571 95.2554L19.8936 98.4523L18.0714 99.2114L15.8682 93.9414L22.4397 91.2038C23.0274 91.7021 23.5953 92.3528 24.1435 93.1557C24.6916 93.9587 25.1493 94.7993 25.5165 95.6777Z" fill="url(#paint13_linear_96_108)"/>
<path d="M32.5639 108.451L20.5624 117.12L18.9725 114.927L30.9739 106.258L32.5639 108.451Z" fill="url(#paint14_linear_96_108)"/>
<path d="M39.6834 115.762C40.5685 116.557 41.2873 117.401 41.8401 118.293C42.373 119.186 42.7268 120.069 42.9014 120.942L40.856 121.955C40.7271 121.387 40.5497 120.842 40.3239 120.319C40.0887 119.806 39.7946 119.307 39.4417 118.82C39.0795 118.344 38.6536 117.886 38.1643 117.446C37.3417 116.706 36.6264 116.308 36.0181 116.251C35.4099 116.194 34.9088 116.383 34.515 116.82C34.168 117.204 34.0304 117.608 34.1021 118.03C34.1644 118.462 34.4574 119.036 34.981 119.752L36.4223 121.697C37.2447 122.813 37.6855 123.839 37.7445 124.777C37.8035 125.715 37.4626 126.594 36.7218 127.416C36.1029 128.102 35.3814 128.536 34.5575 128.717C33.7336 128.899 32.8671 128.836 31.9579 128.527C31.0488 128.218 30.1569 127.67 29.2823 126.884C28.5014 126.182 27.881 125.417 27.4209 124.59C26.9515 123.772 26.6804 122.955 26.6078 122.136L28.5829 121.201C28.693 121.978 28.9339 122.693 29.3055 123.347C29.6677 124.011 30.1768 124.639 30.8327 125.228C31.572 125.893 32.2811 126.267 32.9602 126.35C33.6194 126.434 34.1741 126.227 34.6242 125.728C34.9712 125.343 35.1229 124.924 35.0793 124.471C35.0253 124.008 34.7474 123.438 34.2457 122.762L32.8059 120.846C31.9523 119.702 31.4913 118.667 31.4229 117.739C31.3451 116.822 31.6672 115.964 32.3893 115.163C32.9801 114.508 33.6776 114.09 34.4817 113.91C35.2764 113.739 36.1232 113.804 37.0219 114.103C37.9113 114.413 38.7984 114.966 39.6834 115.762Z" fill="url(#paint15_linear_96_108)"/>
<path d="M56.0632 126.221L49.5145 139.499L40.5622 135.099L41.5003 133.197L48.1157 136.448L49.927 132.776L43.7451 129.738L44.6926 127.816L50.8744 130.854L52.7787 126.994L46.1633 123.742L47.1108 121.821L56.0632 126.221Z" fill="url(#paint16_linear_96_108)"/>
<path d="M73.7486 130.004L71.422 144.625L66.1123 143.784C64.4392 143.518 63.075 143.004 62.0198 142.242C60.9485 141.491 60.2025 140.522 59.7817 139.335C59.3587 138.162 59.2705 136.802 59.5169 135.253C59.7611 133.719 60.2674 132.452 61.0358 131.454C61.8042 130.456 62.8153 129.759 64.0692 129.363C65.3093 128.964 66.7659 128.897 68.439 129.162L73.7486 130.004ZM70.7199 131.799L68.2518 131.408C66.4819 131.127 65.1012 131.341 64.1097 132.048C63.1182 132.756 62.486 133.966 62.2132 135.681C61.9382 137.409 62.1633 138.756 62.8886 139.722C63.6117 140.701 64.8582 141.331 66.628 141.611L69.0962 142.003L70.7199 131.799Z" fill="url(#paint17_linear_96_108)"/>
<defs>
<linearGradient id="paint0_linear_96_108" x1="131.36" y1="102.882" x2="122.781" y2="115.971" gradientUnits="userSpaceOnUse">
<stop stop-color="#4398EA"/>
<stop offset="1" stop-color="#7492BF"/>
</linearGradient>
<linearGradient id="paint1_linear_96_108" x1="136.499" y1="87.1037" x2="132.583" y2="100.084" gradientUnits="userSpaceOnUse">
<stop stop-color="#4398EA"/>
<stop offset="1" stop-color="#7492BF"/>
</linearGradient>
<linearGradient id="paint2_linear_96_108" x1="137.428" y1="71.6897" x2="136.898" y2="86.2795" gradientUnits="userSpaceOnUse">
<stop stop-color="#4398EA"/>
<stop offset="1" stop-color="#7492BF"/>
</linearGradient>
<linearGradient id="paint3_linear_96_108" x1="133.434" y1="52.8149" x2="137.766" y2="70.0073" gradientUnits="userSpaceOnUse">
<stop stop-color="#4398EA"/>
<stop offset="1" stop-color="#7492BF"/>
</linearGradient>
<linearGradient id="paint4_linear_96_108" x1="124.951" y1="38.0622" x2="131.402" y2="48.7916" gradientUnits="userSpaceOnUse">
<stop stop-color="#4398EA"/>
<stop offset="1" stop-color="#7492BF"/>
</linearGradient>
<linearGradient id="paint5_linear_96_108" x1="113.349" y1="26.4585" x2="123.175" y2="35.8165" gradientUnits="userSpaceOnUse">
<stop stop-color="#4398EA"/>
<stop offset="1" stop-color="#7492BF"/>
</linearGradient>
<linearGradient id="paint6_linear_96_108" x1="96.3729" y1="17.0711" x2="111.276" y2="24.6261" gradientUnits="userSpaceOnUse">
<stop stop-color="#4398EA"/>
<stop offset="1" stop-color="#7492BF"/>
</linearGradient>
<linearGradient id="paint7_linear_96_108" x1="80.028" y1="13.8259" x2="93.3955" y2="16.2187" gradientUnits="userSpaceOnUse">
<stop stop-color="#4398EA"/>
<stop offset="1" stop-color="#7492BF"/>
</linearGradient>
<linearGradient id="paint8_linear_96_108" x1="59.7459" y1="15.5032" x2="76.3333" y2="13.4467" gradientUnits="userSpaceOnUse">
<stop stop-color="#4398EA"/>
<stop offset="1" stop-color="#7492BF"/>
</linearGradient>
<linearGradient id="paint9_linear_96_108" x1="34.063" y1="29.3016" x2="47.0379" y2="20.5307" gradientUnits="userSpaceOnUse">
<stop stop-color="#4398EA"/>
<stop offset="1" stop-color="#7492BF"/>
</linearGradient>
<linearGradient id="paint10_linear_96_108" x1="18.2779" y1="51.6824" x2="26.0326" y2="38.0899" gradientUnits="userSpaceOnUse">
<stop stop-color="#4398EA"/>
<stop offset="1" stop-color="#7492BF"/>
</linearGradient>
<linearGradient id="paint11_linear_96_108" x1="14.1246" y1="67.7465" x2="17.2336" y2="54.55" gradientUnits="userSpaceOnUse">
<stop stop-color="#4398EA"/>
<stop offset="1" stop-color="#7492BF"/>
</linearGradient>
<linearGradient id="paint12_linear_96_108" x1="14.6648" y1="87.8889" x2="13.5544" y2="71.2408" gradientUnits="userSpaceOnUse">
<stop stop-color="#4398EA"/>
<stop offset="1" stop-color="#7492BF"/>
</linearGradient>
<linearGradient id="paint13_linear_96_108" x1="21.8564" y1="106.712" x2="15.4386" y2="91.3055" gradientUnits="userSpaceOnUse">
<stop stop-color="#4398EA"/>
<stop offset="1" stop-color="#7492BF"/>
</linearGradient>
<linearGradient id="paint14_linear_96_108" x1="27.5042" y1="114.127" x2="23.8383" y2="109.051" gradientUnits="userSpaceOnUse">
<stop stop-color="#4398EA"/>
<stop offset="1" stop-color="#7492BF"/>
</linearGradient>
<linearGradient id="paint15_linear_96_108" x1="39.6244" y1="125.985" x2="28.7734" y2="116.196" gradientUnits="userSpaceOnUse">
<stop stop-color="#4398EA"/>
<stop offset="1" stop-color="#7492BF"/>
</linearGradient>
<linearGradient id="paint16_linear_96_108" x1="54.2429" y1="133.615" x2="42.0672" y2="127.61" gradientUnits="userSpaceOnUse">
<stop stop-color="#4398EA"/>
<stop offset="1" stop-color="#7492BF"/>
</linearGradient>
<linearGradient id="paint17_linear_96_108" x1="74.1967" y1="137.611" x2="57.6904" y2="134.985" gradientUnits="userSpaceOnUse">
<stop stop-color="#4398EA"/>
<stop offset="1" stop-color="#7492BF"/>
</linearGradient>
</defs>
</svg>
