<svg width="110" height="110" viewBox="0 0 110 110" fill="none" xmlns="http://www.w3.org/2000/svg">
<path d="M90.7917 72.9645L99.7709 78.8496L97.1934 82.7682C96.5463 83.7521 95.8135 84.3582 94.995 84.5864C94.1709 84.8232 93.3428 84.6689 92.5107 84.1235C91.9588 83.7618 91.5684 83.3299 91.3396 82.828C91.1053 82.3345 91.0298 81.7934 91.1132 81.2047C91.2051 80.6216 91.4519 80.0247 91.8536 79.414L91.9784 79.7508L91.6939 80.1833C91.4596 80.5396 91.157 80.7964 90.786 80.9539C90.4151 81.1114 89.9801 81.154 89.4808 81.0816L85.8041 80.5473L86.9924 78.7406L90.7794 79.3291C91.1547 79.4051 91.4699 79.3507 91.7251 79.166C91.9747 78.9897 92.2111 78.7319 92.4343 78.3926L93.3548 76.9931L89.7122 74.6057L90.7917 72.9645ZM94.5648 77.7862L93.2426 79.7964C92.8632 80.3731 92.6947 80.8879 92.7372 81.3406C92.7826 81.8073 93.0388 82.1937 93.5058 82.4998C93.9728 82.8059 94.4256 82.8841 94.8642 82.7346C95.2972 82.5936 95.7034 82.2347 96.0828 81.6579L97.405 79.6477L94.5648 77.7862Z" fill="url(#paint0_linear_203_784)"/>
<path d="M94.2061 63.0055L104.484 66.1068L102.388 73.0298L100.916 72.5855L102.465 67.4697L99.6217 66.612L98.1741 71.3925L96.6871 70.9438L98.1346 66.1633L95.1459 65.2615L93.5968 70.3772L92.1098 69.9285L94.2061 63.0055Z" fill="url(#paint1_linear_203_784)"/>
<path d="M94.9661 53.18L105.695 53.5696L105.521 58.3329C105.479 59.5098 105.162 60.3974 104.571 60.9956C103.98 61.5938 103.188 61.8749 102.194 61.8388C101.209 61.8031 100.44 61.4652 99.8838 60.8254C99.328 60.1855 99.0716 59.2771 99.1145 58.1002L99.2166 55.3001L94.8946 55.1431L94.9661 53.18ZM100.769 55.3565L100.675 57.9283C100.651 58.5777 100.776 59.0698 101.048 59.4048C101.33 59.7401 101.735 59.9174 102.263 59.9365C102.79 59.9557 103.202 59.8081 103.498 59.4938C103.804 59.1798 103.969 58.6981 103.993 58.0488L104.086 55.477L100.769 55.3565Z" fill="url(#paint2_linear_203_784)"/>
<path d="M97.6831 39.2503C98.7758 38.9749 99.7707 38.9337 100.668 39.1265C101.567 39.3291 102.328 39.7499 102.95 40.3888C103.582 41.0252 104.029 41.8601 104.29 42.8936C104.549 43.9172 104.552 44.8588 104.298 45.7185C104.054 46.5756 103.584 47.3064 102.889 47.9109C102.196 48.5252 101.308 48.9687 100.225 49.2416C99.1323 49.5169 98.1301 49.5495 97.2183 49.3395C96.3188 49.1369 95.553 48.7174 94.9209 48.0809C94.2888 47.4445 93.8433 46.6145 93.5845 45.5909C93.3232 44.5574 93.3194 43.6109 93.5733 42.7512C93.8297 41.9015 94.3055 41.1743 95.0009 40.5699C95.7061 39.963 96.6002 39.5231 97.6831 39.2503ZM98.187 41.2434C97.0155 41.5385 96.1635 42.0202 95.6308 42.6883C95.0981 43.3564 94.9575 44.1876 95.2088 45.1817C95.4527 46.1462 95.9704 46.8062 96.7619 47.1617C97.5534 47.5172 98.5348 47.5473 99.7064 47.2522C100.888 46.9545 101.737 46.4631 102.255 45.7777C102.775 45.1022 102.912 44.2772 102.666 43.3028C102.415 42.3087 101.901 41.6426 101.124 41.3043C100.347 40.966 99.3684 40.9457 98.187 41.2434Z" fill="url(#paint3_linear_203_784)"/>
<path d="M87.3046 31.4687L96.5053 25.9362L97.5203 27.6182L89.7421 32.2953L92.3543 36.624L90.9318 37.4793L87.3046 31.4687Z" fill="url(#paint4_linear_203_784)"/>
<path d="M79.9985 23.9349L87.4026 16.1605L92.6495 21.1397L91.5888 22.2535L87.7116 18.5741L85.6637 20.7245L89.2868 24.1628L88.2156 25.2876L84.5924 21.8493L82.4395 24.1099L86.3167 27.7893L85.2454 28.9141L79.9985 23.9349Z" fill="url(#paint5_linear_203_784)"/>
<path d="M72.2097 19.2813L72.796 7.54959L74.6854 8.50398L74.048 18.2821L73.4771 17.9937L80.9923 11.6898L82.8137 12.6099L73.6913 20.0298L72.2097 19.2813Z" fill="url(#paint6_linear_203_784)"/>
<path d="M58.7922 15.5156L60.6839 4.94763L67.805 6.21776L67.534 7.73175L62.2719 6.7932L61.7487 9.71627L66.6659 10.5933L66.3923 12.1223L61.475 11.2453L60.9249 14.3182L66.187 15.2568L65.9133 16.7858L58.7922 15.5156Z" fill="url(#paint7_linear_203_784)"/>
<path d="M45.6407 16.4196L44.3197 5.7652L48.1887 5.28721C49.4079 5.1366 50.4618 5.22121 51.3506 5.54105C52.2481 5.84957 52.9629 6.37503 53.4948 7.11744C54.0255 7.84977 54.3608 8.78014 54.5007 9.90855C54.6394 11.0269 54.5414 12.0108 54.2068 12.8602C53.8723 13.7097 53.308 14.3983 52.5142 14.926C51.7303 15.4524 50.7289 15.791 49.5097 15.9416L45.6407 16.4196ZM47.3898 14.5617L49.1883 14.3395C50.478 14.1802 51.3971 13.7546 51.9456 13.0629C52.4941 12.3711 52.6909 11.4006 52.536 10.1513C52.3798 8.89189 51.9519 7.99853 51.2523 7.4712C50.5514 6.9338 49.5561 6.74476 48.2665 6.90409L46.468 7.12627L47.3898 14.5617Z" fill="url(#paint8_linear_203_784)"/>
<path d="M36.4897 20.248C36.0114 20.3743 35.5186 20.443 35.0115 20.4541C34.4986 20.4568 34.0109 20.4242 33.5484 20.3563L33.898 20.1392C33.7778 20.7955 33.5377 21.4101 33.1776 21.9832C32.8175 22.5562 32.3469 23.0384 31.7659 23.4298C31.1176 23.8665 30.4894 24.1427 29.8814 24.2585C29.2735 24.3742 28.7238 24.3406 28.2324 24.1575C27.7353 23.9659 27.3247 23.6305 27.0006 23.1511C26.614 22.5791 26.4526 21.9779 26.5165 21.3473C26.5804 20.7167 26.7877 20.0263 27.1383 19.276L27.4057 18.747L27.3619 19.1989C26.7553 19.0811 26.2499 18.9135 25.8457 18.6962C25.4414 18.4789 25.1171 18.1894 24.8726 17.8277C24.5883 17.4072 24.442 16.9732 24.4337 16.5259C24.4282 16.0645 24.5509 15.6207 24.802 15.1946C25.0616 14.7627 25.4439 14.3766 25.9491 14.0363C26.6059 13.5939 27.26 13.4104 27.9114 13.4857C28.5571 13.5527 29.0817 13.8847 29.4854 14.4819C29.7015 14.8015 29.8402 15.1426 29.9015 15.5052C29.9628 15.8679 29.9356 16.2718 29.8199 16.7169C29.7126 17.1564 29.5169 17.6555 29.2328 18.2141L29.0574 17.8731L32.8114 18.6678L32.483 18.889C32.4688 18.3967 32.3643 17.8796 32.1695 17.3376C31.9747 16.7956 31.7165 16.2596 31.3949 15.7295L32.7211 14.8362C33.162 15.5429 33.4932 16.2685 33.7146 17.0129C33.936 17.7573 34.0417 18.4757 34.0317 19.1679L33.7632 18.7979C34.1498 18.8802 34.5558 18.9189 34.9812 18.9138C35.4067 18.9088 35.8347 18.8531 36.2652 18.7467L36.4897 20.248ZM31.0271 22.1464C31.4481 21.8629 31.7688 21.5306 31.9892 21.1496C32.2179 20.7629 32.3577 20.326 32.4083 19.839L32.6263 20.243L28.1574 19.3424L28.81 18.9211L28.5802 19.3697C28.4133 19.7391 28.2928 20.0774 28.2185 20.3845C28.1526 20.6859 28.1416 20.9687 28.1855 21.233C28.2236 21.4888 28.328 21.7429 28.4985 21.9952C28.7658 22.3905 29.1193 22.6053 29.5591 22.6395C29.9989 22.6738 30.4882 22.5094 31.0271 22.1464ZM26.674 15.1087C26.3541 15.3242 26.1598 15.5897 26.0912 15.9052C26.0226 16.2207 26.0907 16.5298 26.2954 16.8326C26.4034 16.9924 26.5352 17.124 26.6908 17.2273C26.8464 17.3305 27.0484 17.4209 27.2969 17.4984C27.5396 17.5674 27.85 17.646 28.2282 17.734L27.8663 18.0145C28.195 17.3769 28.3977 16.8609 28.4743 16.4666C28.5536 16.0582 28.488 15.6984 28.2777 15.3872C28.0787 15.0928 27.8368 14.9253 27.5519 14.8846C27.2614 14.8355 26.9687 14.9102 26.674 15.1087Z" fill="url(#paint9_linear_203_784)"/>
<path d="M18.8238 39.1955L9.4987 33.8754L11.8292 29.805C12.4144 28.783 13.1083 28.1329 13.9111 27.8545C14.7189 27.5673 15.5549 27.6703 16.4191 28.1633C16.9923 28.4903 17.4086 28.8972 17.6679 29.3842C17.9323 29.8623 18.041 30.3977 17.9941 30.9904C17.9384 31.5781 17.729 32.1891 17.3658 32.8234L17.2204 32.495L17.4776 32.0457C17.6895 31.6757 17.9757 31.4006 18.3361 31.2206C18.6966 31.0405 19.1282 30.9712 19.6309 31.0125L23.3335 31.3191L22.259 33.1957L18.4431 32.842C18.0638 32.7892 17.7526 32.863 17.5093 33.0631C17.2711 33.2545 17.051 33.5263 16.8493 33.8788L16.0169 35.3325L19.7999 37.4907L18.8238 39.1955ZM14.7604 34.6156L15.9559 32.5275C16.2989 31.9284 16.4352 31.4043 16.3649 30.955C16.2908 30.492 16.0112 30.1221 15.5262 29.8454C15.0412 29.5687 14.5845 29.5185 14.156 29.6948C13.7325 29.8623 13.3493 30.2456 13.0062 30.8447L11.8107 32.9328L14.7604 34.6156Z" fill="url(#paint10_linear_203_784)"/>
<path d="M16.0323 49.346L5.5824 46.8841L7.24674 39.8447L8.74382 40.1974L7.51396 45.3992L10.4044 46.0801L11.5536 41.2192L13.0655 41.5754L11.9162 46.4363L14.9549 47.1522L16.1847 41.9504L17.6966 42.3066L16.0323 49.346Z" fill="url(#paint11_linear_203_784)"/>
<path d="M16.1962 62.3988L5.48408 63.1133L5.38543 61.6395L13.0074 54.8889L13.0338 55.2839L4.99588 55.8201L4.87383 53.9967L15.586 53.2822L15.6847 54.7561L8.0617 61.4915L8.03627 61.1116L16.0742 60.5755L16.1962 62.3988Z" fill="url(#paint12_linear_203_784)"/>
<path d="M18.7936 69.6624C19.2596 70.7771 19.445 71.7996 19.3499 72.7301C19.2547 73.6606 18.9078 74.4759 18.3093 75.1762C17.7108 75.8764 16.8914 76.4432 15.8511 76.8766C14.8015 77.3138 13.811 77.4845 12.8796 77.3886C11.9388 77.2966 11.1017 76.9524 10.3683 76.3562C9.62153 75.7544 9.02103 74.9103 8.56679 73.8237C8.26527 73.1025 8.09935 72.4293 8.06903 71.804C8.02934 71.1827 8.10609 70.5898 8.29928 70.0254L9.95759 70.044C9.84861 70.4413 9.78061 70.8051 9.7536 71.1353C9.72659 71.4655 9.74566 71.7874 9.81083 72.1012C9.86662 72.4189 9.97479 72.7698 10.1353 73.1538C10.5896 74.2403 11.2434 74.9358 12.0969 75.2401C12.9371 75.539 13.9289 75.4503 15.0722 74.974C16.2155 74.4977 16.9774 73.8724 17.3579 73.098C17.7345 72.3142 17.6859 71.3557 17.2121 70.2223C17.0515 69.8383 16.8535 69.4699 16.6179 69.1171C16.3785 68.7549 16.1102 68.4158 15.813 68.0997L16.713 68.1206L13.7469 69.3562L14.7161 71.6745L13.3947 72.2249L11.7971 68.4034L16.5625 66.4182C16.9887 66.7795 17.4005 67.2514 17.798 67.8336C18.1955 68.4159 18.5273 69.0255 18.7936 69.6624Z" fill="url(#paint13_linear_203_784)"/>
<path d="M23.9299 78.9715L15.2269 85.258L14.0739 83.6675L22.7769 77.381L23.9299 78.9715Z" fill="url(#paint14_linear_203_784)"/>
<path d="M29.1245 84.3082C29.7663 84.8851 30.2876 85.497 30.6884 86.1439C31.0748 86.7916 31.3314 87.4318 31.4581 88.0644L29.9748 88.7992C29.8813 88.3875 29.7527 87.992 29.5889 87.6128C29.4184 87.2411 29.2051 86.8788 28.9492 86.5259C28.6865 86.1805 28.3777 85.8483 28.0229 85.5294C27.4264 84.9932 26.9076 84.7044 26.4666 84.6628C26.0255 84.6213 25.6621 84.7588 25.3765 85.0754C25.1249 85.3543 25.0251 85.6468 25.0771 85.9529C25.1223 86.2666 25.3348 86.6828 25.7145 87.2016L26.7597 88.612C27.356 89.4211 27.6756 90.1657 27.7184 90.8457C27.7612 91.5258 27.514 92.1636 26.9768 92.7591C26.528 93.2566 26.0049 93.5713 25.4074 93.7031C24.8099 93.835 24.1815 93.7889 23.5223 93.5648C22.863 93.3408 22.2162 92.9437 21.582 92.3736C21.0158 91.8646 20.5658 91.31 20.2322 90.7098C19.8918 90.1172 19.6953 89.5242 19.6426 88.9308L21.0749 88.2525C21.1547 88.8157 21.3294 89.3345 21.5988 89.8087C21.8615 90.2905 22.2306 90.7452 22.7063 91.1728C23.2424 91.6547 23.7566 91.9258 24.249 91.9862C24.7271 92.0474 25.1293 91.897 25.4558 91.5352C25.7074 91.2563 25.8174 90.9525 25.7858 90.6237C25.7466 90.2882 25.5451 89.875 25.1812 89.3841L24.1372 87.9952C23.5182 87.1658 23.1839 86.4148 23.1343 85.7422C23.0779 85.0773 23.3115 84.4545 23.8351 83.8741C24.2635 83.3992 24.7693 83.0962 25.3524 82.9651C25.9287 82.8416 26.5427 82.8884 27.1944 83.1057C27.8394 83.3305 28.4827 83.7313 29.1245 84.3082Z" fill="url(#paint15_linear_203_784)"/>
<path d="M41.0547 91.9283L36.3059 101.557L29.814 98.3666L30.4943 96.9871L35.2915 99.3447L36.605 96.6814L32.1222 94.4784L32.8092 93.0853L37.2921 95.2883L38.6729 92.4885L33.8758 90.131L34.5628 88.738L41.0547 91.9283Z" fill="url(#paint16_linear_203_784)"/>
<path d="M53.9442 94.6925L52.257 105.295L48.4066 104.685C47.1934 104.492 46.2041 104.119 45.4389 103.566C44.662 103.022 44.1211 102.319 43.816 101.459C43.5092 100.608 43.4452 99.6217 43.6239 98.4988C43.801 97.3859 44.1682 96.4676 44.7254 95.7439C45.2826 95.0203 46.0158 94.5146 46.9251 94.2271C47.8243 93.938 48.8806 93.8896 50.0938 94.082L53.9442 94.6925ZM51.7479 95.994L49.9581 95.7102C48.6746 95.5067 47.6734 95.6615 46.9544 96.1745C46.2354 96.6875 45.777 97.5656 45.5792 98.8089C45.3797 100.062 45.543 101.039 46.0689 101.739C46.5933 102.449 47.4972 102.906 48.7806 103.109L50.5704 103.393L51.7479 95.994Z" fill="url(#paint17_linear_203_784)"/>
<defs>
<linearGradient id="paint0_linear_203_784" x1="95.7577" y1="74.799" x2="89.5365" y2="84.2911" gradientUnits="userSpaceOnUse">
<stop stop-color="#4398EA"/>
<stop offset="1" stop-color="#7492BF"/>
</linearGradient>
<linearGradient id="paint1_linear_203_784" x1="99.4839" y1="63.3573" x2="96.6438" y2="72.7702" gradientUnits="userSpaceOnUse">
<stop stop-color="#4398EA"/>
<stop offset="1" stop-color="#7492BF"/>
</linearGradient>
<linearGradient id="paint2_linear_203_784" x1="100.158" y1="52.1799" x2="99.7736" y2="62.7598" gradientUnits="userSpaceOnUse">
<stop stop-color="#4398EA"/>
<stop offset="1" stop-color="#7492BF"/>
</linearGradient>
<linearGradient id="paint3_linear_203_784" x1="97.2618" y1="38.4927" x2="100.403" y2="50.9599" gradientUnits="userSpaceOnUse">
<stop stop-color="#4398EA"/>
<stop offset="1" stop-color="#7492BF"/>
</linearGradient>
<linearGradient id="paint4_linear_203_784" x1="91.11" y1="27.7945" x2="95.7885" y2="35.5749" gradientUnits="userSpaceOnUse">
<stop stop-color="#4398EA"/>
<stop offset="1" stop-color="#7492BF"/>
</linearGradient>
<linearGradient id="paint5_linear_203_784" x1="82.6962" y1="19.3799" x2="89.8217" y2="26.166" gradientUnits="userSpaceOnUse">
<stop stop-color="#4398EA"/>
<stop offset="1" stop-color="#7492BF"/>
</linearGradient>
<linearGradient id="paint6_linear_203_784" x1="70.3861" y1="12.5728" x2="81.1932" y2="18.0513" gradientUnits="userSpaceOnUse">
<stop stop-color="#4398EA"/>
<stop offset="1" stop-color="#7492BF"/>
</linearGradient>
<linearGradient id="paint7_linear_203_784" x1="58.5336" y1="10.2191" x2="68.2272" y2="11.9543" gradientUnits="userSpaceOnUse">
<stop stop-color="#4398EA"/>
<stop offset="1" stop-color="#7492BF"/>
</linearGradient>
<linearGradient id="paint8_linear_203_784" x1="43.8258" y1="11.4354" x2="55.8543" y2="9.94408" gradientUnits="userSpaceOnUse">
<stop stop-color="#4398EA"/>
<stop offset="1" stop-color="#7492BF"/>
</linearGradient>
<linearGradient id="paint9_linear_203_784" x1="25.2017" y1="21.4416" x2="34.6106" y2="15.0813" gradientUnits="userSpaceOnUse">
<stop stop-color="#4398EA"/>
<stop offset="1" stop-color="#7492BF"/>
</linearGradient>
<linearGradient id="paint10_linear_203_784" x1="13.7551" y1="37.6712" x2="19.3785" y2="27.8145" gradientUnits="userSpaceOnUse">
<stop stop-color="#4398EA"/>
<stop offset="1" stop-color="#7492BF"/>
</linearGradient>
<linearGradient id="paint11_linear_203_784" x1="10.7436" y1="49.3204" x2="12.9981" y2="39.7508" gradientUnits="userSpaceOnUse">
<stop stop-color="#4398EA"/>
<stop offset="1" stop-color="#7492BF"/>
</linearGradient>
<linearGradient id="paint12_linear_203_784" x1="11.1351" y1="63.9269" x2="10.3299" y2="51.8543" gradientUnits="userSpaceOnUse">
<stop stop-color="#4398EA"/>
<stop offset="1" stop-color="#7492BF"/>
</linearGradient>
<linearGradient id="paint13_linear_203_784" x1="16.3502" y1="77.576" x2="11.6963" y2="66.4041" gradientUnits="userSpaceOnUse">
<stop stop-color="#4398EA"/>
<stop offset="1" stop-color="#7492BF"/>
</linearGradient>
<linearGradient id="paint14_linear_203_784" x1="20.4459" y1="82.9534" x2="17.7875" y2="79.2732" gradientUnits="userSpaceOnUse">
<stop stop-color="#4398EA"/>
<stop offset="1" stop-color="#7492BF"/>
</linearGradient>
<linearGradient id="paint15_linear_203_784" x1="29.2346" y1="91.5522" x2="21.3659" y2="84.4538" gradientUnits="userSpaceOnUse">
<stop stop-color="#4398EA"/>
<stop offset="1" stop-color="#7492BF"/>
</linearGradient>
<linearGradient id="paint16_linear_203_784" x1="39.8357" y1="97.0853" x2="31.0064" y2="92.7307" gradientUnits="userSpaceOnUse">
<stop stop-color="#4398EA"/>
<stop offset="1" stop-color="#7492BF"/>
</linearGradient>
<linearGradient id="paint17_linear_203_784" x1="54.305" y1="99.9832" x2="42.3353" y2="98.0785" gradientUnits="userSpaceOnUse">
<stop stop-color="#4398EA"/>
<stop offset="1" stop-color="#7492BF"/>
</linearGradient>
</defs>
</svg>
