<svg width="23" height="23" viewBox="0 0 23 23" fill="none" xmlns="http://www.w3.org/2000/svg">
<path d="M16.2325 21.9863V18.9769C16.2718 18.4769 16.2043 17.9742 16.0343 17.5023C15.8644 17.0305 15.5959 16.6001 15.2468 16.24C18.5394 15.873 21.9998 14.6252 21.9998 8.89986C21.9995 7.43584 21.4364 6.02796 20.4269 4.96763C20.9049 3.68678 20.8711 2.27101 20.3325 1.01442C20.3325 1.01442 19.0952 0.647415 16.2325 2.56634C13.8291 1.91498 11.2957 1.91498 8.89235 2.56634C6.02969 0.647415 4.79235 1.01442 4.79235 1.01442C4.25376 2.27101 4.21996 3.68678 4.69797 4.96763C3.68096 6.03583 3.11724 7.45643 3.12508 8.93131C3.12508 14.6147 6.58543 15.8625 9.87802 16.2715C9.53303 16.628 9.26697 17.0531 9.09714 17.5192C8.92732 17.9853 8.85754 18.482 8.89235 18.9769V21.9863" stroke="#261F22" stroke-width="1.57289" stroke-linecap="round" stroke-linejoin="round"/>
<path d="M8.89241 19.8891C5.74662 20.9096 3.12514 19.8891 1.55225 16.7434" stroke="#261F22" stroke-width="1.57289" stroke-linecap="round" stroke-linejoin="round"/>
</svg>
