<svg width="22" height="23" viewBox="0 0 22 23" fill="none" xmlns="http://www.w3.org/2000/svg">
<path d="M20.3615 0.486328H1.63805C1.2037 0.486815 0.787275 0.659577 0.48014 0.966712C0.173005 1.27385 0.000242757 1.69027 -0.000244141 2.12463V20.848C0.000242757 21.2824 0.173005 21.6988 0.48014 22.0059C0.787275 22.3131 1.2037 22.4858 1.63805 22.4863H20.3615C20.7958 22.4858 21.2122 22.3131 21.5194 22.0059C21.8265 21.6988 21.9993 21.2824 21.9998 20.848V2.12463C21.9993 1.69027 21.8265 1.27385 21.5194 0.966712C21.2122 0.659577 20.7958 0.486815 20.3615 0.486328ZM20.5955 20.848C20.5954 20.9101 20.5707 20.9696 20.5269 21.0134C20.483 21.0573 20.4235 21.082 20.3615 21.0821H1.63805C1.576 21.082 1.51652 21.0573 1.47264 21.0134C1.42876 20.9696 1.40408 20.9101 1.40401 20.848V2.12463C1.40409 2.06258 1.42877 2.00309 1.47264 1.95922C1.51652 1.91534 1.57601 1.89066 1.63805 1.89058H20.3615C20.4235 1.89066 20.483 1.91534 20.5269 1.95922C20.5707 2.00309 20.5954 2.06258 20.5955 2.12463V20.848ZM7.02103 9.6141V17.1035C7.02103 17.2897 6.94706 17.4683 6.81538 17.5999C6.68371 17.7316 6.50512 17.8056 6.3189 17.8056C6.13269 17.8056 5.9541 17.7316 5.82243 17.5999C5.69075 17.4683 5.61678 17.2897 5.61678 17.1035V9.6141C5.61678 9.42789 5.69075 9.2493 5.82243 9.11763C5.9541 8.98595 6.13269 8.91198 6.3189 8.91198C6.50512 8.91198 6.68371 8.98595 6.81538 9.11763C6.94706 9.2493 7.02103 9.42789 7.02103 9.6141ZM17.3189 12.8907V17.1035C17.3189 17.2897 17.2449 17.4683 17.1133 17.5999C16.9816 17.7316 16.803 17.8056 16.6168 17.8056C16.4306 17.8056 16.252 17.7316 16.1203 17.5999C15.9886 17.4683 15.9146 17.2897 15.9146 17.1035V12.8907C15.9146 12.2079 15.6434 11.5531 15.1606 11.0703C14.6778 10.5875 14.023 10.3162 13.3402 10.3162C12.6574 10.3162 12.0026 10.5875 11.5198 11.0703C11.037 11.5531 10.7657 12.2079 10.7657 12.8907V17.1035C10.7657 17.2897 10.6917 17.4683 10.5601 17.5999C10.4284 17.7316 10.2498 17.8056 10.0636 17.8056C9.87737 17.8056 9.69878 17.7316 9.56711 17.5999C9.43543 17.4683 9.36146 17.2897 9.36146 17.1035V9.6141C9.36146 9.42789 9.43543 9.2493 9.56711 9.11763C9.69878 8.98595 9.87737 8.91198 10.0636 8.91198C10.2498 8.91198 10.4284 8.98595 10.5601 9.11763C10.6917 9.2493 10.7657 9.42789 10.7657 9.6141V9.86072C11.344 9.36831 12.0512 9.05185 12.8036 8.94877C13.5561 8.84568 14.3224 8.96029 15.0117 9.27904C15.7011 9.59778 16.2848 10.1073 16.6936 10.7474C17.1025 11.3874 17.3195 12.1312 17.3189 12.8907ZM7.48912 5.86931C7.48912 6.10075 7.42049 6.327 7.2919 6.51944C7.16332 6.71188 6.98055 6.86187 6.76673 6.95044C6.5529 7.03901 6.31761 7.06219 6.09061 7.01703C5.86361 6.97188 5.6551 6.86043 5.49144 6.69677C5.32778 6.53311 5.21633 6.3246 5.17118 6.0976C5.12602 5.87061 5.1492 5.63531 5.23777 5.42149C5.32634 5.20766 5.47633 5.0249 5.66877 4.89631C5.86121 4.76773 6.08746 4.69909 6.3189 4.69909C6.62916 4.69944 6.9266 4.82285 7.14598 5.04223C7.36537 5.26161 7.48877 5.55905 7.48912 5.86931Z" fill="black"/>
</svg>
