<svg width="70" height="70" viewBox="0 0 70 70" fill="none" xmlns="http://www.w3.org/2000/svg">
<circle cx="35" cy="35" r="35" fill="white"/>
<path d="M42.4376 42.5834C46.3841 42.5834 49.5834 39.3841 49.5834 35.4375C49.5834 31.491 46.3841 28.2917 42.4376 28.2917C38.491 28.2917 35.2917 31.491 35.2917 35.4375C35.2917 39.3841 38.491 42.5834 42.4376 42.5834Z" fill="#19BCFE"/>
<path fill-rule="evenodd" clip-rule="evenodd" d="M28.1458 56.875C32.0924 56.875 35.2917 53.6757 35.2917 49.7291C35.2917 48.6518 35.2917 46.2699 35.2917 42.5833C32.0815 42.5833 29.6995 42.5833 28.1458 42.5833C24.1993 42.5833 21 45.7826 21 49.7291C21 53.6757 24.1993 56.875 28.1458 56.875Z" fill="#09CF83"/>
<path fill-rule="evenodd" clip-rule="evenodd" d="M28.1458 42.5834H35.2917V28.2917C31.8433 28.2917 29.4613 28.2917 28.1458 28.2917C24.1993 28.2917 21 31.491 21 35.4375C21 39.3841 24.1993 42.5834 28.1458 42.5834Z" fill="#A259FF"/>
<path fill-rule="evenodd" clip-rule="evenodd" d="M28.1458 28.2917H35.2917V14C31.8433 14 29.4613 14 28.1458 14C24.1993 14 21 17.1993 21 21.1458C21 25.0924 24.1993 28.2917 28.1458 28.2917Z" fill="#F24E1E"/>
<path fill-rule="evenodd" clip-rule="evenodd" d="M42.4376 28.2917H35.2917V14H42.4376C46.3841 14 49.5834 17.1993 49.5834 21.1458C49.5834 25.0924 46.3841 28.2917 42.4376 28.2917Z" fill="#FF7262"/>
</svg>
