<svg width="70" height="70" viewBox="0 0 70 70" fill="none" xmlns="http://www.w3.org/2000/svg">
<circle cx="35" cy="35" r="35" fill="white"/>
<path d="M56.0637 33.5275L37.3467 14.8106C37.0907 14.5536 36.7864 14.3498 36.4515 14.2107C36.1165 14.0716 35.7573 14 35.3946 14C35.0319 14 34.6728 14.0716 34.3378 14.2107C34.0028 14.3498 33.6986 14.5536 33.4426 14.8106L29.5552 18.6979L34.4852 23.6278C35.0665 23.43 35.6918 23.3994 36.2896 23.5396C36.8875 23.6798 37.434 23.9852 37.8668 24.4208C38.2996 24.8565 38.6013 25.405 38.7375 26.0037C38.8737 26.6025 38.8391 27.2275 38.6374 27.8076L43.3836 32.5538C44.093 32.3101 44.8646 32.3168 45.5697 32.5729C46.2747 32.829 46.8708 33.3189 47.2585 33.9611C47.6462 34.6033 47.8021 35.359 47.7002 36.1022C47.5984 36.8454 47.245 37.5312 46.6989 38.0455C46.1527 38.5597 45.4469 38.8713 44.6989 38.9283C43.9509 38.9853 43.206 38.7843 42.5883 38.3588C41.9705 37.9332 41.5172 37.3088 41.304 36.5896C41.0907 35.8704 41.1303 35.0999 41.4162 34.4063L36.9839 29.974V41.6359C37.6553 41.9686 38.1925 42.5212 38.5059 43.2019C38.8194 43.8825 38.8902 44.6499 38.7066 45.3764C38.523 46.1029 38.096 46.7445 37.4968 47.1944C36.8976 47.6443 36.1623 47.8754 35.4134 47.8491C34.6646 47.8227 33.9473 47.5406 33.3812 47.0498C32.815 46.5589 32.4342 45.8889 32.302 45.1513C32.1698 44.4137 32.2944 43.6531 32.6548 42.9962C33.0153 42.3393 33.59 41.8257 34.2831 41.541V29.7719C33.8821 29.6074 33.5176 29.3651 33.2107 29.0591C32.9037 28.7531 32.6603 28.3894 32.4945 27.989C32.3287 27.5885 32.2438 27.1592 32.2446 26.7258C32.2455 26.2923 32.3321 25.8634 32.4994 25.4635L27.646 20.6071L14.8113 33.4464C14.5542 33.7024 14.3501 34.0068 14.2109 34.3419C14.0717 34.677 14 35.0363 14 35.3992C14 35.7621 14.0717 36.1214 14.2109 36.4566C14.3501 36.7917 14.5542 37.096 14.8113 37.3521L33.5283 56.0629C33.7843 56.3198 34.0886 56.5237 34.4235 56.6628C34.7585 56.8019 35.1177 56.8735 35.4804 56.8735C35.8431 56.8735 36.2022 56.8019 36.5372 56.6628C36.8722 56.5237 37.1764 56.3198 37.4324 56.0629L56.0637 37.4271C56.3208 37.171 56.5249 36.8667 56.6641 36.5316C56.8033 36.1965 56.875 35.8371 56.875 35.4742C56.875 35.1113 56.8033 34.752 56.6641 34.4169C56.5249 34.0818 56.3208 33.7775 56.0637 33.5214" fill="#DD4C35"/>
<path d="M29.5552 18.6979L34.4852 23.6278C35.0665 23.43 35.6917 23.3994 36.2896 23.5396C36.8875 23.6798 37.4339 23.9852 37.8667 24.4208C38.2995 24.8565 38.6012 25.405 38.7375 26.0037C38.8737 26.6025 38.839 27.2275 38.6373 27.8076L43.3836 32.5538C44.093 32.3101 44.8645 32.3168 45.5696 32.5729C46.2747 32.829 46.8707 33.3189 47.2584 33.9611C47.6461 34.6033 47.802 35.359 47.7002 36.1022C47.5984 36.8454 47.245 37.5312 46.6988 38.0455C46.1527 38.5598 45.4468 38.8713 44.6989 38.9283C43.9509 38.9853 43.206 38.7843 42.5882 38.3588C41.9705 37.9332 41.5172 37.3088 41.3039 36.5896C41.0907 35.8704 41.1303 35.0999 41.4162 34.4063L36.9838 29.974V41.6359C37.6552 41.9686 38.1924 42.5213 38.5059 43.2019C38.8193 43.8825 38.8902 44.6499 38.7065 45.3764C38.5229 46.1029 38.0959 46.7445 37.4967 47.1944C36.8975 47.6443 36.1622 47.8754 35.4134 47.8491C34.6645 47.8227 33.9473 47.5406 33.3811 47.0498C32.815 46.5589 32.4341 45.8889 32.302 45.1513C32.1698 44.4137 32.2943 43.6531 32.6548 42.9962C33.0153 42.3393 33.5899 41.8257 34.2831 41.541V29.7719C33.8821 29.6074 33.5176 29.3651 33.2106 29.0591C32.9037 28.7531 32.6603 28.3894 32.4945 27.989C32.3287 27.5885 32.2438 27.1592 32.2446 26.7258C32.2454 26.2923 32.332 25.8634 32.4994 25.4635L27.646 20.6071" fill="white"/>
</svg>
