<svg width="241" height="240" viewBox="0 0 241 240" fill="none" xmlns="http://www.w3.org/2000/svg">
<g filter="url(#filter0_dddd_67_325)">
<circle cx="120.5" cy="87" r="40" fill="white"/>
</g>
<path d="M144.573 85.3172L123.182 63.9264C122.889 63.6327 122.542 63.3998 122.159 63.2408C121.776 63.0818 121.366 63 120.951 63C120.536 63 120.126 63.0818 119.743 63.2408C119.36 63.3998 119.013 63.6327 118.72 63.9264L114.277 68.369L119.912 74.0032C120.576 73.7771 121.291 73.7422 121.974 73.9024C122.657 74.0627 123.282 74.4116 123.776 74.9095C124.271 75.4074 124.616 76.0342 124.771 76.7186C124.927 77.4029 124.887 78.1172 124.657 78.7801L130.081 84.2043C130.892 83.9258 131.774 83.9335 132.58 84.2262C133.385 84.5188 134.067 85.0788 134.51 85.8127C134.953 86.5466 135.131 87.4103 135.015 88.2596C134.898 89.109 134.494 89.8928 133.87 90.4806C133.246 91.0683 132.439 91.4244 131.584 91.4895C130.73 91.5547 129.878 91.3249 129.172 90.8386C128.466 90.3522 127.948 89.6386 127.705 88.8167C127.461 87.9948 127.506 87.1141 127.833 86.3215L122.767 81.256V94.5839C123.535 94.9641 124.149 95.5957 124.507 96.3735C124.865 97.1514 124.946 98.0285 124.736 98.8587C124.526 99.689 124.038 100.422 123.353 100.936C122.669 101.451 121.828 101.715 120.972 101.685C120.117 101.655 119.297 101.332 118.65 100.771C118.003 100.21 117.568 99.4444 117.417 98.6015C117.266 97.7585 117.408 96.8893 117.82 96.1385C118.232 95.3877 118.889 94.8008 119.681 94.4754V81.025C119.222 80.837 118.806 80.5601 118.455 80.2104C118.104 79.8607 117.826 79.4451 117.637 78.9874C117.447 78.5297 117.35 78.0391 117.351 77.5437C117.352 77.0484 117.451 76.5581 117.642 76.1012L112.095 70.5509L97.4272 85.2244C97.1333 85.5171 96.9002 85.8649 96.741 86.2479C96.5819 86.6309 96.5 87.0415 96.5 87.4563C96.5 87.871 96.5819 88.2816 96.741 88.6646C96.9002 89.0476 97.1333 89.3954 97.4272 89.6881L118.818 111.072C119.111 111.366 119.458 111.598 119.841 111.757C120.224 111.916 120.634 111.998 121.049 111.998C121.464 111.998 121.874 111.916 122.257 111.757C122.64 111.598 122.987 111.366 123.28 111.072L144.573 89.7738C144.867 89.4812 145.1 89.1334 145.259 88.7504C145.418 88.3674 145.5 87.9567 145.5 87.542C145.5 87.1273 145.418 86.7166 145.259 86.3336C145.1 85.9506 144.867 85.6028 144.573 85.3102" fill="#DD4C35"/>
<path d="M114.277 68.369L119.912 74.0032C120.576 73.7771 121.291 73.7422 121.974 73.9025C122.657 74.0627 123.282 74.4116 123.776 74.9095C124.271 75.4074 124.616 76.0343 124.771 76.7186C124.927 77.4029 124.887 78.1172 124.657 78.7801L130.081 84.2043C130.892 83.9258 131.774 83.9335 132.58 84.2262C133.385 84.5188 134.067 85.0788 134.51 85.8127C134.953 86.5467 135.131 87.4103 135.015 88.2597C134.898 89.109 134.494 89.8929 133.87 90.4806C133.246 91.0683 132.439 91.4244 131.584 91.4896C130.73 91.5547 129.878 91.3249 129.172 90.8386C128.466 90.3522 127.948 89.6387 127.705 88.8167C127.461 87.9948 127.506 87.1142 127.833 86.3216L122.767 81.256V94.5839C123.535 94.9641 124.149 95.5957 124.507 96.3736C124.865 97.1514 124.946 98.0285 124.736 98.8588C124.526 99.689 124.038 100.422 123.353 100.936C122.669 101.451 121.828 101.715 120.972 101.685C120.117 101.655 119.297 101.332 118.65 100.771C118.003 100.21 117.568 99.4444 117.417 98.6015C117.266 97.7585 117.408 96.8893 117.82 96.1385C118.232 95.3878 118.889 94.8008 119.681 94.4754V81.025C119.222 80.837 118.806 80.5602 118.455 80.2105C118.104 79.8608 117.826 79.4451 117.637 78.9874C117.447 78.5297 117.35 78.0391 117.351 77.5438C117.352 77.0484 117.451 76.5581 117.642 76.1012L112.095 70.551" fill="white"/>
<defs>
<filter id="filter0_dddd_67_325" x="0.5" y="0" width="240" height="240" filterUnits="userSpaceOnUse" color-interpolation-filters="sRGB">
<feFlood flood-opacity="0" result="BackgroundImageFix"/>
<feColorMatrix in="SourceAlpha" type="matrix" values="0 0 0 0 0 0 0 0 0 0 0 0 0 0 0 0 0 0 127 0" result="hardAlpha"/>
<feOffset dy="1.4945"/>
<feGaussianBlur stdDeviation="1.81152"/>
<feColorMatrix type="matrix" values="0 0 0 0 0 0 0 0 0 0 0 0 0 0 0 0 0 0 0.0243888 0"/>
<feBlend mode="normal" in2="BackgroundImageFix" result="effect1_dropShadow_67_325"/>
<feColorMatrix in="SourceAlpha" type="matrix" values="0 0 0 0 0 0 0 0 0 0 0 0 0 0 0 0 0 0 127 0" result="hardAlpha"/>
<feOffset dy="4.13211"/>
<feGaussianBlur stdDeviation="5.00862"/>
<feColorMatrix type="matrix" values="0 0 0 0 0 0 0 0 0 0 0 0 0 0 0 0 0 0 0.035 0"/>
<feBlend mode="normal" in2="effect1_dropShadow_67_325" result="effect2_dropShadow_67_325"/>
<feColorMatrix in="SourceAlpha" type="matrix" values="0 0 0 0 0 0 0 0 0 0 0 0 0 0 0 0 0 0 127 0" result="hardAlpha"/>
<feOffset dy="9.94853"/>
<feGaussianBlur stdDeviation="12.0588"/>
<feColorMatrix type="matrix" values="0 0 0 0 0 0 0 0 0 0 0 0 0 0 0 0 0 0 0.0456112 0"/>
<feBlend mode="normal" in2="effect2_dropShadow_67_325" result="effect3_dropShadow_67_325"/>
<feColorMatrix in="SourceAlpha" type="matrix" values="0 0 0 0 0 0 0 0 0 0 0 0 0 0 0 0 0 0 127 0" result="hardAlpha"/>
<feOffset dy="33"/>
<feGaussianBlur stdDeviation="40"/>
<feColorMatrix type="matrix" values="0 0 0 0 0 0 0 0 0 0 0 0 0 0 0 0 0 0 0.07 0"/>
<feBlend mode="normal" in2="effect3_dropShadow_67_325" result="effect4_dropShadow_67_325"/>
<feBlend mode="normal" in="SourceGraphic" in2="effect4_dropShadow_67_325" result="shape"/>
</filter>
</defs>
</svg>
