<svg width="70" height="70" viewBox="0 0 70 70" fill="none" xmlns="http://www.w3.org/2000/svg">
<circle cx="35" cy="35" r="35" fill="white"/>
<path d="M35.0001 14.9481C29.7382 14.8946 24.6703 16.9325 20.9103 20.614C17.1502 24.2954 15.0057 29.3191 14.948 34.5809C14.9683 38.7393 16.306 42.7843 18.7689 46.1348C21.2319 49.4854 24.6934 51.9692 28.6563 53.2294C29.6589 53.4117 30.0235 52.8101 30.0235 52.2814C30.0235 51.7528 30.0235 50.5861 30.0235 48.9455C24.4454 50.1304 23.2605 46.3205 23.2605 46.3205C22.8892 45.1245 22.0997 44.1021 21.0365 43.4403C19.2136 42.2372 21.1824 42.2554 21.1824 42.2554C21.8125 42.3396 22.4153 42.5654 22.9457 42.9159C23.4761 43.2663 23.9202 43.7323 24.2449 44.2788C24.8106 45.2598 25.7388 45.9794 26.8298 46.2829C27.9208 46.5863 29.0873 46.4492 30.0782 45.9012C30.1801 44.903 30.6322 43.973 31.3542 43.2762C26.9063 42.7841 22.2397 41.107 22.2397 33.5783C22.1999 31.6145 22.9255 29.7121 24.2631 28.2736C23.6539 26.5876 23.7259 24.7305 24.4636 23.0965C24.4636 23.0965 26.1589 22.5679 29.9324 25.1018C33.2171 24.2265 36.6737 24.2265 39.9584 25.1018C43.7865 22.5679 45.4272 23.0965 45.4272 23.0965C46.1649 24.7305 46.2369 26.5876 45.6277 28.2736C46.9963 29.6857 47.7613 31.5753 47.7605 33.5419C47.7605 41.0887 43.0574 42.7476 38.6459 43.2398C39.129 43.7088 39.5021 44.2789 39.7385 44.9093C39.9749 45.5397 40.0687 46.2147 40.0131 46.8856V52.2632C40.0131 52.2632 40.3777 53.4117 41.3803 53.2111C45.3319 51.9431 48.7818 49.4588 51.2372 46.1129C53.6925 42.7671 55.0277 38.731 55.0522 34.5809C54.9945 29.3191 52.8499 24.2954 49.0899 20.614C45.3299 16.9325 40.262 14.8946 35.0001 14.9481Z" fill="#231F20"/>
</svg>
