<svg width="70" height="70" viewBox="0 0 70 70" fill="none" xmlns="http://www.w3.org/2000/svg">
<circle cx="35" cy="35" r="35" fill="white"/>
<path d="M20.6853 50.5994L17.5 14.875H52.5L49.3105 50.5937L34.9787 54.5672L20.6853 50.5994Z" fill="#E44F26"/>
<path d="M35 51.531L46.5816 48.3202L49.3062 17.7969H35V51.531Z" fill="#F1662A"/>
<path d="M34.9999 31.0453H29.202L28.8023 26.5587H34.9999V22.1769H34.9843H24.0137L24.1186 23.3535L25.1945 35.427H34.9999V31.0453Z" fill="#EBEBEB"/>
<path d="M34.9999 42.4242L34.9801 42.4298L30.1007 41.1129L29.7889 37.6186H27.4173H25.3901L26.0039 44.4967L34.9801 46.9888L34.9999 46.9831V42.4242Z" fill="#EBEBEB"/>
<path d="M34.9844 31.0449V35.4267H40.3797L39.8722 41.1097L34.9844 42.4281V46.987L43.9676 44.4963L44.0328 43.7563L45.0619 32.2215L45.1697 31.0449H43.9888H34.9844Z" fill="white"/>
<path d="M34.9844 22.1769V24.8987V26.5488V26.5587H45.5538H45.568L45.6559 25.5749L45.8558 23.3535L45.9607 22.1769H34.9844Z" fill="white"/>
</svg>
