<svg width="240" height="260" viewBox="0 0 240 260" fill="none" xmlns="http://www.w3.org/2000/svg">
<g filter="url(#filter0_dddddd_67_280)">
<circle cx="120" cy="40" r="40" fill="white"/>
</g>
<path d="M103.64 57.8279L100 17H140L136.355 57.8214L119.976 62.3625L103.64 57.8279Z" fill="#E44F26"/>
<path d="M120 58.8926L133.236 55.2231L136.35 20.3393H120V58.8926Z" fill="#F1662A"/>
<path d="M120 35.4804H113.374L112.917 30.3528H120V25.3451H119.982H107.444L107.564 26.6898L108.794 40.4881H120V35.4804Z" fill="#EBEBEB"/>
<path d="M120 48.4847L119.977 48.4912L114.401 46.9861L114.044 42.9926H111.334H109.017L109.719 50.8533L119.977 53.7014L120 53.6949V48.4847Z" fill="#EBEBEB"/>
<path d="M119.982 35.4799V40.4876H126.148L125.568 46.9826L119.982 48.4892V53.6994L130.249 50.8529L130.323 50.0073L131.499 36.8246L131.623 35.4799H130.273H119.982Z" fill="white"/>
<path d="M119.982 25.3451V28.4557V30.3414V30.3528H132.062H132.078L132.178 29.2284L132.407 26.6898L132.527 25.3451H119.982Z" fill="white"/>
<defs>
<filter id="filter0_dddddd_67_280" x="0" y="0" width="240" height="260" filterUnits="userSpaceOnUse" color-interpolation-filters="sRGB">
<feFlood flood-opacity="0" result="BackgroundImageFix"/>
<feColorMatrix in="SourceAlpha" type="matrix" values="0 0 0 0 0 0 0 0 0 0 0 0 0 0 0 0 0 0 127 0" result="hardAlpha"/>
<feOffset dy="2.76726"/>
<feGaussianBlur stdDeviation="1.1069"/>
<feColorMatrix type="matrix" values="0 0 0 0 0 0 0 0 0 0 0 0 0 0 0 0 0 0 0.0196802 0"/>
<feBlend mode="normal" in2="BackgroundImageFix" result="effect1_dropShadow_67_280"/>
<feColorMatrix in="SourceAlpha" type="matrix" values="0 0 0 0 0 0 0 0 0 0 0 0 0 0 0 0 0 0 127 0" result="hardAlpha"/>
<feOffset dy="6.6501"/>
<feGaussianBlur stdDeviation="2.66004"/>
<feColorMatrix type="matrix" values="0 0 0 0 0 0 0 0 0 0 0 0 0 0 0 0 0 0 0.0282725 0"/>
<feBlend mode="normal" in2="effect1_dropShadow_67_280" result="effect2_dropShadow_67_280"/>
<feColorMatrix in="SourceAlpha" type="matrix" values="0 0 0 0 0 0 0 0 0 0 0 0 0 0 0 0 0 0 127 0" result="hardAlpha"/>
<feOffset dy="12.5216"/>
<feGaussianBlur stdDeviation="5.00862"/>
<feColorMatrix type="matrix" values="0 0 0 0 0 0 0 0 0 0 0 0 0 0 0 0 0 0 0.035 0"/>
<feBlend mode="normal" in2="effect2_dropShadow_67_280" result="effect3_dropShadow_67_280"/>
<feColorMatrix in="SourceAlpha" type="matrix" values="0 0 0 0 0 0 0 0 0 0 0 0 0 0 0 0 0 0 127 0" result="hardAlpha"/>
<feOffset dy="22.3363"/>
<feGaussianBlur stdDeviation="8.93452"/>
<feColorMatrix type="matrix" values="0 0 0 0 0 0 0 0 0 0 0 0 0 0 0 0 0 0 0.0417275 0"/>
<feBlend mode="normal" in2="effect3_dropShadow_67_280" result="effect4_dropShadow_67_280"/>
<feColorMatrix in="SourceAlpha" type="matrix" values="0 0 0 0 0 0 0 0 0 0 0 0 0 0 0 0 0 0 127 0" result="hardAlpha"/>
<feOffset dy="41.7776"/>
<feGaussianBlur stdDeviation="16.711"/>
<feColorMatrix type="matrix" values="0 0 0 0 0 0 0 0 0 0 0 0 0 0 0 0 0 0 0.0503198 0"/>
<feBlend mode="normal" in2="effect4_dropShadow_67_280" result="effect5_dropShadow_67_280"/>
<feColorMatrix in="SourceAlpha" type="matrix" values="0 0 0 0 0 0 0 0 0 0 0 0 0 0 0 0 0 0 127 0" result="hardAlpha"/>
<feOffset dy="100"/>
<feGaussianBlur stdDeviation="40"/>
<feColorMatrix type="matrix" values="0 0 0 0 0 0 0 0 0 0 0 0 0 0 0 0 0 0 0.07 0"/>
<feBlend mode="normal" in2="effect5_dropShadow_67_280" result="effect6_dropShadow_67_280"/>
<feBlend mode="normal" in="SourceGraphic" in2="effect6_dropShadow_67_280" result="shape"/>
</filter>
</defs>
</svg>
