<svg width="21" height="21" viewBox="0 0 21 21" fill="none" xmlns="http://www.w3.org/2000/svg">
<path d="M10.6001 14.4522C12.8706 14.4522 14.7112 12.6116 14.7112 10.3411C14.7112 8.07059 12.8706 6.22998 10.6001 6.22998C8.32962 6.22998 6.48901 8.07059 6.48901 10.3411C6.48901 12.6116 8.32962 14.4522 10.6001 14.4522Z" stroke="#261F22" stroke-opacity="0.75" stroke-width="1.57" stroke-linecap="round" stroke-linejoin="round"/>
<path d="M1.3501 14.4519V6.22971C1.3501 3.39158 3.65086 1.09082 6.48899 1.09082H14.7112C17.5493 1.09082 19.8501 3.39158 19.8501 6.22971V14.4519C19.8501 17.29 17.5493 19.5908 14.7112 19.5908H6.48899C3.65086 19.5908 1.3501 17.29 1.3501 14.4519Z" stroke="#261F22" stroke-opacity="0.75" stroke-width="1.57"/>
<path d="M16.2529 4.69887L16.2636 4.68701" stroke="#261F22" stroke-opacity="0.75" stroke-width="1.57" stroke-linecap="round" stroke-linejoin="round"/>
</svg>
