<svg width="70" height="70" viewBox="0 0 70 70" fill="none" xmlns="http://www.w3.org/2000/svg">
<circle cx="35" cy="35" r="35" fill="white"/>
<path d="M17.5 17.5H52.5V52.5H17.5V17.5Z" fill="#F7DF1E"/>
<path d="M26.7027 46.7486L29.3811 45.1276C29.8979 46.0438 30.3679 46.819 31.4954 46.819C32.5762 46.819 33.2576 46.3962 33.2576 44.7518V33.5684H36.5467V44.7983C36.5467 48.2049 34.5498 49.7555 31.6364 49.7555C29.0052 49.7555 27.4779 48.3928 26.7026 46.7483" fill="black"/>
<path d="M38.3335 46.396L41.0116 44.8454C41.7166 45.9967 42.6329 46.8424 44.2539 46.8424C45.6167 46.8424 46.4858 46.161 46.4858 45.2212C46.4858 44.0935 45.5931 43.6941 44.0894 43.0365L43.2673 42.6838C40.8943 41.6737 39.3201 40.4051 39.3201 37.7267C39.3201 35.2598 41.1996 33.3802 44.1365 33.3802C46.2275 33.3802 47.7311 34.1086 48.8117 36.0116L46.2508 37.6561C45.6869 36.646 45.0763 36.2466 44.1366 36.2466C43.1733 36.2466 42.5624 36.8575 42.5624 37.6561C42.5624 38.6429 43.1733 39.0424 44.5828 39.6533L45.405 40.0057C48.2008 41.204 49.775 42.4255 49.775 45.1742C49.775 48.1347 47.4491 49.7556 44.3244 49.7556C41.2702 49.7556 39.2966 48.2991 38.3335 46.396Z" fill="black"/>
</svg>
