<svg width="92" height="25" viewBox="0 0 92 25" fill="none" xmlns="http://www.w3.org/2000/svg">
<path d="M89.1343 18.6797C88.7993 18.6797 88.4803 18.6172 88.1772 18.4922C87.8821 18.375 87.6228 18.207 87.3995 17.9883C87.1762 17.7695 87.0007 17.5156 86.8731 17.2266C86.7455 16.9297 86.6816 16.6094 86.6816 16.2656C86.6816 15.9062 86.7494 15.5781 86.885 15.2812C87.0286 14.9766 87.216 14.7148 87.4474 14.4961C87.6787 14.2773 87.9459 14.1055 88.249 13.9805C88.56 13.8555 88.8831 13.793 89.2181 13.793C89.5531 13.793 89.8681 13.8555 90.1633 13.9805C90.4664 14.1055 90.7296 14.2773 90.9529 14.4961C91.1762 14.7148 91.3517 14.9727 91.4793 15.2695C91.607 15.5664 91.6708 15.8867 91.6708 16.2305C91.6708 16.582 91.599 16.9102 91.4554 17.2148C91.3198 17.5117 91.1324 17.7695 90.8931 17.9883C90.6618 18.207 90.3946 18.375 90.0915 18.4922C89.7884 18.6172 89.4693 18.6797 89.1343 18.6797Z" fill="url(#paint0_linear_53_115)"/>
<path d="M78.7372 16.6523C78.4979 16.8477 78.2268 17.0625 77.9237 17.2969C77.6206 17.5312 77.2896 17.7539 76.9306 17.9648C76.5717 18.168 76.1888 18.3359 75.782 18.4688C75.3753 18.6094 74.9445 18.6797 74.4899 18.6797C73.9395 18.6797 73.457 18.5781 73.0422 18.375C72.6275 18.1641 72.2805 17.8906 72.0013 17.5547C71.7301 17.2188 71.5227 16.8398 71.3792 16.418C71.2436 15.9961 71.1758 15.5742 71.1758 15.1523C71.1758 14.5742 71.3074 14.0312 71.5706 13.5234C71.8418 13.0156 72.2605 12.5742 72.8269 12.1992C73.3932 11.8164 74.115 11.5156 74.9924 11.2969C75.8698 11.0781 76.9147 10.9688 78.1271 10.9688H78.5937V10.2422C78.5937 9.60938 78.3943 9.12891 77.9954 8.80078C77.5966 8.47266 77.0622 8.30859 76.3922 8.30859C76.0971 8.30859 75.786 8.34375 75.459 8.41406C75.14 8.48438 74.8169 8.58203 74.4899 8.70703C74.1629 8.82422 73.8438 8.96484 73.5328 9.12891C73.2217 9.29297 72.9305 9.46875 72.6594 9.65625L72.444 9.53906L71.7381 7.06641C72.767 6.59766 73.7401 6.26953 74.6574 6.08203C75.5747 5.88672 76.476 5.78906 77.3613 5.78906C78.1191 5.78906 78.825 5.85938 79.479 6C80.141 6.14062 80.7113 6.37109 81.1899 6.69141C81.6765 7.00391 82.0593 7.41406 82.3385 7.92188C82.6177 8.42969 82.7572 9.05469 82.7572 9.79688V14.7891C82.7572 14.9297 82.7692 15.0703 82.7931 15.2109C82.8171 15.3438 82.8609 15.4648 82.9247 15.5742C82.9886 15.6836 83.0763 15.7734 83.188 15.8438C83.2996 15.9141 83.4432 15.9492 83.6187 15.9492C83.7303 15.9492 83.838 15.9414 83.9417 15.9258C84.0534 15.9102 84.177 15.875 84.3126 15.8203V17.5547C83.7942 17.9062 83.2757 18.1836 82.7572 18.3867C82.2388 18.582 81.7363 18.6797 81.2497 18.6797C80.6196 18.6797 80.1012 18.5039 79.6944 18.1523C79.2876 17.8008 78.9685 17.3008 78.7372 16.6523ZM78.5937 12.3984H78.139C77.5089 12.3984 76.9865 12.4453 76.5717 12.5391C76.1649 12.625 75.8379 12.75 75.5906 12.9141C75.3513 13.0781 75.1838 13.2773 75.0881 13.5117C74.9924 13.7383 74.9445 13.9961 74.9445 14.2852C74.9445 14.582 74.9884 14.8359 75.0762 15.0469C75.1639 15.25 75.2795 15.4219 75.4231 15.5625C75.5747 15.6953 75.7462 15.793 75.9376 15.8555C76.137 15.918 76.3444 15.9492 76.5597 15.9492C76.8548 15.9492 77.1699 15.8906 77.5049 15.7734C77.8479 15.6484 78.2108 15.4297 78.5937 15.1172V12.3984Z" fill="url(#paint1_linear_53_115)"/>
<path d="M64.1526 6.02344H68.3042V18.4453H64.1526V6.02344ZM66.1746 4.06641C65.8157 4.06641 65.4926 4.01562 65.2055 3.91406C64.9183 3.8125 64.6711 3.67188 64.4637 3.49219C64.2643 3.3125 64.1088 3.10156 63.9971 2.85938C63.8854 2.61719 63.8296 2.35547 63.8296 2.07422C63.8296 1.78516 63.8894 1.51562 64.0091 1.26562C64.1367 1.01562 64.3082 0.796875 64.5235 0.609375C64.7389 0.421875 64.9981 0.273438 65.3012 0.164062C65.6043 0.0546875 65.9353 0 66.2942 0C66.6452 0 66.9642 0.0546875 67.2514 0.164062C67.5465 0.265625 67.7938 0.40625 67.9932 0.585938C68.2006 0.765625 68.3601 0.976562 68.4717 1.21875C68.5834 1.46094 68.6392 1.72266 68.6392 2.00391C68.6392 2.29297 68.5754 2.5625 68.4478 2.8125C68.3282 3.0625 68.1607 3.28125 67.9453 3.46875C67.73 3.65625 67.4707 3.80469 67.1676 3.91406C66.8645 4.01562 66.5335 4.06641 66.1746 4.06641Z" fill="url(#paint2_linear_53_115)"/>
<path d="M61.3531 17.1445C60.6432 17.7148 59.9293 18.1133 59.2114 18.3398C58.4936 18.5664 57.7478 18.6797 56.9741 18.6797C56.009 18.6797 55.1476 18.5352 54.3898 18.2461C53.6321 17.957 52.994 17.5547 52.4755 17.0391C51.9571 16.5234 51.5583 15.9102 51.2791 15.1992C51.0079 14.4805 50.8723 13.6914 50.8723 12.832C50.8723 11.793 51.0677 10.8398 51.4586 9.97266C51.8574 9.10547 52.3958 8.36328 53.0738 7.74609C53.7597 7.12891 54.5653 6.64844 55.4905 6.30469C56.4158 5.96094 57.4088 5.78906 58.4697 5.78906C58.8525 5.78906 59.3151 5.82031 59.8575 5.88281C60.3999 5.94531 60.9503 6.06641 61.5086 6.24609L60.9104 8.89453L60.6831 9.01172C60.5554 8.93359 60.4039 8.85156 60.2284 8.76562C60.0529 8.67969 59.8615 8.60547 59.6541 8.54297C59.4467 8.47266 59.2274 8.41797 58.9961 8.37891C58.7648 8.33203 58.5335 8.30859 58.3022 8.30859C57.8395 8.30859 57.4168 8.39844 57.0339 8.57812C56.6511 8.75 56.3201 9.00391 56.0409 9.33984C55.7617 9.66797 55.5424 10.0703 55.3829 10.5469C55.2313 11.0234 55.1555 11.5625 55.1555 12.1641C55.1555 12.8203 55.2473 13.3867 55.4307 13.8633C55.6142 14.3398 55.8694 14.7344 56.1964 15.0469C56.5314 15.3516 56.9263 15.5781 57.3809 15.7266C57.8435 15.875 58.35 15.9492 58.9004 15.9492C59.2673 15.9492 59.6382 15.9102 60.0131 15.832C60.3879 15.7539 60.8346 15.6133 61.3531 15.4102V17.1445Z" fill="url(#paint3_linear_53_115)"/>
<path d="M39.937 6.02344H43.4426L43.9451 9.66797C44.0727 9.44141 44.2003 9.21094 44.3279 8.97656C44.4635 8.74219 44.5871 8.52734 44.6988 8.33203C44.8185 8.12891 44.9221 7.95312 45.0099 7.80469C45.1056 7.65625 45.1734 7.54688 45.2133 7.47656C45.3648 7.23438 45.5363 7.01172 45.7277 6.80859C45.9192 6.59766 46.1305 6.41797 46.3619 6.26953C46.5932 6.12109 46.8524 6.00391 47.1395 5.91797C47.4267 5.83203 47.7457 5.78906 48.0967 5.78906C48.328 5.78906 48.5792 5.82031 48.8504 5.88281C49.1296 5.9375 49.3848 6.03125 49.6162 6.16406L49.1615 9.82031C49.0897 9.80469 48.994 9.79297 48.8744 9.78516C48.7547 9.76953 48.6271 9.75781 48.4915 9.75C48.3639 9.74219 48.2363 9.73828 48.1086 9.73828C47.989 9.73047 47.8813 9.72656 47.7856 9.72656C46.98 9.72656 46.2582 9.87891 45.6201 10.1836C44.9899 10.4883 44.4795 10.8789 44.0886 11.3555V18.4453H39.937V6.02344Z" fill="url(#paint4_linear_53_115)"/>
<path d="M32.1242 16.6523C31.8849 16.8477 31.6137 17.0625 31.3106 17.2969C31.0075 17.5312 30.6765 17.7539 30.3176 17.9648C29.9587 18.168 29.5758 18.3359 29.169 18.4688C28.7622 18.6094 28.3315 18.6797 27.8769 18.6797C27.3265 18.6797 26.8439 18.5781 26.4292 18.375C26.0144 18.1641 25.6675 17.8906 25.3883 17.5547C25.1171 17.2188 24.9097 16.8398 24.7661 16.418C24.6305 15.9961 24.5627 15.5742 24.5627 15.1523C24.5627 14.5742 24.6944 14.0312 24.9576 13.5234C25.2288 13.0156 25.6475 12.5742 26.2138 12.1992C26.7801 11.8164 27.502 11.5156 28.3794 11.2969C29.2567 11.0781 30.3016 10.9688 31.514 10.9688H31.9806V10.2422C31.9806 9.60938 31.7812 9.12891 31.3824 8.80078C30.9836 8.47266 30.4492 8.30859 29.7792 8.30859C29.4841 8.30859 29.173 8.34375 28.846 8.41406C28.5269 8.48438 28.2039 8.58203 27.8769 8.70703C27.5498 8.82422 27.2308 8.96484 26.9197 9.12891C26.6086 9.29297 26.3175 9.46875 26.0463 9.65625L25.831 9.53906L25.1251 7.06641C26.154 6.59766 27.1271 6.26953 28.0444 6.08203C28.9616 5.88672 29.8629 5.78906 30.7483 5.78906C31.506 5.78906 32.2119 5.85938 32.866 6C33.528 6.14062 34.0983 6.37109 34.5769 6.69141C35.0634 7.00391 35.4463 7.41406 35.7255 7.92188C36.0046 8.42969 36.1442 9.05469 36.1442 9.79688V14.7891C36.1442 14.9297 36.1562 15.0703 36.1801 15.2109C36.204 15.3438 36.2479 15.4648 36.3117 15.5742C36.3755 15.6836 36.4633 15.7734 36.5749 15.8438C36.6866 15.9141 36.8302 15.9492 37.0056 15.9492C37.1173 15.9492 37.225 15.9414 37.3287 15.9258C37.4403 15.9102 37.564 15.875 37.6996 15.8203V17.5547C37.1811 17.9062 36.6627 18.1836 36.1442 18.3867C35.6258 18.582 35.1233 18.6797 34.6367 18.6797C34.0066 18.6797 33.4881 18.5039 33.0813 18.1523C32.6746 17.8008 32.3555 17.3008 32.1242 16.6523ZM31.9806 12.3984H31.526C30.8959 12.3984 30.3734 12.4453 29.9587 12.5391C29.5519 12.625 29.2248 12.75 28.9776 12.9141C28.7383 13.0781 28.5708 13.2773 28.4751 13.5117C28.3794 13.7383 28.3315 13.9961 28.3315 14.2852C28.3315 14.582 28.3754 14.8359 28.4631 15.0469C28.5509 15.25 28.6665 15.4219 28.8101 15.5625C28.9616 15.6953 29.1331 15.793 29.3245 15.8555C29.524 15.918 29.7313 15.9492 29.9467 15.9492C30.2418 15.9492 30.5569 15.8906 30.8919 15.7734C31.2348 15.6484 31.5978 15.4297 31.9806 15.1172V12.3984Z" fill="url(#paint5_linear_53_115)"/>
<path d="M13.9383 19.6055C13.8027 19.6992 13.6671 19.7969 13.5315 19.8984C13.396 20 13.2723 20.1094 13.1607 20.2266C13.057 20.3438 12.9692 20.4688 12.8974 20.6016C12.8336 20.7422 12.8017 20.8906 12.8017 21.0469C12.8017 21.4453 13.029 21.7773 13.4837 22.043C13.9463 22.3086 14.6203 22.4414 15.5057 22.4414C16.0321 22.4414 16.4947 22.3906 16.8935 22.2891C17.2923 22.1953 17.6233 22.0664 17.8866 21.9023C18.1578 21.7461 18.3611 21.5664 18.4967 21.3633C18.6323 21.1602 18.7001 20.9531 18.7001 20.7422C18.7001 20.3906 18.5247 20.1133 18.1737 19.9102C17.8228 19.707 17.3322 19.6055 16.7021 19.6055H13.9383ZM11.9164 19.3594C11.2384 19.1328 10.7199 18.8477 10.361 18.5039C10.01 18.168 9.83457 17.793 9.83457 17.3789C9.83457 17.1055 9.91433 16.8516 10.0739 16.6172C10.2334 16.3828 10.4408 16.1641 10.696 15.9609C10.9512 15.75 11.2384 15.5547 11.5574 15.375C11.8845 15.1875 12.2155 15.0039 12.5505 14.8242C11.9523 14.6133 11.4537 14.3555 11.0549 14.0508C10.6641 13.7383 10.349 13.4023 10.1098 13.043C9.87046 12.6836 9.69898 12.3086 9.59529 11.918C9.49957 11.5273 9.45171 11.1445 9.45171 10.7695C9.45171 10.0352 9.61523 9.36328 9.94225 8.75391C10.2773 8.13672 10.7319 7.60938 11.3062 7.17188C11.8805 6.73438 12.5505 6.39453 13.3162 6.15234C14.0819 5.91016 14.8995 5.78906 15.7689 5.78906C16.0799 5.78906 16.391 5.80859 16.7021 5.84766C17.0211 5.87891 17.3282 5.92578 17.6233 5.98828C17.9185 6.05078 18.1976 6.13281 18.4608 6.23438C18.7241 6.32812 18.9594 6.4375 19.1667 6.5625C19.2864 6.5 19.422 6.4375 19.5735 6.375C19.7251 6.30469 19.8966 6.24609 20.088 6.19922C20.2794 6.14453 20.4988 6.10156 20.746 6.07031C20.9933 6.03906 21.2725 6.02344 21.5835 6.02344H23.4021L22.8159 8.54297H20.7221C20.8258 8.70703 20.9375 8.94141 21.0571 9.24609C21.1768 9.54297 21.2366 9.90234 21.2366 10.3242C21.2366 11.0117 21.0691 11.6484 20.7341 12.2344C20.3991 12.8125 19.9484 13.3125 19.3821 13.7344C18.8238 14.1562 18.1777 14.4883 17.4439 14.7305C16.7101 14.9648 15.9444 15.082 15.1467 15.082C15.051 15.082 14.9513 15.082 14.8476 15.082C14.7519 15.0742 14.6522 15.0664 14.5485 15.0586C14.4528 15.1133 14.3531 15.1758 14.2494 15.2461C14.1457 15.3164 14.046 15.3984 13.9503 15.4922C13.8626 15.5781 13.7868 15.6758 13.723 15.7852C13.6671 15.8867 13.6392 15.9961 13.6392 16.1133C13.6392 16.332 13.7349 16.5117 13.9264 16.6523C14.1258 16.793 14.4089 16.8633 14.7758 16.8633H17.6951C18.2694 16.8633 18.8397 16.9219 19.406 17.0391C19.9803 17.1562 20.4908 17.3398 20.9375 17.5898C21.3921 17.8398 21.759 18.1602 22.0382 18.5508C22.3253 18.9414 22.4689 19.4102 22.4689 19.957C22.4689 20.5195 22.3054 21.0977 21.9784 21.6914C21.6513 22.2852 21.1568 22.8242 20.4948 23.3086C19.8407 23.793 19.0192 24.1875 18.0301 24.4922C17.0411 24.8047 15.8885 24.9609 14.5724 24.9609C13.7748 24.9609 13.037 24.8984 12.359 24.7734C11.6811 24.6562 11.0908 24.4805 10.5883 24.2461C10.0938 24.0195 9.70695 23.7383 9.42778 23.4023C9.14862 23.0742 9.00903 22.7031 9.00903 22.2891C9.00903 21.9453 9.09677 21.6289 9.27225 21.3398C9.4557 21.0586 9.68701 20.7969 9.96618 20.5547C10.2453 20.3203 10.5564 20.1055 10.8994 19.9102C11.2503 19.7148 11.5893 19.5312 11.9164 19.3594ZM13.1487 10.3711C13.1487 10.7305 13.2085 11.0586 13.3282 11.3555C13.4478 11.6445 13.6113 11.8945 13.8187 12.1055C14.034 12.3164 14.2813 12.4805 14.5605 12.5977C14.8396 12.7148 15.1388 12.7734 15.4578 12.7734C15.7609 12.7734 16.0441 12.7227 16.3073 12.6211C16.5785 12.5117 16.8138 12.3594 17.0132 12.1641C17.2205 11.9609 17.3801 11.7188 17.4917 11.4375C17.6114 11.1562 17.6712 10.8398 17.6712 10.4883C17.6712 10.1367 17.6114 9.81641 17.4917 9.52734C17.3721 9.23047 17.2046 8.97656 16.9892 8.76562C16.7819 8.55469 16.5386 8.39453 16.2594 8.28516C15.9802 8.16797 15.6811 8.10938 15.3621 8.10938C15.059 8.10938 14.7718 8.16406 14.5007 8.27344C14.2374 8.375 14.0021 8.52344 13.7948 8.71875C13.5954 8.91406 13.4358 9.15234 13.3162 9.43359C13.2045 9.70703 13.1487 10.0195 13.1487 10.3711Z" fill="url(#paint6_linear_53_115)"/>
<path d="M0 23.4492C0.462621 23.082 0.845479 22.6719 1.14858 22.2188C1.45965 21.7734 1.70691 21.2969 1.89036 20.7891C2.08179 20.2891 2.21739 19.7695 2.29715 19.2305C2.37691 18.6914 2.41679 18.1445 2.41679 17.5898V6.02344H6.56841V16.6172C6.56841 17.4453 6.48865 18.2656 6.32913 19.0781C6.17758 19.8906 5.89841 20.6602 5.49162 21.3867C5.09281 22.1211 4.54246 22.793 3.84055 23.4023C3.14662 24.0195 2.25727 24.543 1.1725 24.9727L0 23.4492ZM4.43876 4.06641C4.07983 4.06641 3.7568 4.01562 3.46965 3.91406C3.18251 3.8125 2.93525 3.67188 2.72787 3.49219C2.52846 3.3125 2.37292 3.10156 2.26126 2.85938C2.14959 2.61719 2.09376 2.35547 2.09376 2.07422C2.09376 1.78516 2.15358 1.51562 2.27322 1.26562C2.40084 1.01562 2.57233 0.796875 2.78769 0.609375C3.00305 0.421875 3.26227 0.273438 3.56537 0.164062C3.86846 0.0546875 4.19948 0 4.55841 0C4.90936 0 5.22841 0.0546875 5.51555 0.164062C5.81067 0.265625 6.05794 0.40625 6.25734 0.585938C6.46472 0.765625 6.62425 0.976562 6.73591 1.21875C6.84758 1.46094 6.90342 1.72266 6.90342 2.00391C6.90342 2.29297 6.83961 2.5625 6.71199 2.8125C6.59234 3.0625 6.42484 3.28125 6.20948 3.46875C5.99413 3.65625 5.7349 3.80469 5.4318 3.91406C5.12871 4.01562 4.79769 4.06641 4.43876 4.06641Z" fill="url(#paint7_linear_53_115)"/>
<defs>
<linearGradient id="paint0_linear_53_115" x1="86.6816" y1="16.2363" x2="91.6708" y2="16.2363" gradientUnits="userSpaceOnUse">
<stop stop-color="#4398EA"/>
<stop offset="1" stop-color="#7492BF"/>
</linearGradient>
<linearGradient id="paint1_linear_53_115" x1="71.1758" y1="12.2344" x2="84.3126" y2="12.2344" gradientUnits="userSpaceOnUse">
<stop stop-color="#4398EA"/>
<stop offset="1" stop-color="#7492BF"/>
</linearGradient>
<linearGradient id="paint2_linear_53_115" x1="63.8296" y1="9.22266" x2="68.6392" y2="9.22266" gradientUnits="userSpaceOnUse">
<stop stop-color="#4398EA"/>
<stop offset="1" stop-color="#7492BF"/>
</linearGradient>
<linearGradient id="paint3_linear_53_115" x1="50.8723" y1="12.2344" x2="61.5086" y2="12.2344" gradientUnits="userSpaceOnUse">
<stop stop-color="#4398EA"/>
<stop offset="1" stop-color="#7492BF"/>
</linearGradient>
<linearGradient id="paint4_linear_53_115" x1="39.937" y1="12.1172" x2="49.6161" y2="12.1172" gradientUnits="userSpaceOnUse">
<stop stop-color="#4398EA"/>
<stop offset="1" stop-color="#7492BF"/>
</linearGradient>
<linearGradient id="paint5_linear_53_115" x1="24.5627" y1="12.2344" x2="37.6996" y2="12.2344" gradientUnits="userSpaceOnUse">
<stop stop-color="#4398EA"/>
<stop offset="1" stop-color="#7492BF"/>
</linearGradient>
<linearGradient id="paint6_linear_53_115" x1="9.00903" y1="15.375" x2="23.4021" y2="15.375" gradientUnits="userSpaceOnUse">
<stop stop-color="#4398EA"/>
<stop offset="1" stop-color="#7492BF"/>
</linearGradient>
<linearGradient id="paint7_linear_53_115" x1="0" y1="12.4863" x2="6.90342" y2="12.4863" gradientUnits="userSpaceOnUse">
<stop stop-color="#4398EA"/>
<stop offset="1" stop-color="#7492BF"/>
</linearGradient>
</defs>
</svg>
