<svg width="35" height="35" viewBox="0 0 35 35" fill="none" xmlns="http://www.w3.org/2000/svg">
<path d="M17.5 34.9999C14.0388 34.9999 10.6554 33.9736 7.77753 32.0507C4.89967 30.1278 2.65665 27.3946 1.33211 24.1969C0.00758095 20.9992 -0.338976 17.4806 0.336267 14.0859C1.01151 10.6912 2.67823 7.57304 5.12565 5.12563C8.40754 1.84374 12.8587 -3.45803e-08 17.5 0C22.1413 3.45803e-08 26.5925 1.84374 29.8744 5.12563C33.1563 8.40751 35 12.8587 35 17.5C35 22.1413 33.1563 26.5925 29.8744 29.8743C28.2531 31.5045 26.3247 32.7968 24.2006 33.6766C22.0765 34.5564 19.7991 35.0062 17.5 34.9999ZM17.5 2.33336C9.13715 2.33336 2.33339 9.13713 2.33339 17.5C2.33339 25.8628 9.13715 32.6666 17.5 32.6666C25.8629 32.6666 32.6666 25.8628 32.6666 17.5C32.6666 9.13713 25.8629 2.33336 17.5 2.33336Z" fill="url(#paint0_linear_268_34)"/>
<path d="M17.5001 23.8167L8.50854 14.825L10.1584 13.1752L17.5001 20.5168L24.8418 13.1752L26.4916 14.825L17.5001 23.8167Z" fill="url(#paint1_linear_268_34)"/>
<defs>
<linearGradient id="paint0_linear_268_34" x1="-4.1581e-07" y1="17.3664" x2="35" y2="17.3664" gradientUnits="userSpaceOnUse">
<stop stop-color="#4398EA"/>
<stop offset="1" stop-color="#7492BF"/>
</linearGradient>
<linearGradient id="paint1_linear_268_34" x1="8.50854" y1="18.4553" x2="26.4916" y2="18.4553" gradientUnits="userSpaceOnUse">
<stop stop-color="#4398EA"/>
<stop offset="1" stop-color="#7492BF"/>
</linearGradient>
</defs>
</svg>
