<svg width="241" height="240" viewBox="0 0 241 240" fill="none" xmlns="http://www.w3.org/2000/svg">
<g filter="url(#filter0_dddd_67_349)">
<circle cx="120.5" cy="87" r="40" fill="white"/>
</g>
<g clip-path="url(#clip0_67_349)">
<path opacity="0.08" d="M104.498 108.556C101.972 108.556 99.9004 106.484 99.9004 103.958V71.4166C99.9004 68.8907 101.972 66.8189 104.498 66.8189H137.498C140.024 66.8189 142.096 68.8907 142.096 71.4166V103.958C142.096 106.484 140.024 108.556 137.498 108.556H104.498Z" fill="url(#paint0_linear_67_349)"/>
<path opacity="0.1" d="M104.498 108.098C102.219 108.098 100.359 106.237 100.359 103.958V71.4167C100.359 69.138 102.219 67.2773 104.498 67.2773H137.498C139.777 67.2773 141.637 69.138 141.637 71.4167V103.958C141.637 106.237 139.777 108.098 137.498 108.098H104.498Z" fill="url(#paint1_linear_67_349)"/>
<path opacity="0.2" d="M104.498 107.625C102.477 107.625 100.831 105.979 100.831 103.958V71.4167C100.831 69.3958 102.477 67.75 104.498 67.75H137.498C139.519 67.75 141.165 69.3958 141.165 71.4167V103.958C141.165 105.979 139.519 107.625 137.498 107.625H104.498Z" fill="url(#paint2_linear_67_349)"/>
<path opacity="0.3" d="M137.498 107.167H104.498C102.726 107.167 101.29 105.73 101.29 103.958V71.4166C101.29 69.6447 102.726 68.2083 104.498 68.2083H137.498C139.27 68.2083 140.706 69.6447 140.706 71.4166V103.958C140.706 105.73 139.27 107.167 137.498 107.167Z" fill="url(#paint3_linear_67_349)"/>
<path opacity="0.45" d="M137.498 106.708H104.498C102.979 106.708 101.748 105.477 101.748 103.958V70.9583C101.748 69.4395 102.979 68.2083 104.498 68.2083H137.498C139.017 68.2083 140.248 69.4395 140.248 70.9583V103.958C140.248 105.477 139.017 106.708 137.498 106.708Z" fill="url(#paint4_linear_67_349)"/>
<path d="M137.498 67.75H104.498C102.979 67.75 101.748 68.9812 101.748 70.5V103.5C101.748 105.019 102.979 106.25 104.498 106.25H137.498C139.017 106.25 140.248 105.019 140.248 103.5V70.5C140.248 68.9812 139.017 67.75 137.498 67.75Z" fill="url(#paint5_linear_67_349)"/>
<path opacity="0.35" d="M104.498 67.75C102.975 67.75 101.748 68.9765 101.748 70.5V71.4167V102.583V103.5C101.748 103.653 101.767 103.798 101.791 103.944C101.813 104.079 101.835 104.218 101.877 104.345C101.881 104.359 101.887 104.374 101.891 104.388C101.937 104.52 101.999 104.639 102.063 104.76C102.129 104.886 102.208 105.006 102.292 105.118C102.377 105.231 102.464 105.335 102.564 105.434C102.766 105.63 102.997 105.807 103.252 105.935C103.38 105.999 103.515 106.048 103.653 106.092C103.536 106.047 103.43 105.984 103.324 105.921C103.32 105.919 103.313 105.923 103.309 105.921C103.295 105.912 103.281 105.901 103.266 105.892C103.211 105.857 103.16 105.817 103.109 105.777C103.06 105.74 103.011 105.704 102.965 105.663C102.884 105.589 102.806 105.504 102.736 105.419C102.687 105.36 102.636 105.298 102.593 105.233C102.582 105.215 102.575 105.194 102.564 105.176C102.535 105.129 102.505 105.082 102.479 105.033C102.432 104.943 102.384 104.842 102.35 104.746C102.346 104.736 102.339 104.728 102.335 104.717C102.321 104.675 102.319 104.632 102.307 104.589C102.293 104.54 102.274 104.495 102.264 104.445C102.23 104.289 102.206 104.125 102.206 103.958V103.042V71.875V70.9583C102.206 69.6833 103.223 68.6667 104.498 68.6667H105.415H136.581H137.498C138.773 68.6667 139.79 69.6833 139.79 70.9583V71.875V103.042V103.958C139.79 104.125 139.766 104.289 139.732 104.445C139.712 104.54 139.692 104.628 139.661 104.717C139.657 104.728 139.65 104.736 139.646 104.746C139.618 104.826 139.583 104.915 139.546 104.99C139.527 105.028 139.51 105.067 139.489 105.104C139.464 105.149 139.431 105.19 139.403 105.233C139.36 105.298 139.309 105.36 139.26 105.419C139.194 105.499 139.121 105.578 139.045 105.648C139.04 105.653 139.036 105.658 139.031 105.663C138.967 105.72 138.9 105.77 138.83 105.82C138.783 105.854 138.736 105.891 138.687 105.921C138.683 105.923 138.676 105.919 138.673 105.921C138.566 105.984 138.461 106.047 138.343 106.092C138.481 106.048 138.616 105.999 138.744 105.935C138.999 105.807 139.23 105.63 139.432 105.434C139.532 105.335 139.619 105.231 139.704 105.118C139.788 105.006 139.867 104.886 139.933 104.76C139.997 104.639 140.06 104.52 140.105 104.388C140.11 104.374 140.115 104.359 140.119 104.345C140.161 104.218 140.183 104.079 140.205 103.944C140.229 103.798 140.248 103.653 140.248 103.5V102.583V71.4167V70.5C140.248 68.9765 139.022 67.75 137.498 67.75H104.498Z" fill="url(#paint6_linear_67_349)"/>
<path opacity="0.213" d="M104.498 106.25C102.975 106.25 101.748 105.024 101.748 103.5V102.583V71.4167V70.5C101.748 70.3466 101.767 70.2018 101.791 70.056C101.813 69.9205 101.835 69.7824 101.877 69.655C101.881 69.6411 101.887 69.6258 101.891 69.612C101.937 69.4801 101.999 69.3611 102.063 69.2396C102.129 69.1143 102.208 68.9941 102.292 68.8816C102.377 68.769 102.464 68.6645 102.564 68.5664C102.766 68.3703 102.997 68.1931 103.252 68.0651C103.38 68.0012 103.515 67.952 103.653 67.9076C103.536 67.9535 103.43 68.0159 103.324 68.0795C103.32 68.0815 103.313 68.0774 103.309 68.0795C103.295 68.0883 103.281 68.099 103.266 68.1081C103.211 68.1433 103.16 68.1831 103.109 68.2227C103.06 68.2597 103.011 68.2965 102.965 68.3373C102.884 68.4113 102.806 68.4956 102.736 68.5808C102.687 68.6405 102.636 68.7024 102.593 68.767C102.582 68.7846 102.575 68.8063 102.564 68.8243C102.535 68.8715 102.505 68.918 102.479 68.9675C102.432 69.0567 102.384 69.158 102.35 69.2539C102.346 69.2639 102.339 69.2725 102.335 69.2826C102.321 69.3247 102.319 69.3682 102.307 69.4115C102.293 69.4604 102.274 69.5046 102.264 69.5547C102.23 69.7113 102.206 69.8747 102.206 70.0417V70.9584V102.125V103.042C102.206 104.317 103.223 105.333 104.498 105.333H105.415H136.581H137.498C138.773 105.333 139.79 104.317 139.79 103.042V102.125V70.9584V70.0417C139.79 69.8747 139.766 69.7113 139.732 69.5547C139.712 69.4599 139.692 69.3725 139.661 69.2826C139.657 69.2725 139.65 69.2639 139.646 69.2539C139.618 69.1743 139.583 69.0855 139.546 69.0105C139.527 68.9725 139.51 68.9326 139.489 68.8959C139.464 68.8513 139.431 68.8095 139.403 68.767C139.36 68.7024 139.309 68.6405 139.26 68.5808C139.194 68.5008 139.121 68.4217 139.045 68.3516C139.04 68.3469 139.036 68.3419 139.031 68.3373C138.967 68.2797 138.9 68.2298 138.83 68.1797C138.783 68.1462 138.736 68.1094 138.687 68.0795C138.683 68.0774 138.676 68.0815 138.673 68.0795C138.566 68.0159 138.461 67.9535 138.343 67.9076C138.481 67.952 138.616 68.0012 138.744 68.0651C138.999 68.1931 139.23 68.3703 139.432 68.5664C139.532 68.6645 139.619 68.769 139.704 68.8816C139.788 68.9941 139.867 69.1143 139.933 69.2396C139.997 69.3611 140.06 69.4801 140.105 69.612C140.11 69.6261 140.115 69.6408 140.119 69.655C140.161 69.7824 140.183 69.9205 140.205 70.056C140.229 70.2018 140.248 70.3466 140.248 70.5V71.4167V102.583V103.5C140.248 105.024 139.022 106.25 137.498 106.25H104.498Z" fill="url(#paint7_linear_67_349)"/>
<path d="M107.514 71.9137C106.775 71.901 106.132 72.1791 105.797 72.9953C105.232 74.3706 106.64 75.7122 107.144 76.409C107.497 76.8978 107.948 77.4468 108.201 77.9968C108.367 78.3579 108.396 78.7218 108.538 79.104C108.887 80.0461 109.191 81.0684 109.643 81.9394C109.872 82.3799 110.124 82.8459 110.413 83.239C110.59 83.4807 110.894 83.5874 110.942 83.9604C110.645 84.3763 110.628 85.0192 110.462 85.5455C109.71 87.9149 109.993 90.8607 111.086 92.6145C111.422 93.1525 112.213 94.3072 113.299 93.8639C114.249 93.4772 114.037 92.2779 114.309 91.2191C114.37 90.9792 114.332 90.8032 114.452 90.6427V90.691C114.741 91.2683 115.03 91.8438 115.319 92.4211C115.96 93.4526 117.096 94.5324 118.064 95.2602C118.564 95.6378 118.958 96.2899 119.603 96.5097V96.4613H119.555C119.43 96.2661 119.235 96.184 119.075 96.0272C118.698 95.6587 118.278 95.2 117.967 94.7777C117.091 93.5885 116.318 92.287 115.612 90.9318C115.274 90.2843 114.981 89.5711 114.7 88.9126C114.59 88.659 114.592 88.2742 114.364 88.1428C114.053 88.6253 113.593 89.0156 113.353 89.5856C112.969 90.4967 112.919 91.6067 112.777 92.7585C112.692 92.7887 112.731 92.7695 112.68 92.8068C112.011 92.6454 111.776 91.9559 111.527 91.3641C110.897 89.8684 110.78 87.4597 111.333 85.7379C111.477 85.2928 112.124 83.8892 111.862 83.477C111.737 83.0666 111.324 82.8304 111.093 82.5167C110.806 82.129 110.521 81.6183 110.323 81.1705C109.808 80.0041 109.567 78.6944 109.024 77.5134C108.765 76.9497 108.327 76.3788 107.967 75.8781C107.569 75.3227 107.121 74.9141 106.812 74.2429C106.701 74.004 106.554 73.6236 106.717 73.3792C106.769 73.2142 106.841 73.1439 107.004 73.0901C107.283 72.8749 108.06 73.1622 108.35 73.2826C109.122 73.6027 109.765 73.9073 110.419 74.3396C110.732 74.5475 111.051 74.9497 111.429 75.061H111.861C112.538 75.2169 113.297 75.1102 113.93 75.3017C115.048 75.6419 116.05 76.17 116.96 76.7446C119.733 78.4947 121.998 80.9863 123.549 83.9585C123.799 84.4373 123.906 84.8933 124.126 85.4013C124.569 86.4246 125.128 87.4771 125.569 88.4776C126.009 89.4762 126.438 90.484 127.06 91.3148C127.387 91.7517 128.651 91.987 129.224 92.2268C129.626 92.3974 130.286 92.5743 130.667 92.8032C131.395 93.2428 132.101 93.7654 132.784 94.246C133.125 94.4868 134.175 95.013 134.227 95.448C132.535 95.4024 131.243 95.5593 130.139 96.0244C129.825 96.1567 129.324 96.1612 129.273 96.5552C129.445 96.7358 129.473 97.0057 129.61 97.2283C129.874 97.6551 130.318 98.226 130.715 98.5261C131.15 98.8535 131.596 99.2046 132.062 99.4882C132.891 99.9926 133.814 100.281 134.611 100.786C135.08 101.084 135.547 101.458 136.005 101.795C136.231 101.961 136.384 102.219 136.678 102.323V102.276C136.523 102.079 136.485 101.807 136.343 101.601L135.718 100.977C135.107 100.165 134.33 99.4528 133.505 98.8609C132.848 98.3884 131.374 97.7519 131.099 96.9858C131.083 96.9694 131.068 96.9539 131.051 96.9375C131.517 96.8846 132.065 96.7167 132.496 96.6018C133.219 96.4076 133.864 96.4568 134.61 96.2644C134.946 96.1686 135.284 96.0729 135.62 95.9771V95.7847C135.243 95.397 134.973 94.8854 134.561 94.5352C133.484 93.614 132.309 92.702 131.098 91.9369C130.427 91.5128 129.599 91.2392 128.888 90.8798C128.649 90.7595 128.228 90.6956 128.07 90.494C127.696 90.018 127.491 89.4152 127.203 88.8606C126.6 87.6978 126.008 86.4283 125.473 85.2035C125.108 84.3699 124.869 83.5464 124.414 82.7985C122.23 79.2088 119.88 77.041 116.238 74.9115C115.463 74.4582 114.531 74.2813 113.545 74.0478C113.016 74.0158 112.486 73.983 111.957 73.9511C111.634 73.8161 111.298 73.4212 110.994 73.2297C110.24 72.7536 108.749 71.9274 107.518 71.9064M112.726 77.124C112.373 77.117 112.123 77.1632 111.86 77.2207V77.269H111.908C112.076 77.6146 112.373 77.8372 112.581 78.1354C112.741 78.4719 112.901 78.8075 113.062 79.1441C113.077 79.1286 113.093 79.114 113.11 79.0977C113.408 78.8879 113.546 78.5514 113.544 78.0388C113.425 77.913 113.406 77.757 113.303 77.6065C113.166 77.4068 112.9 77.2919 112.727 77.1241L112.726 77.124Z" fill="#DEF2FE"/>
<path d="M107.514 71.9137C106.775 71.901 106.132 72.1791 105.797 72.9953C105.232 74.3706 106.64 75.7122 107.144 76.409C107.497 76.8978 107.948 77.4468 108.201 77.9968C108.367 78.3579 108.396 78.7218 108.538 79.104C108.887 80.0461 109.191 81.0684 109.643 81.9394C109.872 82.3799 110.124 82.8459 110.413 83.239C110.59 83.4807 110.894 83.5874 110.942 83.9604C110.645 84.3763 110.628 85.0192 110.462 85.5455C109.71 87.9149 109.993 90.8607 111.086 92.6145C111.422 93.1525 112.213 94.3072 113.299 93.8639C114.249 93.4772 114.037 92.2779 114.309 91.2191C114.37 90.9792 114.332 90.8032 114.452 90.6427V90.691C114.741 91.2683 115.03 91.8438 115.319 92.4211C115.96 93.4526 117.096 94.5324 118.064 95.2602C118.564 95.6378 118.958 96.2899 119.603 96.5097V96.4613H119.555C119.43 96.2661 119.235 96.184 119.075 96.0272C118.698 95.6587 118.278 95.2 117.967 94.7777C117.091 93.5885 116.318 92.287 115.612 90.9318C115.274 90.2843 114.981 89.5711 114.7 88.9126C114.59 88.659 114.592 88.2742 114.364 88.1428C114.053 88.6253 113.593 89.0156 113.353 89.5856C112.969 90.4967 112.919 91.6067 112.777 92.7585C112.692 92.7887 112.731 92.7695 112.68 92.8068C112.011 92.6454 111.776 91.9559 111.527 91.3641C110.897 89.8684 110.78 87.4597 111.333 85.7379C111.477 85.2928 112.124 83.8892 111.862 83.477C111.737 83.0666 111.324 82.8304 111.093 82.5167C110.806 82.129 110.521 81.6183 110.323 81.1705C109.808 80.0041 109.567 78.6944 109.024 77.5134C108.765 76.9497 108.327 76.3788 107.967 75.8781C107.569 75.3227 107.121 74.9141 106.812 74.2429C106.701 74.004 106.554 73.6236 106.717 73.3792C106.769 73.2142 106.841 73.1439 107.004 73.0901C107.283 72.8749 108.06 73.1622 108.35 73.2826C109.122 73.6027 109.765 73.9073 110.419 74.3396C110.732 74.5475 111.051 74.9497 111.429 75.061H111.861C112.538 75.2169 113.297 75.1102 113.93 75.3017C115.048 75.6419 116.05 76.17 116.96 76.7446C119.733 78.4947 121.998 80.9863 123.549 83.9585C123.799 84.4373 123.906 84.8933 124.126 85.4013C124.569 86.4246 125.128 87.4771 125.569 88.4776C126.009 89.4762 126.438 90.484 127.06 91.3148C127.387 91.7517 128.651 91.987 129.224 92.2268C129.626 92.3974 130.286 92.5743 130.667 92.8032C131.395 93.2428 132.101 93.7654 132.784 94.246C133.125 94.4868 134.175 95.013 134.227 95.448C132.535 95.4024 131.243 95.5593 130.139 96.0244C129.825 96.1567 129.324 96.1612 129.273 96.5552C129.445 96.7358 129.473 97.0057 129.61 97.2283C129.874 97.6551 130.318 98.226 130.715 98.5261C131.15 98.8535 131.596 99.2046 132.062 99.4882C132.891 99.9926 133.814 100.281 134.611 100.786C135.08 101.084 135.547 101.458 136.005 101.795C136.231 101.961 136.384 102.219 136.678 102.323V102.276C136.523 102.079 136.485 101.807 136.343 101.601L135.718 100.977C135.107 100.165 134.33 99.4528 133.505 98.8609C132.848 98.3884 131.374 97.7519 131.099 96.9858C131.083 96.9694 131.068 96.9539 131.051 96.9375C131.517 96.8846 132.065 96.7167 132.496 96.6018C133.219 96.4076 133.864 96.4568 134.61 96.2644C134.946 96.1686 135.284 96.0729 135.62 95.9771V95.7847C135.243 95.397 134.973 94.8854 134.561 94.5352C133.484 93.614 132.309 92.702 131.098 91.9369C130.427 91.5128 129.599 91.2392 128.888 90.8798C128.649 90.7595 128.228 90.6956 128.07 90.494C127.696 90.018 127.491 89.4152 127.203 88.8606C126.6 87.6978 126.008 86.4283 125.473 85.2035C125.108 84.3699 124.869 83.5464 124.414 82.7985C122.23 79.2088 119.88 77.041 116.238 74.9115C115.463 74.4582 114.531 74.2813 113.545 74.0478C113.016 74.0158 112.486 73.983 111.957 73.9511C111.634 73.8161 111.298 73.4212 110.994 73.2297C110.24 72.7536 108.749 71.9274 107.518 71.9064M112.726 77.124C112.373 77.117 112.123 77.1632 111.86 77.2207V77.269H111.908C112.076 77.6146 112.373 77.8372 112.581 78.1354C112.741 78.4719 112.901 78.8075 113.062 79.1441C113.077 79.1286 113.093 79.114 113.11 79.0977C113.408 78.8879 113.546 78.5514 113.544 78.0388C113.425 77.913 113.406 77.757 113.303 77.6065C113.166 77.4068 112.9 77.2919 112.727 77.1241L112.726 77.124Z" stroke="#DEF2FE" stroke-width="0.795935" stroke-linecap="square" stroke-linejoin="bevel"/>
</g>
<defs>
<filter id="filter0_dddd_67_349" x="0.5" y="0" width="240" height="240" filterUnits="userSpaceOnUse" color-interpolation-filters="sRGB">
<feFlood flood-opacity="0" result="BackgroundImageFix"/>
<feColorMatrix in="SourceAlpha" type="matrix" values="0 0 0 0 0 0 0 0 0 0 0 0 0 0 0 0 0 0 127 0" result="hardAlpha"/>
<feOffset dy="1.4945"/>
<feGaussianBlur stdDeviation="1.81152"/>
<feColorMatrix type="matrix" values="0 0 0 0 0 0 0 0 0 0 0 0 0 0 0 0 0 0 0.0243888 0"/>
<feBlend mode="normal" in2="BackgroundImageFix" result="effect1_dropShadow_67_349"/>
<feColorMatrix in="SourceAlpha" type="matrix" values="0 0 0 0 0 0 0 0 0 0 0 0 0 0 0 0 0 0 127 0" result="hardAlpha"/>
<feOffset dy="4.13211"/>
<feGaussianBlur stdDeviation="5.00862"/>
<feColorMatrix type="matrix" values="0 0 0 0 0 0 0 0 0 0 0 0 0 0 0 0 0 0 0.035 0"/>
<feBlend mode="normal" in2="effect1_dropShadow_67_349" result="effect2_dropShadow_67_349"/>
<feColorMatrix in="SourceAlpha" type="matrix" values="0 0 0 0 0 0 0 0 0 0 0 0 0 0 0 0 0 0 127 0" result="hardAlpha"/>
<feOffset dy="9.94853"/>
<feGaussianBlur stdDeviation="12.0588"/>
<feColorMatrix type="matrix" values="0 0 0 0 0 0 0 0 0 0 0 0 0 0 0 0 0 0 0.0456112 0"/>
<feBlend mode="normal" in2="effect2_dropShadow_67_349" result="effect3_dropShadow_67_349"/>
<feColorMatrix in="SourceAlpha" type="matrix" values="0 0 0 0 0 0 0 0 0 0 0 0 0 0 0 0 0 0 127 0" result="hardAlpha"/>
<feOffset dy="33"/>
<feGaussianBlur stdDeviation="40"/>
<feColorMatrix type="matrix" values="0 0 0 0 0 0 0 0 0 0 0 0 0 0 0 0 0 0 0.07 0"/>
<feBlend mode="normal" in2="effect3_dropShadow_67_349" result="effect4_dropShadow_67_349"/>
<feBlend mode="normal" in="SourceGraphic" in2="effect4_dropShadow_67_349" result="shape"/>
</filter>
<linearGradient id="paint0_linear_67_349" x1="113.608" y1="107.106" x2="113.608" y2="68.0976" gradientUnits="userSpaceOnUse">
<stop/>
<stop offset="1" stop-opacity="0.588235"/>
</linearGradient>
<linearGradient id="paint1_linear_67_349" x1="113.608" y1="107.106" x2="113.608" y2="68.0977" gradientUnits="userSpaceOnUse">
<stop/>
<stop offset="1" stop-opacity="0.588235"/>
</linearGradient>
<linearGradient id="paint2_linear_67_349" x1="113.608" y1="107.106" x2="113.608" y2="68.0977" gradientUnits="userSpaceOnUse">
<stop/>
<stop offset="1" stop-opacity="0.588235"/>
</linearGradient>
<linearGradient id="paint3_linear_67_349" x1="113.608" y1="107.106" x2="113.608" y2="68.0976" gradientUnits="userSpaceOnUse">
<stop/>
<stop offset="1" stop-opacity="0.588235"/>
</linearGradient>
<linearGradient id="paint4_linear_67_349" x1="113.78" y1="106.648" x2="113.78" y2="68.0989" gradientUnits="userSpaceOnUse">
<stop/>
<stop offset="1" stop-opacity="0.588235"/>
</linearGradient>
<linearGradient id="paint5_linear_67_349" x1="120.998" y1="106.25" x2="120.998" y2="67.7444" gradientUnits="userSpaceOnUse">
<stop stop-color="#233D65"/>
<stop offset="1" stop-color="#396AA1"/>
</linearGradient>
<linearGradient id="paint6_linear_67_349" x1="115.662" y1="67.75" x2="115.662" y2="94.2844" gradientUnits="userSpaceOnUse">
<stop stop-color="#FEFEFE"/>
<stop offset="1" stop-color="#FEFEFE" stop-opacity="0"/>
</linearGradient>
<linearGradient id="paint7_linear_67_349" x1="101.748" y1="87.0788" x2="140.248" y2="87.0788" gradientUnits="userSpaceOnUse">
<stop stop-color="#06B5FF"/>
<stop offset="1" stop-color="#00FFFF" stop-opacity="0"/>
</linearGradient>
<clipPath id="clip0_67_349">
<rect width="44" height="44" fill="white" transform="translate(98.998 65)"/>
</clipPath>
</defs>
</svg>
