<svg width="70" height="70" viewBox="0 0 70 70" fill="none" xmlns="http://www.w3.org/2000/svg">
<circle cx="35" cy="35" r="35" fill="white"/>
<g clip-path="url(#clip0_313_127)">
<path opacity="0.08" d="M20.9983 53.8615C18.7881 53.8615 16.9753 52.0487 16.9753 49.8385V21.3645C16.9753 19.1544 18.7881 17.3416 20.9983 17.3416H49.8733C52.0835 17.3416 53.8962 19.1544 53.8962 21.3645V49.8385C53.8962 52.0487 52.0835 53.8615 49.8733 53.8615H20.9983Z" fill="url(#paint0_linear_313_127)"/>
<path opacity="0.1" d="M20.9984 53.4604C19.0045 53.4604 17.3765 51.8324 17.3765 49.8385V21.3646C17.3765 19.3708 19.0045 17.7427 20.9984 17.7427H49.8734C51.8672 17.7427 53.4953 19.3708 53.4953 21.3646V49.8385C53.4953 51.8324 51.8672 53.4604 49.8734 53.4604H20.9984Z" fill="url(#paint1_linear_313_127)"/>
<path opacity="0.2" d="M20.9984 53.0469C19.2301 53.0469 17.79 51.6068 17.79 49.8385V21.3646C17.79 19.5963 19.2301 18.1563 20.9984 18.1563H49.8734C51.6416 18.1563 53.0817 19.5963 53.0817 21.3646V49.8385C53.0817 51.6068 51.6416 53.0469 49.8734 53.0469H20.9984Z" fill="url(#paint2_linear_313_127)"/>
<path opacity="0.3" d="M49.8732 52.6458H20.9982C19.4478 52.6458 18.1909 51.3889 18.1909 49.8385V21.3646C18.1909 19.8141 19.4478 18.5573 20.9982 18.5573H49.8732C51.4236 18.5573 52.6805 19.8141 52.6805 21.3646V49.8385C52.6805 51.3889 51.4236 52.6458 49.8732 52.6458Z" fill="url(#paint3_linear_313_127)"/>
<path opacity="0.45" d="M49.8733 52.2448H20.9983C19.6694 52.2448 18.592 51.1674 18.592 49.8385V20.9635C18.592 19.6346 19.6694 18.5573 20.9983 18.5573H49.8733C51.2022 18.5573 52.2795 19.6346 52.2795 20.9635V49.8385C52.2795 51.1674 51.2022 52.2448 49.8733 52.2448Z" fill="url(#paint4_linear_313_127)"/>
<path d="M49.8733 18.1562H20.9983C19.6694 18.1562 18.592 19.2336 18.592 20.5625V49.4375C18.592 50.7664 19.6694 51.8438 20.9983 51.8438H49.8733C51.2022 51.8438 52.2795 50.7664 52.2795 49.4375V20.5625C52.2795 19.2336 51.2022 18.1562 49.8733 18.1562Z" fill="url(#paint5_linear_313_127)"/>
<path opacity="0.35" d="M20.9983 18.1562C19.6652 18.1562 18.592 19.2294 18.592 20.5625V21.3646V48.6354V49.4375C18.592 49.5717 18.6086 49.6985 18.6296 49.826C18.6492 49.9446 18.6686 50.0654 18.7048 50.1769C18.7088 50.1891 18.7132 50.2024 18.7174 50.2145C18.757 50.3299 18.8116 50.4341 18.8678 50.5404C18.9257 50.6501 18.9943 50.7552 19.0683 50.8537C19.1422 50.9522 19.2182 51.0436 19.3064 51.1294C19.4828 51.3011 19.6845 51.4561 19.908 51.568C20.0197 51.624 20.1379 51.6671 20.2589 51.7059C20.1561 51.6657 20.0637 51.6111 19.9706 51.5555C19.9676 51.5537 19.9611 51.5573 19.9581 51.5555C19.9453 51.5478 19.9331 51.5385 19.9205 51.5304C19.8722 51.4997 19.8278 51.4649 19.7826 51.4302C19.7401 51.3978 19.6971 51.3656 19.6573 51.3299C19.586 51.2652 19.518 51.1914 19.4568 51.1169C19.4136 51.0646 19.3692 51.0105 19.3315 50.9539C19.3214 50.9385 19.316 50.9195 19.3064 50.9038C19.2804 50.8625 19.2542 50.8218 19.2312 50.7785C19.1907 50.7004 19.1487 50.6118 19.1184 50.5278C19.1152 50.5191 19.1089 50.5116 19.1059 50.5028C19.0931 50.4659 19.0915 50.4278 19.0808 50.39C19.0686 50.3472 19.0526 50.3085 19.0432 50.2646C19.014 50.1277 18.9931 49.9846 18.9931 49.8385V49.0365V21.7656V20.9635C18.9931 19.8479 19.8827 18.9583 20.9983 18.9583H21.8004H49.0712H49.8733C50.9889 18.9583 51.8785 19.8479 51.8785 20.9635V21.7656V49.0365V49.8385C51.8785 49.9846 51.8576 50.1277 51.8284 50.2646C51.8107 50.3476 51.7929 50.4241 51.7657 50.5028C51.7626 50.5116 51.7564 50.5191 51.7532 50.5278C51.728 50.5975 51.6977 50.6752 51.6654 50.7409C51.6488 50.7741 51.6337 50.809 51.6153 50.8411C51.5934 50.8801 51.5645 50.9167 51.5401 50.9539C51.5024 51.0105 51.4579 51.0646 51.4148 51.1169C51.3574 51.1868 51.2932 51.256 51.2268 51.3174C51.2223 51.3215 51.2188 51.3259 51.2143 51.3299C51.1588 51.3803 51.0999 51.4239 51.0388 51.4678C50.9977 51.4971 50.9569 51.5293 50.9135 51.5555C50.9105 51.5573 50.9039 51.5537 50.901 51.5555C50.8079 51.6111 50.7155 51.6657 50.6127 51.7059C50.7336 51.6671 50.8519 51.624 50.9636 51.568C51.187 51.4561 51.3887 51.3011 51.5652 51.1294C51.6534 51.0436 51.7294 50.9522 51.8033 50.8537C51.8772 50.7552 51.9458 50.6501 52.0038 50.5404C52.06 50.4341 52.1146 50.3299 52.1542 50.2145C52.1584 50.2022 52.1628 50.1894 52.1667 50.1769C52.203 50.0654 52.2224 49.9446 52.2419 49.826C52.263 49.6985 52.2795 49.5717 52.2795 49.4375V48.6354V21.3646V20.5625C52.2795 19.2294 51.2064 18.1562 49.8733 18.1562H20.9983Z" fill="url(#paint6_linear_313_127)"/>
<path opacity="0.213" d="M20.9983 51.8438C19.6652 51.8438 18.592 50.7706 18.592 49.4375V48.6354V21.3646V20.5625C18.592 20.4283 18.6086 20.3016 18.6296 20.174C18.6492 20.0555 18.6686 19.9346 18.7048 19.8231C18.7088 19.8109 18.7132 19.7976 18.7174 19.7855C18.757 19.6701 18.8116 19.566 18.8678 19.4597C18.9257 19.35 18.9943 19.2449 19.0683 19.1463C19.1422 19.0478 19.2182 18.9565 19.3064 18.8706C19.4828 18.699 19.6845 18.544 19.908 18.432C20.0197 18.376 20.1379 18.333 20.2589 18.2941C20.1561 18.3343 20.0637 18.3889 19.9706 18.4445C19.9676 18.4463 19.9611 18.4427 19.9581 18.4445C19.9453 18.4523 19.9331 18.4616 19.9205 18.4696C19.8722 18.5003 19.8278 18.5352 19.7826 18.5698C19.7401 18.6022 19.6971 18.6345 19.6573 18.6701C19.586 18.7348 19.518 18.8086 19.4568 18.8832C19.4136 18.9354 19.3692 18.9895 19.3315 19.0461C19.3214 19.0615 19.316 19.0805 19.3064 19.0962C19.2804 19.1375 19.2542 19.1782 19.2312 19.2215C19.1907 19.2996 19.1487 19.3883 19.1184 19.4722C19.1152 19.4809 19.1089 19.4885 19.1059 19.4973C19.0931 19.5341 19.0915 19.5722 19.0808 19.61C19.0686 19.6528 19.0526 19.6915 19.0432 19.7354C19.014 19.8723 18.9931 20.0154 18.9931 20.1615V20.9636V48.2344V49.0365C18.9931 50.1521 19.8827 51.0417 20.9983 51.0417H21.8004H49.0712H49.8733C50.9889 51.0417 51.8785 50.1521 51.8785 49.0365V48.2344V20.9636V20.1615C51.8785 20.0154 51.8576 19.8723 51.8284 19.7354C51.8107 19.6524 51.7929 19.5759 51.7657 19.4973C51.7626 19.4885 51.7564 19.4809 51.7532 19.4722C51.728 19.4025 51.6977 19.3248 51.6654 19.2591C51.6488 19.2259 51.6337 19.191 51.6153 19.1589C51.5934 19.1199 51.5645 19.0833 51.5401 19.0461C51.5024 18.9895 51.4579 18.9354 51.4148 18.8832C51.3574 18.8132 51.2932 18.744 51.2268 18.6826C51.2223 18.6785 51.2188 18.6742 51.2143 18.6701C51.1588 18.6198 51.0999 18.5761 51.0388 18.5322C50.9977 18.5029 50.9569 18.4707 50.9135 18.4445C50.9105 18.4427 50.9039 18.4463 50.901 18.4445C50.8079 18.3889 50.7155 18.3343 50.6127 18.2941C50.7336 18.3329 50.8519 18.376 50.9636 18.432C51.187 18.544 51.3887 18.699 51.5652 18.8706C51.6534 18.9565 51.7294 19.0478 51.8033 19.1463C51.8772 19.2449 51.9458 19.35 52.0038 19.4597C52.06 19.566 52.1146 19.6701 52.1542 19.7855C52.1584 19.7978 52.1628 19.8107 52.1667 19.8231C52.203 19.9346 52.2224 20.0555 52.2419 20.174C52.263 20.3016 52.2795 20.4283 52.2795 20.5625V21.3646V48.6354V49.4375C52.2795 50.7706 51.2064 51.8438 49.8733 51.8438H20.9983Z" fill="url(#paint7_linear_313_127)"/>
<path d="M23.6371 21.7994C22.9907 21.7883 22.4281 22.0316 22.1344 22.7459C21.6404 23.9493 22.8726 25.1231 23.3131 25.7328C23.6219 26.1605 24.0169 26.6409 24.238 27.1221C24.3832 27.4381 24.4087 27.7566 24.5332 28.0909C24.8389 28.9153 25.1046 29.8098 25.5004 30.5719C25.7007 30.9574 25.921 31.3652 26.1739 31.7091C26.3287 31.9206 26.5945 32.0139 26.6368 32.3403C26.3766 32.7042 26.3623 33.2668 26.2162 33.7272C25.5587 35.8005 25.8061 38.3781 26.7629 39.9126C27.0565 40.3834 27.7484 41.3937 28.6988 41.0059C29.5304 40.6675 29.3452 39.6181 29.583 38.6917C29.6366 38.4818 29.6029 38.3278 29.7083 38.1873V38.2296C29.9605 38.7347 30.2135 39.2383 30.4664 39.7434C31.0274 40.646 32.0217 41.5908 32.8684 42.2276C33.3057 42.558 33.6505 43.1286 34.2155 43.3209V43.2786H34.1732C34.0638 43.1078 33.8931 43.036 33.7526 42.8987C33.423 42.5763 33.0559 42.1749 32.7838 41.8055C32.0169 40.7649 31.3402 39.6261 30.7226 38.4403C30.4273 37.8737 30.1712 37.2496 29.9246 36.6735C29.8288 36.4516 29.8304 36.1148 29.6309 35.9999C29.3588 36.4221 28.9566 36.7636 28.7467 37.2624C28.4099 38.0596 28.3668 39.0308 28.2424 40.0387C28.1681 40.0651 28.2018 40.0483 28.1578 40.0809C27.572 39.9397 27.3661 39.3364 27.1483 38.8185C26.5969 37.5098 26.4947 35.4022 26.9791 33.8956C27.1044 33.5061 27.671 32.278 27.442 31.9173C27.3326 31.5582 26.9711 31.3515 26.7684 31.077C26.5179 30.7379 26.2681 30.291 26.0949 29.8992C25.644 28.8785 25.4334 27.7326 24.9586 26.6992C24.7319 26.206 24.3489 25.7064 24.0337 25.2683C23.6849 24.7823 23.2931 24.4248 23.0226 23.8375C22.926 23.6284 22.7975 23.2956 22.9396 23.0818C22.9851 22.9373 23.0481 22.8759 23.191 22.8288C23.4352 22.6405 24.1151 22.8919 24.3688 22.9972C25.0439 23.2773 25.6065 23.5438 26.1787 23.9221C26.4532 24.104 26.7317 24.456 27.0629 24.5533H27.4412C28.0333 24.6898 28.6972 24.5964 29.251 24.764C30.2294 25.0616 31.1064 25.5237 31.9028 26.0264C34.3288 27.5578 36.311 29.738 37.6676 32.3387C37.8863 32.7576 37.9805 33.1566 38.1728 33.6011C38.5606 34.4965 39.0498 35.4174 39.4352 36.2928C39.8207 37.1666 40.1957 38.0484 40.74 38.7754C41.0265 39.1577 42.1317 39.3636 42.6336 39.5734C42.9856 39.7226 43.5625 39.8775 43.8961 40.0778C44.5329 40.4624 45.1506 40.9197 45.7483 41.3402C46.0467 41.5509 46.9652 42.0113 47.0107 42.392C45.5304 42.352 44.4004 42.4893 43.4341 42.8963C43.1595 43.012 42.7206 43.016 42.6759 43.3608C42.8268 43.5188 42.8515 43.755 42.9712 43.9497C43.2018 44.3232 43.5905 44.8227 43.9384 45.0853C44.3182 45.3718 44.7093 45.679 45.1171 45.9272C45.8416 46.3685 46.6492 46.6206 47.3467 47.0627C47.7577 47.3237 48.1662 47.6509 48.5668 47.9453C48.7647 48.0906 48.898 48.3164 49.1558 48.4074V48.3668C49.0201 48.1944 48.9866 47.9558 48.8621 47.7762L48.3155 47.2296C47.7808 46.5194 47.1009 45.8961 46.3795 45.3782C45.8041 44.9648 44.5146 44.4078 44.2744 43.7375C44.26 43.7232 44.2465 43.7096 44.2321 43.6952C44.6399 43.649 45.1195 43.5021 45.4961 43.4016C46.1289 43.2316 46.6931 43.2747 47.3459 43.1063C47.6404 43.0225 47.9356 42.9387 48.2301 42.8549V42.6865C47.8997 42.3474 47.6635 41.8997 47.3036 41.5932C46.3612 40.7872 45.3325 39.9892 44.2736 39.3197C43.6862 38.9486 42.9616 38.7092 42.3392 38.3948C42.1301 38.2895 41.7622 38.2336 41.6234 38.0572C41.2962 37.6407 41.1174 37.1132 40.8653 36.628C40.337 35.6106 39.8191 34.4997 39.3514 33.428C39.0322 32.6986 38.8224 31.978 38.4249 31.3237C36.5137 28.1827 34.4572 26.2858 31.2708 24.4225C30.5925 24.0259 29.7769 23.8711 28.9143 23.6668C28.4514 23.6388 27.9878 23.6101 27.5249 23.5822C27.2424 23.4641 26.948 23.1185 26.6823 22.951C26.0223 22.5344 24.7175 21.8114 23.6402 21.793M28.1977 26.3584C27.8888 26.3523 27.6702 26.3928 27.4395 26.443V26.4853H27.4818C27.6287 26.7878 27.8888 26.9825 28.0708 27.2434C28.2112 27.5379 28.3509 27.8315 28.4913 28.126C28.5048 28.1125 28.5192 28.0997 28.5336 28.0854C28.7946 27.9019 28.9151 27.6074 28.9135 27.1589C28.8089 27.0488 28.793 26.9123 28.7028 26.7807C28.5823 26.6059 28.3501 26.5053 28.1985 26.3585L28.1977 26.3584Z" fill="#DEF2FE"/>
<path d="M23.6371 21.7994C22.9907 21.7883 22.4281 22.0316 22.1344 22.7459C21.6404 23.9493 22.8726 25.1231 23.3131 25.7328C23.6219 26.1605 24.0169 26.6409 24.238 27.1221C24.3832 27.4381 24.4087 27.7566 24.5332 28.0909C24.8389 28.9153 25.1046 29.8098 25.5004 30.5719C25.7007 30.9574 25.921 31.3652 26.1739 31.7091C26.3287 31.9206 26.5945 32.0139 26.6368 32.3403C26.3766 32.7042 26.3623 33.2668 26.2162 33.7272C25.5587 35.8005 25.8061 38.3781 26.7629 39.9126C27.0565 40.3834 27.7484 41.3937 28.6988 41.0059C29.5304 40.6675 29.3452 39.6181 29.583 38.6917C29.6366 38.4818 29.6029 38.3278 29.7083 38.1873V38.2296C29.9605 38.7347 30.2135 39.2383 30.4664 39.7434C31.0274 40.646 32.0217 41.5908 32.8684 42.2276C33.3057 42.558 33.6505 43.1286 34.2155 43.3209V43.2786H34.1732C34.0638 43.1078 33.8931 43.036 33.7526 42.8987C33.423 42.5763 33.0559 42.1749 32.7838 41.8055C32.0169 40.7649 31.3402 39.6261 30.7226 38.4403C30.4273 37.8737 30.1712 37.2496 29.9246 36.6735C29.8288 36.4516 29.8304 36.1148 29.6309 35.9999C29.3588 36.4221 28.9566 36.7636 28.7467 37.2624C28.4099 38.0596 28.3668 39.0308 28.2424 40.0387C28.1681 40.0651 28.2018 40.0483 28.1578 40.0809C27.572 39.9397 27.3661 39.3364 27.1483 38.8185C26.5969 37.5098 26.4947 35.4022 26.9791 33.8956C27.1044 33.5061 27.671 32.278 27.442 31.9173C27.3326 31.5582 26.9711 31.3515 26.7684 31.077C26.5179 30.7379 26.2681 30.291 26.0949 29.8992C25.644 28.8785 25.4334 27.7326 24.9586 26.6992C24.7319 26.206 24.3489 25.7064 24.0337 25.2683C23.6849 24.7823 23.2931 24.4248 23.0226 23.8375C22.926 23.6284 22.7975 23.2956 22.9396 23.0818C22.9851 22.9373 23.0481 22.8759 23.191 22.8288C23.4352 22.6405 24.1151 22.8919 24.3688 22.9972C25.0439 23.2773 25.6065 23.5438 26.1787 23.9221C26.4532 24.104 26.7317 24.456 27.0629 24.5533H27.4412C28.0333 24.6898 28.6972 24.5964 29.251 24.764C30.2294 25.0616 31.1064 25.5237 31.9028 26.0264C34.3288 27.5578 36.311 29.738 37.6676 32.3387C37.8863 32.7576 37.9805 33.1566 38.1728 33.6011C38.5606 34.4965 39.0498 35.4174 39.4352 36.2928C39.8207 37.1666 40.1957 38.0484 40.74 38.7754C41.0265 39.1577 42.1317 39.3636 42.6336 39.5734C42.9856 39.7226 43.5625 39.8775 43.8961 40.0778C44.5329 40.4624 45.1506 40.9197 45.7483 41.3402C46.0467 41.5509 46.9652 42.0113 47.0107 42.392C45.5304 42.352 44.4004 42.4893 43.4341 42.8963C43.1595 43.012 42.7206 43.016 42.6759 43.3608C42.8268 43.5188 42.8515 43.755 42.9712 43.9497C43.2018 44.3232 43.5905 44.8227 43.9384 45.0853C44.3182 45.3718 44.7093 45.679 45.1171 45.9272C45.8416 46.3685 46.6492 46.6206 47.3467 47.0627C47.7577 47.3237 48.1662 47.6509 48.5668 47.9453C48.7647 48.0906 48.898 48.3164 49.1558 48.4074V48.3668C49.0201 48.1944 48.9866 47.9558 48.8621 47.7762L48.3155 47.2296C47.7808 46.5194 47.1009 45.8961 46.3795 45.3782C45.8041 44.9648 44.5146 44.4078 44.2744 43.7375C44.26 43.7232 44.2465 43.7096 44.2321 43.6952C44.6399 43.649 45.1195 43.5021 45.4961 43.4016C46.1289 43.2316 46.6931 43.2747 47.3459 43.1063C47.6404 43.0225 47.9356 42.9387 48.2301 42.8549V42.6865C47.8997 42.3474 47.6635 41.8997 47.3036 41.5932C46.3612 40.7872 45.3325 39.9892 44.2736 39.3197C43.6862 38.9486 42.9616 38.7092 42.3392 38.3948C42.1301 38.2895 41.7622 38.2336 41.6234 38.0572C41.2962 37.6407 41.1174 37.1132 40.8653 36.628C40.337 35.6106 39.8191 34.4997 39.3514 33.428C39.0322 32.6986 38.8224 31.978 38.4249 31.3237C36.5137 28.1827 34.4572 26.2858 31.2708 24.4225C30.5925 24.0259 29.7769 23.8711 28.9143 23.6668C28.4514 23.6388 27.9878 23.6101 27.5249 23.5822C27.2424 23.4641 26.948 23.1185 26.6823 22.951C26.0223 22.5344 24.7175 21.8114 23.6402 21.793M28.1977 26.3584C27.8888 26.3523 27.6702 26.3928 27.4395 26.443V26.4853H27.4818C27.6287 26.7878 27.8888 26.9825 28.0708 27.2434C28.2112 27.5379 28.3509 27.8315 28.4913 28.126C28.5048 28.1125 28.5192 28.0997 28.5336 28.0854C28.7946 27.9019 28.9151 27.6074 28.9135 27.1589C28.8089 27.0488 28.793 26.9123 28.7028 26.7807C28.5823 26.6059 28.3501 26.5053 28.1985 26.3585L28.1977 26.3584Z" stroke="#DEF2FE" stroke-width="0.795935" stroke-linecap="square" stroke-linejoin="bevel"/>
</g>
<defs>
<linearGradient id="paint0_linear_313_127" x1="28.9694" y1="52.5923" x2="28.9694" y2="18.4604" gradientUnits="userSpaceOnUse">
<stop/>
<stop offset="1" stop-opacity="0.588235"/>
</linearGradient>
<linearGradient id="paint1_linear_313_127" x1="28.9695" y1="52.5924" x2="28.9695" y2="18.4605" gradientUnits="userSpaceOnUse">
<stop/>
<stop offset="1" stop-opacity="0.588235"/>
</linearGradient>
<linearGradient id="paint2_linear_313_127" x1="28.9695" y1="52.5924" x2="28.9695" y2="18.4605" gradientUnits="userSpaceOnUse">
<stop/>
<stop offset="1" stop-opacity="0.588235"/>
</linearGradient>
<linearGradient id="paint3_linear_313_127" x1="28.9693" y1="52.5924" x2="28.9693" y2="18.4604" gradientUnits="userSpaceOnUse">
<stop/>
<stop offset="1" stop-opacity="0.588235"/>
</linearGradient>
<linearGradient id="paint4_linear_313_127" x1="29.1198" y1="52.1919" x2="29.1198" y2="18.4616" gradientUnits="userSpaceOnUse">
<stop/>
<stop offset="1" stop-opacity="0.588235"/>
</linearGradient>
<linearGradient id="paint5_linear_313_127" x1="35.4358" y1="51.8438" x2="35.4358" y2="18.1513" gradientUnits="userSpaceOnUse">
<stop stop-color="#233D65"/>
<stop offset="1" stop-color="#396AA1"/>
</linearGradient>
<linearGradient id="paint6_linear_313_127" x1="30.7665" y1="18.1562" x2="30.7665" y2="41.3738" gradientUnits="userSpaceOnUse">
<stop stop-color="#FEFEFE"/>
<stop offset="1" stop-color="#FEFEFE" stop-opacity="0"/>
</linearGradient>
<linearGradient id="paint7_linear_313_127" x1="18.592" y1="35.0689" x2="52.2795" y2="35.0689" gradientUnits="userSpaceOnUse">
<stop stop-color="#06B5FF"/>
<stop offset="1" stop-color="#00FFFF" stop-opacity="0"/>
</linearGradient>
<clipPath id="clip0_313_127">
<rect width="38.5" height="38.5" fill="white" transform="translate(16.1858 15.75)"/>
</clipPath>
</defs>
</svg>
