<svg width="24" height="25" viewBox="0 0 24 25" fill="none" xmlns="http://www.w3.org/2000/svg">
<path d="M16.7948 23.7972V20.5593C16.8371 20.0213 16.7644 19.4805 16.5816 18.9728C16.3987 18.4651 16.1099 18.0021 15.7343 17.6146C19.2768 17.2198 22.9999 15.8772 22.9999 9.71721C22.9996 8.14204 22.3937 6.62728 21.3076 5.48644C21.8218 4.10835 21.7855 2.58509 21.2061 1.23311C21.2061 1.23311 19.8748 0.838237 16.7948 2.90285C14.2089 2.20203 11.4832 2.20203 8.89735 2.90285C5.81735 0.838237 4.48607 1.23311 4.48607 1.23311C3.90659 2.58509 3.87023 4.10835 4.38453 5.48644C3.29031 6.63574 2.68379 8.1642 2.69223 9.75105C2.69223 15.8659 6.41529 17.2085 9.95785 17.6485C9.58667 18.0321 9.30041 18.4895 9.11769 18.9909C8.93497 19.4924 8.85989 20.0269 8.89735 20.5593V23.7972" stroke="#2A2E3B" stroke-width="1.57289" stroke-linecap="round" stroke-linejoin="round"/>
<path d="M8.89743 21.5406C5.51282 22.6386 2.69231 21.5406 1 18.156" stroke="#2A2E3B" stroke-width="1.57289" stroke-linecap="round" stroke-linejoin="round"/>
</svg>
