<svg width="16" height="23" viewBox="0 0 16 23" fill="none" xmlns="http://www.w3.org/2000/svg">
<path d="M4.0741 15.1319H4.07324C3.80516 15.1316 3.54016 15.1017 3.28262 15.044L2.79749 15.3442L2.34175 15.6263C2.12468 15.7606 1.92489 15.9191 1.7459 16.0982C1.52253 16.3216 1.33153 16.5769 1.17969 16.857C1.12508 16.9577 1.07591 17.0609 1.03229 17.1662M4.0741 15.1319L7.36822 0.942234H6.92599H4.07411L4.07397 0.942233L4.07324 0.942234C3.27933 0.943124 2.51245 1.2037 1.88617 1.67683C1.75304 1.77741 1.62626 1.88759 1.50692 2.00692C1.06584 2.44801 0.749798 2.99079 0.581656 3.58019C0.490309 3.90039 0.442613 4.23435 0.442232 4.57324L0.442234 4.575C0.442747 5.02769 0.527694 5.4716 0.688342 5.88567C0.869163 6.35173 1.14589 6.77999 1.50607 7.14041C1.70599 7.34046 1.92683 7.51481 2.16344 7.66134C2.41998 7.82019 2.69506 7.94634 2.98215 8.03705C2.69501 8.12778 2.41989 8.25395 2.16332 8.41284C1.92675 8.55935 1.70595 8.73368 1.50607 8.9337C1.26673 9.1732 1.06424 9.44265 0.902255 9.73324C0.60389 10.2685 0.442938 10.8755 0.442232 11.4991L0.442233 11.5L0.442234 11.5009C0.442933 12.1246 0.6039 12.7316 0.902289 13.2669C1.06446 13.5578 1.26723 13.8275 1.50692 14.0672C1.7066 14.2669 1.92713 14.4409 2.16339 14.5872C2.41919 14.7456 2.69343 14.8715 2.97963 14.9622C2.87974 14.9937 2.7811 15.0295 2.68399 15.0697C2.5028 15.1446 2.32842 15.2339 2.16241 15.3365C1.92438 15.4836 1.70357 15.6581 1.5047 15.8568C1.2565 16.1048 1.04602 16.3869 0.879352 16.6942C0.819335 16.8048 0.764997 16.9187 0.716624 17.0354L1.03229 17.1662M4.0741 15.1319L4.07411 15.5741M4.0741 15.1319L7.36822 15.1318M1.03229 17.1662L0.716623 17.0354C0.533915 17.4762 0.439873 17.9487 0.439873 18.4259C0.439873 18.4541 0.4402 18.4821 0.440851 18.5102C0.451261 18.9587 0.544678 19.4016 0.716623 19.8165C0.786575 19.9853 0.868998 20.1481 0.963034 20.3038C1.11461 20.5547 1.29637 20.787 1.5047 20.9951L1.74517 20.7544M1.03229 17.1662C0.867177 17.5648 0.781642 17.9928 0.781548 18.4259C0.781543 18.4514 0.781832 18.4769 0.782418 18.5024C0.791797 18.9103 0.876852 19.3114 1.03178 19.6859C1.09474 19.838 1.16924 19.9858 1.25489 20.1277C1.39297 20.3567 1.5578 20.5669 1.74517 20.7544M4.07411 7.42589V7.50144V7.86817L4.07138 7.86817L4.07078 7.86817C3.80377 7.86865 3.53984 7.8985 3.2833 7.95593L2.34133 7.3736C2.12366 7.23903 1.92379 7.08042 1.74496 6.90167C1.42312 6.57997 1.16945 6.19304 1.00289 5.76365C0.854846 5.38202 0.780229 4.97875 0.780002 4.57461C0.780002 4.57428 0.780002 4.57395 0.780002 4.57362C0.779924 4.27073 0.821632 3.96737 0.905532 3.67228C1.05964 3.13024 1.3495 2.63937 1.74443 2.24444C1.85163 2.13724 1.96656 2.03712 2.08862 1.94495C2.66034 1.51327 3.35724 1.27982 4.07362 1.28C4.0737 1.28 4.07378 1.28 4.07386 1.28H4.07411H6.92599H7.36822V1.72223V7.42589V7.86814L6.92599 7.86815H6.92597L4.08545 7.86822L4.07411 7.42589ZM4.07411 7.42589L4.07218 7.42594C3.31642 7.42458 2.59202 7.12363 2.0578 6.58905C1.52357 6.05446 1.22309 5.32987 1.22223 4.57411C1.22308 3.81801 1.52382 3.09311 2.05847 2.55847C2.59311 2.02382 3.31801 1.72308 4.07411 1.72223H6.14599H6.92599V2.50223V6.64589V7.42589H6.14599H4.07411ZM4.0741 8.20594L4.07138 8.20594L4.07078 8.20594C3.80394 8.20546 3.54018 8.17565 3.2838 8.11829L2.34111 8.70065C2.12391 8.83482 1.92396 8.99326 1.74479 9.17227C1.53026 9.3866 1.34553 9.63042 1.19665 9.89741C0.923504 10.3872 0.780084 10.9387 0.78 11.4995C0.78 11.4997 0.78 11.4999 0.78 11.5C0.78 11.5002 0.78 11.5003 0.78 11.5005C0.780085 12.0613 0.923521 12.6128 1.19669 13.1027C1.34575 13.3699 1.53075 13.614 1.74559 13.8285C1.92458 14.0072 2.12428 14.1654 2.34119 14.2994L3.28255 14.8809C3.54165 14.8232 3.80691 14.794 4.07362 14.7941C4.07379 14.7941 4.07396 14.7941 4.07413 14.7941L4.0741 8.20594ZM4.0741 8.20594L4.07411 8.57554L4.07411 8.64822M4.0741 8.20594L4.08588 8.20589L4.07411 8.64822M4.07411 8.64822L4.07218 8.64817C3.31641 8.64952 2.59202 8.95048 2.05779 9.48506C1.52356 10.0196 1.22309 10.7442 1.22223 11.5C1.22308 12.2561 1.52382 12.981 2.05847 13.5156C2.59311 14.0503 3.31801 14.351 4.07411 14.3519L6.92599 14.3518V9.42815H6.92601L6.92599 8.64815H6.14599V8.64817L4.07411 8.64822ZM1.74517 20.7544C1.96002 20.9695 2.2045 21.1546 2.47229 21.3038C2.5831 21.3655 2.69705 21.4206 2.81353 21.4689C3.21225 21.6342 3.64065 21.7199 4.07449 21.72C4.07453 21.72 4.07457 21.72 4.07461 21.72C4.08741 21.72 4.10022 21.7199 4.11303 21.7198C4.68685 21.7131 5.24897 21.5567 5.7437 21.2659C5.98544 21.1238 6.20699 20.952 6.40361 20.7554C6.60937 20.5497 6.78782 20.3167 6.93353 20.062C7.21842 19.564 7.36826 19.0002 7.36822 18.4264C7.36822 18.4263 7.36822 18.4262 7.36822 18.4261L7.36822 18.4259L7.36822 15.574V15.1318M1.74517 20.7544L1.5047 20.9951C1.74331 21.2335 2.01348 21.437 2.30713 21.6003C2.4289 21.668 2.55472 21.7287 2.68399 21.7822C3.12498 21.9645 3.59757 22.0582 4.07477 22.0578H4.07498C4.08898 22.0577 4.10296 22.0577 4.11694 22.0575C4.75444 22.0494 5.37317 21.874 5.91411 21.5558C6.17716 21.4011 6.42181 21.2126 6.64128 20.9931C6.871 20.7634 7.06681 20.5061 7.22547 20.229C7.53695 19.685 7.70526 19.0646 7.70599 18.4268V18.426V18.4259V15.574V15.1317V15.0618C7.84637 15.1917 7.99406 15.313 8.14822 15.4251V18.4259C8.14835 19.1357 7.96301 19.8332 7.61058 20.4493C7.25814 21.0654 6.75084 21.5787 6.13894 21.9383C5.52704 22.298 4.83179 22.4915 4.12206 22.4997C3.41234 22.5079 2.71279 22.3306 2.09273 21.9852C1.47266 21.6398 0.953606 21.1384 0.586994 20.5306C0.220382 19.9229 0.018939 19.2299 0.00262457 18.5203C-0.0136898 17.8107 0.155691 17.1092 0.493984 16.4852C0.700397 16.1045 0.965324 15.7607 1.27761 15.4657C1.35709 15.5217 1.43837 15.5753 1.52136 15.6266L1.93127 14.963L1.5208 14.2997C1.43787 14.3511 1.35665 14.4048 1.27723 14.4608C0.976014 14.1766 0.718738 13.8471 0.51547 13.4826C0.177452 12.8765 1.0002e-05 12.194 0 11.5001C-1.00011e-05 10.8061 0.177412 10.1236 0.515413 9.51751C0.718652 9.15306 0.975888 8.8235 1.27706 8.53934C1.35657 8.59538 1.43791 8.64913 1.52102 8.70051L1.93117 8.03705L1.52124 7.37346C1.43814 7.4248 1.35676 7.47854 1.27719 7.53459C0.839301 7.12127 0.495929 6.61351 0.275684 6.04575C-0.0448094 5.21955 -0.0870862 4.31136 0.155268 3.45896C0.397622 2.60656 0.911382 1.85647 1.61861 1.32247C2.32583 0.788473 3.18793 0.499714 4.07411 0.5H11.0001C11.8863 0.499714 12.7484 0.788473 13.4556 1.32247C14.1628 1.85647 14.6766 2.60656 14.9189 3.45896C15.1613 4.31136 15.119 5.21955 14.7985 6.04575C14.5783 6.61353 14.2349 7.1213 13.797 7.53463L7.36822 15.1318M7.36822 15.1318L6.92602 15.1318H6.92598L4.07449 15.1319L4.07411 15.5741M4.07411 15.5741L6.14599 15.5741V15.574H6.92599L6.92601 16.354H6.92599V18.4259C6.92513 19.182 6.62439 19.9069 6.08974 20.4416C5.5551 20.9762 4.83021 21.2769 4.07411 21.2778C3.6994 21.2781 3.3283 21.2046 2.98202 21.0614C2.63575 20.9182 2.32108 20.7082 2.05601 20.4433C1.79093 20.1785 1.58065 19.864 1.43719 19.5178C1.29372 19.1717 1.21987 18.8006 1.21987 18.4259C1.21987 18.0512 1.29372 17.6802 1.43719 17.334C1.58065 16.9879 1.79093 16.6734 2.05601 16.4085C2.32108 16.1437 2.63575 15.9337 2.98202 15.7905C3.3283 15.6473 3.6994 15.5738 4.07411 15.5741ZM8.1482 8.20589L9.47154 8.20594C9.08773 8.38412 8.73441 8.62967 8.42981 8.93498C8.1268 9.23871 7.88305 9.59052 7.70599 9.97243V8.64815V8.20589V8.20587L8.1482 8.20589ZM8.14822 14.4058L7.70599 14.8559L8.14822 14.4058Z" fill="#2A2E3B" stroke="#2A2E3B" stroke-width="1.56"/>
</svg>
