<svg width="24" height="27" viewBox="0 0 24 27" fill="none" xmlns="http://www.w3.org/2000/svg">
<path d="M11.1604 18.6206L16.24 13.541L11.1604 8.46142" stroke="#2A2E3B" stroke-width="1.57" stroke-linecap="round" stroke-linejoin="round"/>
<path d="M16.2412 13.5405H1.00014" stroke="#2A2E3B" stroke-width="1.57" stroke-linecap="round" stroke-linejoin="round"/>
<path d="M2.69214 9.30846V5.06142C2.69214 3.19613 4.20033 1.68194 6.06561 1.67454L19.5324 1.62112C21.403 1.6137 22.9253 3.12404 22.9327 4.99456M22.9327 4.99456C22.9327 4.99456 22.9327 4.99456 22.9327 4.99456ZM22.9327 4.99456L23.0001 21.9785C23.0075 23.849 21.4972 25.3714 19.6266 25.3788C19.6222 25.3788 19.6177 25.3788 19.6132 25.3788H6.07904C4.20851 25.3788 2.69214 23.8625 2.69214 21.9919V17.7757" stroke="#2A2E3B" stroke-width="1.57" stroke-linecap="round" stroke-linejoin="round"/>
</svg>
