<svg width="15" height="23" viewBox="0 0 15 23" fill="none" xmlns="http://www.w3.org/2000/svg">
  <path d="M13.4212 7.83244C14.0839 7.31946 14.5734 6.60427 14.8204 5.78819C15.0675 4.9721 15.0594 4.0965 14.7974 3.2854C14.5355 2.4743 14.0329 1.76883 13.3608 1.26892C12.6888 0.769008 11.8813 0.5 11.0529 0.5H3.94822C3.1198 0.5 2.31238 0.769008 1.64034 1.26892C0.968288 1.76883 0.465683 2.4743 0.203714 3.2854C-0.058255 4.0965 -0.0663061 4.9721 0.180701 5.78819C0.427709 6.60427 0.917252 7.31946 1.57999 7.83244C1.0782 8.22055 0.673227 8.72646 0.398617 9.30826C0.124008 9.89007 -0.0123371 10.531 0.000876552 11.178C0.0140902 11.8251 0.176482 12.4595 0.474601 13.0289C0.772719 13.5982 1.19799 14.0861 1.71517 14.452C1.1269 14.9136 0.66252 15.5225 0.366004 16.2211C0.0694869 16.9197 -0.0493526 17.6848 0.0207376 18.4441C0.0908279 19.2033 0.347528 19.9315 0.766532 20.5597C1.18554 21.188 1.75298 21.6954 2.41513 22.0341C3.07727 22.3727 3.81221 22.5313 4.55036 22.4949C5.2885 22.4584 6.00542 22.2282 6.63323 21.8259C7.26104 21.4235 7.77896 20.8625 8.13795 20.1959C8.49695 19.5292 8.68513 18.7791 8.68469 18.0164V14.3502C9.52215 14.9984 10.5748 15.2767 11.6111 15.1239C12.6474 14.9711 13.5825 14.3998 14.2106 13.5354C14.8387 12.6711 15.1084 11.5847 14.9603 10.5152C14.8123 9.44569 14.2586 8.48067 13.4212 7.83244ZM13.4212 4.57358C13.4212 5.22181 13.1717 5.84348 12.7275 6.30185C12.2834 6.76022 11.681 7.01772 11.0529 7.01772H8.68469V2.12943H11.0529C11.681 2.12943 12.2834 2.38694 12.7275 2.84531C13.1717 3.30367 13.4212 3.92535 13.4212 4.57358ZM1.57999 4.57358C1.57999 3.92535 1.8295 3.30367 2.27363 2.84531C2.71776 2.38694 3.32013 2.12943 3.94822 2.12943H7.10587V7.01772H3.94822C3.32013 7.01772 2.71776 6.76022 2.27363 6.30185C1.8295 5.84348 1.57999 5.22181 1.57999 4.57358ZM3.94822 13.5354C3.32013 13.5354 2.71776 13.2779 2.27363 12.8196C1.8295 12.3612 1.57999 11.7395 1.57999 11.0913C1.57999 10.4431 1.8295 9.8214 2.27363 9.36303C2.71776 8.90466 3.32013 8.64716 3.94822 8.64716H7.10587V13.5354H3.94822ZM7.10587 18.0164C7.10587 18.5804 6.94383 19.1317 6.64023 19.6006C6.33663 20.0695 5.90512 20.435 5.40026 20.6508C4.8954 20.8667 4.33986 20.9231 3.8039 20.8131C3.26795 20.7031 2.77564 20.4315 2.38923 20.0327C2.00283 19.6339 1.73968 19.1258 1.63308 18.5727C1.52647 18.0195 1.58118 17.4462 1.7903 16.9252C1.99942 16.4041 2.35356 15.9588 2.80792 15.6454C3.26228 15.3321 3.79647 15.1649 4.34293 15.1649H7.10587V18.0164ZM11.0529 13.5354C10.5845 13.5354 10.1267 13.3921 9.73721 13.1235C9.34775 12.855 9.04421 12.4732 8.86496 12.0266C8.68572 11.58 8.63882 11.0886 8.7302 10.6145C8.82158 10.1404 9.04713 9.70485 9.37833 9.36303C9.70954 9.02121 10.1315 8.78843 10.5909 8.69412C11.0503 8.59981 11.5265 8.64821 11.9592 8.8332C12.3919 9.0182 12.7618 9.33147 13.022 9.73341C13.2823 10.1353 13.4212 10.6079 13.4212 11.0913C13.4212 11.7395 13.1717 12.3612 12.7275 12.8196C12.2834 13.2779 11.681 13.5354 11.0529 13.5354Z" 
    fill="#261F22"
    stroke-width="1.57"/>
</svg>

