<svg width="240" height="240" viewBox="0 0 240 240" fill="none" xmlns="http://www.w3.org/2000/svg">
<g filter="url(#filter0_dddd_67_307)">
<circle cx="120" cy="87" r="40" fill="white"/>
</g>
<path d="M134.965 79.9647C134.498 79.8042 134.015 79.6523 133.517 79.5087C133.599 79.1749 133.674 78.8454 133.741 78.5216C134.837 73.2037 134.12 68.9195 131.674 67.509C129.329 66.1565 125.493 67.5667 121.619 70.938C121.247 71.2622 120.873 71.6054 120.5 71.9651C120.251 71.7271 120.003 71.4971 119.755 71.2772C115.695 67.6724 111.626 66.1532 109.182 67.5678C106.839 68.9243 106.145 72.9518 107.131 77.9916C107.226 78.4784 107.338 78.9755 107.464 79.4809C106.888 79.6444 106.332 79.8187 105.8 80.0041C101.04 81.6636 98 84.2644 98 86.9621C98 89.7484 101.263 92.543 106.221 94.2375C106.612 94.3712 107.018 94.4977 107.437 94.6177C107.301 95.1644 107.183 95.7001 107.083 96.2225C106.143 101.175 106.877 105.107 109.214 106.455C111.628 107.847 115.679 106.416 119.624 102.968C119.936 102.696 120.249 102.407 120.562 102.104C120.968 102.495 121.374 102.865 121.777 103.212C125.598 106.5 129.372 107.828 131.707 106.476C134.118 105.08 134.902 100.856 133.884 95.7167C133.807 95.3242 133.716 94.9232 133.615 94.515C133.899 94.4309 134.178 94.3441 134.451 94.2538C139.605 92.5462 142.958 89.7856 142.958 86.9621C142.958 84.2546 139.82 81.6363 134.965 79.9647ZM133.847 92.4308C133.601 92.5122 133.349 92.5908 133.092 92.6671C132.523 90.8658 131.755 88.9504 130.815 86.9715C131.712 85.0397 132.45 83.1488 133.003 81.3592C133.463 81.4923 133.909 81.6326 134.339 81.7808C138.5 83.213 141.038 85.3305 141.038 86.9621C141.038 88.7001 138.297 90.9563 133.847 92.4308ZM132 96.0897C132.45 98.3623 132.514 100.417 132.216 102.023C131.949 103.467 131.41 104.429 130.744 104.814C129.328 105.634 126.298 104.568 123.03 101.757C122.655 101.434 122.278 101.09 121.9 100.726C123.166 99.3402 124.432 97.7296 125.668 95.9408C127.841 95.7479 129.895 95.4326 131.757 95.0022C131.849 95.3721 131.93 95.7349 132 96.0897ZM113.327 104.673C111.943 105.161 110.84 105.175 110.174 104.791C108.756 103.973 108.166 100.816 108.971 96.5807C109.063 96.0957 109.172 95.5975 109.299 95.0882C111.14 95.4954 113.179 95.7885 115.357 95.9651C116.601 97.7155 117.904 99.3244 119.217 100.733C118.93 101.01 118.644 101.274 118.36 101.522C116.616 103.047 114.868 104.129 113.327 104.673ZM106.842 92.4201C104.65 91.6709 102.84 90.6971 101.599 89.6344C100.483 88.6795 99.9205 87.7314 99.9205 86.9621C99.9205 85.3251 102.361 83.237 106.432 81.8177C106.926 81.6455 107.443 81.4832 107.979 81.3308C108.542 83.1608 109.28 85.0741 110.171 87.0089C109.268 88.9724 108.52 90.9162 107.952 92.7676C107.569 92.6577 107.199 92.5419 106.842 92.4201ZM109.016 77.6227C108.171 73.3048 108.732 70.0474 110.144 69.23C111.648 68.3593 114.974 69.6008 118.48 72.7134C118.704 72.9123 118.929 73.1205 119.154 73.336C117.848 74.7386 116.557 76.3354 115.324 78.0754C113.21 78.2714 111.186 78.5862 109.325 79.0078C109.208 78.5372 109.104 78.0748 109.016 77.6227ZM128.409 82.4114C127.964 81.643 127.507 80.8927 127.042 80.163C128.476 80.3443 129.851 80.585 131.141 80.8796C130.754 82.1214 130.271 83.4198 129.702 84.7509C129.294 83.9766 128.863 83.196 128.409 82.4114ZM120.501 74.7086C121.386 75.6683 122.274 76.7398 123.146 77.9024C122.267 77.8609 121.377 77.8393 120.479 77.8393C119.59 77.8393 118.706 77.8604 117.832 77.9012C118.706 76.7494 119.601 75.6793 120.501 74.7086ZM112.541 82.4246C112.097 83.1952 111.674 83.9716 111.272 84.7494C110.713 83.423 110.235 82.1187 109.844 80.8593C111.126 80.5722 112.494 80.3375 113.92 80.1596C113.448 80.8961 112.987 81.652 112.541 82.4246ZM113.961 93.9016C112.488 93.7374 111.1 93.5147 109.817 93.2356C110.214 91.9537 110.703 90.6215 111.275 89.2665C111.677 90.0438 112.102 90.8205 112.549 91.5928C113.005 92.3795 113.476 93.1501 113.961 93.9016ZM120.554 99.3511C119.643 98.369 118.735 97.2825 117.849 96.1139C118.709 96.1477 119.587 96.165 120.479 96.165C121.395 96.165 122.301 96.1444 123.193 96.1047C122.317 97.2943 121.434 98.3824 120.554 99.3511ZM129.721 89.1975C130.322 90.5671 130.828 91.8923 131.23 93.1524C129.927 93.4497 128.519 93.6893 127.036 93.8672C127.503 93.1276 127.964 92.3645 128.417 91.5796C128.875 90.7854 129.309 89.99 129.721 89.1975ZM126.753 90.6201C126.05 91.8386 125.329 93.0019 124.596 94.0999C123.262 94.1953 121.884 94.2444 120.479 94.2444C119.08 94.2444 117.719 94.2009 116.409 94.1159C115.647 93.0035 114.909 91.8368 114.211 90.6306C113.515 89.4276 112.874 88.2145 112.293 87.0082C112.874 85.7991 113.513 84.5847 114.205 83.3839L114.205 83.3841C114.9 82.1802 115.63 81.0192 116.385 79.9137C117.722 79.8126 119.093 79.7599 120.479 79.7599C121.871 79.7599 123.244 79.813 124.58 79.915C125.324 81.0124 126.05 82.1696 126.747 83.3737C127.452 84.5914 128.099 85.7978 128.685 86.9809C128.101 88.1844 127.455 89.403 126.753 90.6201ZM130.715 69.1729C132.22 70.0411 132.806 73.5425 131.86 78.1339C131.8 78.4269 131.732 78.7253 131.658 79.0277C129.793 78.5974 127.767 78.2771 125.647 78.0782C124.411 76.319 123.131 74.7197 121.846 73.3351C122.192 73.0027 122.537 72.6858 122.88 72.3868C126.199 69.4983 129.302 68.3579 130.715 69.1729ZM120.479 82.9475C122.696 82.9475 124.494 84.7449 124.494 86.9621C124.494 89.1793 122.696 90.9767 120.479 90.9767C118.262 90.9767 116.464 89.1793 116.464 86.9621C116.464 84.7449 118.262 82.9475 120.479 82.9475Z" fill="#00D8FF"/>
<defs>
<filter id="filter0_dddd_67_307" x="0" y="0" width="240" height="240" filterUnits="userSpaceOnUse" color-interpolation-filters="sRGB">
<feFlood flood-opacity="0" result="BackgroundImageFix"/>
<feColorMatrix in="SourceAlpha" type="matrix" values="0 0 0 0 0 0 0 0 0 0 0 0 0 0 0 0 0 0 127 0" result="hardAlpha"/>
<feOffset dy="1.4945"/>
<feGaussianBlur stdDeviation="1.81152"/>
<feColorMatrix type="matrix" values="0 0 0 0 0 0 0 0 0 0 0 0 0 0 0 0 0 0 0.0243888 0"/>
<feBlend mode="normal" in2="BackgroundImageFix" result="effect1_dropShadow_67_307"/>
<feColorMatrix in="SourceAlpha" type="matrix" values="0 0 0 0 0 0 0 0 0 0 0 0 0 0 0 0 0 0 127 0" result="hardAlpha"/>
<feOffset dy="4.13211"/>
<feGaussianBlur stdDeviation="5.00862"/>
<feColorMatrix type="matrix" values="0 0 0 0 0 0 0 0 0 0 0 0 0 0 0 0 0 0 0.035 0"/>
<feBlend mode="normal" in2="effect1_dropShadow_67_307" result="effect2_dropShadow_67_307"/>
<feColorMatrix in="SourceAlpha" type="matrix" values="0 0 0 0 0 0 0 0 0 0 0 0 0 0 0 0 0 0 127 0" result="hardAlpha"/>
<feOffset dy="9.94853"/>
<feGaussianBlur stdDeviation="12.0588"/>
<feColorMatrix type="matrix" values="0 0 0 0 0 0 0 0 0 0 0 0 0 0 0 0 0 0 0.0456112 0"/>
<feBlend mode="normal" in2="effect2_dropShadow_67_307" result="effect3_dropShadow_67_307"/>
<feColorMatrix in="SourceAlpha" type="matrix" values="0 0 0 0 0 0 0 0 0 0 0 0 0 0 0 0 0 0 127 0" result="hardAlpha"/>
<feOffset dy="33"/>
<feGaussianBlur stdDeviation="40"/>
<feColorMatrix type="matrix" values="0 0 0 0 0 0 0 0 0 0 0 0 0 0 0 0 0 0 0.07 0"/>
<feBlend mode="normal" in2="effect3_dropShadow_67_307" result="effect4_dropShadow_67_307"/>
<feBlend mode="normal" in="SourceGraphic" in2="effect4_dropShadow_67_307" result="shape"/>
</filter>
</defs>
</svg>
