<svg width="70" height="70" viewBox="0 0 70 70" fill="none" xmlns="http://www.w3.org/2000/svg">
<circle cx="35" cy="35" r="35" fill="white"/>
<path d="M48.0941 28.8442C47.686 28.7037 47.2631 28.5708 46.8277 28.4451C46.8993 28.153 46.965 27.8648 47.0234 27.5814C47.9819 22.9282 47.3552 19.1796 45.215 17.9454C43.1628 16.762 39.8066 17.9959 36.4169 20.9458C36.091 21.2294 35.7641 21.5297 35.4374 21.8445C35.2197 21.6362 35.0024 21.435 34.7856 21.2425C31.2332 18.0883 27.6724 16.7591 25.5343 17.9969C23.484 19.1837 22.8769 22.7078 23.7398 27.1176C23.8231 27.5436 23.9205 27.9785 24.0306 28.4208C23.5267 28.5639 23.0402 28.7164 22.5747 28.8786C18.4098 30.3306 15.75 32.6064 15.75 34.9669C15.75 37.4048 18.6053 39.8501 22.9433 41.3328C23.2857 41.4498 23.6409 41.5605 24.007 41.6655C23.8881 42.1438 23.7848 42.6125 23.698 43.0697C22.8753 47.403 23.5178 50.8438 25.5626 52.0232C27.6746 53.2412 31.2193 51.9892 34.6709 48.9721C34.9437 48.7336 35.2175 48.4807 35.4917 48.2156C35.8472 48.558 36.2022 48.8819 36.5552 49.1858C39.8985 52.0628 43.2005 53.2246 45.2434 52.0419C47.3534 50.8204 48.0391 47.1242 47.1488 42.6271C47.0808 42.2837 47.0017 41.9328 46.9129 41.5757C47.1618 41.5021 47.4062 41.4261 47.6444 41.3471C52.1542 39.8529 55.0884 37.4374 55.0884 34.9669C55.0884 32.5978 52.3428 30.3068 48.0941 28.8442ZM47.1159 39.7519C46.9008 39.8232 46.6801 39.892 46.4552 39.9587C45.9573 38.3826 45.2854 36.7066 44.4631 34.9751C45.2478 33.2847 45.8938 31.6302 46.3777 30.0643C46.7801 30.1807 47.1707 30.3035 47.547 30.4332C51.1873 31.6863 53.4079 33.5392 53.4079 34.9669C53.4079 36.4876 51.0098 38.4617 47.1159 39.7519ZM45.5002 42.9535C45.8939 44.942 45.9501 46.7399 45.6894 48.1454C45.4551 49.4083 44.9839 50.2503 44.4013 50.5875C43.1616 51.3051 40.5104 50.3724 37.6512 47.9119C37.3234 47.6299 36.9933 47.3287 36.6621 47.01C37.7705 45.7977 38.8783 44.3884 39.9596 42.8232C41.8613 42.6544 43.658 42.3785 45.2873 42.0019C45.3675 42.3256 45.4388 42.6431 45.5002 42.9535ZM29.1613 50.4635C27.9501 50.8913 26.9854 50.9035 26.4023 50.5673C25.1614 49.8516 24.6456 47.089 25.3492 43.3831C25.4298 42.9587 25.5257 42.5228 25.6363 42.0772C27.2478 42.4335 29.0313 42.6899 30.9376 42.8445C32.0261 44.376 33.1659 45.7838 34.3145 47.0165C34.0636 47.2588 33.8136 47.4894 33.565 47.7068C32.0388 49.0409 30.5093 49.9875 29.1613 50.4635ZM23.4869 39.7426C21.5687 39.087 19.9846 38.2349 18.8987 37.3051C17.9231 36.4695 17.4305 35.64 17.4305 34.9669C17.4305 33.5344 19.566 31.7073 23.1278 30.4655C23.56 30.3148 24.0124 30.1728 24.4819 30.0394C24.9742 31.6407 25.6199 33.3148 26.3992 35.0078C25.6098 36.7258 24.9549 38.4266 24.4578 40.0467C24.1231 39.9505 23.7989 39.8492 23.4869 39.7426ZM25.389 26.7949C24.6497 23.0167 25.1407 20.1665 26.3762 19.4513C27.6923 18.6894 30.6025 19.7757 33.6697 22.4992C33.8658 22.6733 34.0626 22.8555 34.26 23.044C33.117 24.2712 31.9876 25.6685 30.9088 27.191C29.0587 27.3625 27.2877 27.638 25.6594 28.0068C25.557 27.595 25.4664 27.1904 25.389 26.7949ZM42.3578 30.9849C41.9685 30.3126 41.5689 29.6561 41.1615 29.0176C42.4167 29.1763 43.6192 29.3869 44.7486 29.6446C44.4095 30.7312 43.9869 31.8673 43.4895 33.032C43.1327 32.3546 42.7552 31.6715 42.3578 30.9849ZM35.438 24.245C36.2131 25.0848 36.9894 26.0223 37.7529 27.0396C36.9835 27.0033 36.2046 26.9844 35.4192 26.9844C34.6413 26.9844 33.8681 27.0029 33.1034 27.0386C33.8677 26.0307 34.6507 25.0944 35.438 24.245ZM28.4738 30.9966C28.085 31.6708 27.7146 32.3501 27.3633 33.0308C26.8739 31.8701 26.4553 30.7289 26.1133 29.6269C27.2357 29.3757 28.4326 29.1703 29.6797 29.0147C29.2666 29.6591 28.8637 30.3205 28.4738 30.9966ZM29.7156 41.0389C28.4271 40.8952 27.2122 40.7004 26.0901 40.4562C26.4376 39.3345 26.8655 38.1688 27.3652 36.9832C27.7174 37.6633 28.0892 38.343 28.4805 39.0187C28.8789 39.7071 29.2919 40.3814 29.7156 41.0389ZM35.4845 45.8072C34.688 44.9478 33.8935 43.9972 33.1176 42.9747C33.8708 43.0042 34.6387 43.0194 35.4192 43.0194C36.221 43.0194 37.0137 43.0013 37.7938 42.9666C37.0278 44.0075 36.2543 44.9596 35.4845 45.8072ZM43.5055 36.9228C44.0313 38.1212 44.4746 39.2808 44.8265 40.3833C43.6859 40.6435 42.4544 40.8531 41.1569 41.0088C41.5653 40.3617 41.9684 39.694 42.3645 39.0071C42.7653 38.3122 43.1458 37.6163 43.5055 36.9228ZM40.9088 38.1676C40.2939 39.2338 39.6626 40.2516 39.0217 41.2124C37.8543 41.2959 36.6484 41.3388 35.4192 41.3388C34.195 41.3388 33.0042 41.3008 31.8575 41.2264C31.1908 40.253 30.5457 39.2322 29.9347 38.1767C29.3253 37.1242 28.7646 36.0627 28.2564 35.0072C28.7645 33.9492 29.3239 32.8866 29.9298 31.8359L29.9296 31.8361C30.5371 30.7826 31.1765 29.7668 31.8371 28.7995C33.007 28.711 34.2067 28.6649 35.4191 28.6649C36.637 28.6649 37.8383 28.7114 39.0079 28.8006C39.6584 29.7608 40.2934 30.7734 40.9033 31.827C41.5201 32.8925 42.0867 33.948 42.5992 34.9833C42.0883 36.0364 41.5229 37.1026 40.9088 38.1676ZM44.3755 19.4013C45.6929 20.161 46.2051 23.2247 45.3775 27.2422C45.3247 27.4985 45.2652 27.7597 45.2007 28.0243C43.5686 27.6477 41.7964 27.3675 39.9409 27.1934C38.8599 25.6541 37.7398 24.2547 36.6154 23.0432C36.9177 22.7524 37.2196 22.4751 37.5202 22.2134C40.4244 19.686 43.1388 18.6881 44.3755 19.4013ZM35.4192 31.4541C37.3592 31.4541 38.932 33.0268 38.932 34.9669C38.932 36.9069 37.3592 38.4796 35.4192 38.4796C33.4792 38.4796 31.9064 36.9069 31.9064 34.9669C31.9064 33.0268 33.4792 31.4541 35.4192 31.4541Z" fill="#00D8FF"/>
</svg>
