<svg width="241" height="240" viewBox="0 0 241 240" fill="none" xmlns="http://www.w3.org/2000/svg">
<g filter="url(#filter0_dddd_67_320)">
<circle cx="120.5" cy="87" r="40" fill="white"/>
</g>
<path d="M134.5 66H106.5C103.186 66 100.5 68.6863 100.5 72V100C100.5 103.314 103.186 106 106.5 106H134.5C137.814 106 140.5 103.314 140.5 100V72C140.5 68.6863 137.814 66 134.5 66Z" fill="#CC6699"/>
<path d="M120.656 72.875C113.156 75.4532 108.313 80.6875 108.781 83.8125C109.25 86.9375 113.938 89.4375 116.047 91.0782C113.313 92.4844 109.875 94.5938 109.953 97.3282C110.109 101.078 114.172 99.9063 115.891 98.8125C117.609 97.7188 119.328 94.6719 118.234 91.4688C120.656 90.8438 122.766 91.625 123.391 92.0938C125.813 93.8125 124.563 95.7657 123.703 96.0782C122.844 96.3907 123.391 96.5469 123.938 96.3907C124.484 96.2344 125.656 95.4532 125.656 94.125C125.656 90.7657 122.063 89.2032 117.609 90.375C115.031 87.6407 111.516 86.3907 111.672 83.4219C111.75 82.3282 112.141 79.5157 119.094 76C126.047 72.4844 130.969 73.8907 130.344 77.0938C129.406 81.9375 120.969 85.2188 118 82.4063C117.844 82.0938 117.297 81.8594 117.609 82.7188C119.172 86.625 131.828 84.8282 132.375 76.5469C132.531 72.1719 126.203 71 120.656 72.875ZM113.938 97.875C111.984 98.5 112.063 97.25 112.141 96.7813C112.375 95.4532 113.469 93.8125 116.75 92.1719C117.688 95.1407 115.578 97.4063 113.938 97.875Z" fill="white"/>
<defs>
<filter id="filter0_dddd_67_320" x="0.5" y="0" width="240" height="240" filterUnits="userSpaceOnUse" color-interpolation-filters="sRGB">
<feFlood flood-opacity="0" result="BackgroundImageFix"/>
<feColorMatrix in="SourceAlpha" type="matrix" values="0 0 0 0 0 0 0 0 0 0 0 0 0 0 0 0 0 0 127 0" result="hardAlpha"/>
<feOffset dy="1.4945"/>
<feGaussianBlur stdDeviation="1.81152"/>
<feColorMatrix type="matrix" values="0 0 0 0 0 0 0 0 0 0 0 0 0 0 0 0 0 0 0.0243888 0"/>
<feBlend mode="normal" in2="BackgroundImageFix" result="effect1_dropShadow_67_320"/>
<feColorMatrix in="SourceAlpha" type="matrix" values="0 0 0 0 0 0 0 0 0 0 0 0 0 0 0 0 0 0 127 0" result="hardAlpha"/>
<feOffset dy="4.13211"/>
<feGaussianBlur stdDeviation="5.00862"/>
<feColorMatrix type="matrix" values="0 0 0 0 0 0 0 0 0 0 0 0 0 0 0 0 0 0 0.035 0"/>
<feBlend mode="normal" in2="effect1_dropShadow_67_320" result="effect2_dropShadow_67_320"/>
<feColorMatrix in="SourceAlpha" type="matrix" values="0 0 0 0 0 0 0 0 0 0 0 0 0 0 0 0 0 0 127 0" result="hardAlpha"/>
<feOffset dy="9.94853"/>
<feGaussianBlur stdDeviation="12.0588"/>
<feColorMatrix type="matrix" values="0 0 0 0 0 0 0 0 0 0 0 0 0 0 0 0 0 0 0.0456112 0"/>
<feBlend mode="normal" in2="effect2_dropShadow_67_320" result="effect3_dropShadow_67_320"/>
<feColorMatrix in="SourceAlpha" type="matrix" values="0 0 0 0 0 0 0 0 0 0 0 0 0 0 0 0 0 0 127 0" result="hardAlpha"/>
<feOffset dy="33"/>
<feGaussianBlur stdDeviation="40"/>
<feColorMatrix type="matrix" values="0 0 0 0 0 0 0 0 0 0 0 0 0 0 0 0 0 0 0.07 0"/>
<feBlend mode="normal" in2="effect3_dropShadow_67_320" result="effect4_dropShadow_67_320"/>
<feBlend mode="normal" in="SourceGraphic" in2="effect4_dropShadow_67_320" result="shape"/>
</filter>
</defs>
</svg>
