<svg width="70" height="70" viewBox="0 0 70 70" fill="none" xmlns="http://www.w3.org/2000/svg">
<circle cx="35" cy="35" r="35" fill="white"/>
<path d="M47.25 16.625H22.75C19.8505 16.625 17.5 18.9755 17.5 21.875V46.375C17.5 49.2745 19.8505 51.625 22.75 51.625H47.25C50.1495 51.625 52.5 49.2745 52.5 46.375V21.875C52.5 18.9755 50.1495 16.625 47.25 16.625Z" fill="#CC6699"/>
<path d="M35.1367 22.6407C28.5742 24.8965 24.3359 29.4766 24.7461 32.211C25.1563 34.9454 29.2578 37.1329 31.1035 38.5684C28.7109 39.7989 25.7031 41.6446 25.7715 44.0372C25.9082 47.3184 29.4629 46.293 30.9668 45.336C32.4707 44.3789 33.9746 41.7129 33.0176 38.9102C35.1367 38.3633 36.9824 39.0469 37.5293 39.4571C39.6484 40.961 38.5547 42.67 37.8027 42.9434C37.0508 43.2168 37.5293 43.3536 38.0078 43.2168C38.4863 43.0801 39.5117 42.3965 39.5117 41.2344C39.5117 38.295 36.3672 36.9278 32.4707 37.9532C30.2148 35.5606 27.1387 34.4668 27.2754 31.8692C27.3438 30.9122 27.6855 28.4512 33.7695 25.375C39.8535 22.2989 44.1602 23.5293 43.6133 26.3321C42.793 30.5704 35.4102 33.4414 32.8125 30.9805C32.6758 30.7071 32.1973 30.502 32.4707 31.2539C33.8379 34.6719 44.9121 33.0996 45.3906 25.8536C45.5273 22.0254 39.9902 21 35.1367 22.6407ZM29.2578 44.5157C27.5488 45.0625 27.6172 43.9688 27.6855 43.5586C27.8906 42.3965 28.8477 40.961 31.7188 39.5254C32.5391 42.1231 30.6934 44.1055 29.2578 44.5157Z" fill="white"/>
</svg>
