<svg width="70" height="70" viewBox="0 0 70 70" fill="none" xmlns="http://www.w3.org/2000/svg">
<circle cx="35" cy="35" r="35" fill="white"/>
<path d="M35 21.875C29.1667 21.875 25.5208 24.7917 24.0625 30.625C26.25 27.7083 28.8021 26.6146 31.7188 27.3438C33.3829 27.7598 34.5723 28.967 35.8889 30.3034C38.0336 32.4804 40.5158 35 45.9375 35C51.7708 35 55.4167 32.0833 56.875 26.25C54.6875 29.1667 52.1354 30.2604 49.2187 29.5313C47.5546 29.1152 46.3652 27.908 45.0486 26.5716C42.9039 24.3946 40.4217 21.875 35 21.875ZM24.0625 35C18.2292 35 14.5833 37.9167 13.125 43.75C15.3125 40.8333 17.8646 39.7396 20.7812 40.4688C22.4454 40.8848 23.6348 42.092 24.9514 43.4284C27.0961 45.6054 29.5783 48.125 35 48.125C40.8333 48.125 44.4792 45.2083 45.9375 39.375C43.75 42.2917 41.1979 43.3854 38.2812 42.6563C36.6171 42.2402 35.4277 41.033 34.1111 39.6966C31.9664 37.5196 29.4842 35 24.0625 35Z" fill="url(#paint0_linear_313_82)"/>
<defs>
<linearGradient id="paint0_linear_313_82" x1="-297.986" y1="1315.48" x2="10422" y2="5033.67" gradientUnits="userSpaceOnUse">
<stop stop-color="#2298BD"/>
<stop offset="1" stop-color="#0ED7B5"/>
</linearGradient>
</defs>
</svg>
